STARTFONT 2.1
COMMENT
COMMENT Converted from OpenType font "RuthlessSketch_Italic.ttf" by "otf2bdf 3.0".
COMMENT
FONT -FreeType-Ruthless Sketch-Medium-I-Normal--55-400-100-100-P-300-ISO10646-1
SIZE 40 100 100
FONTBOUNDINGBOX 73 62 -25 -11
STARTPROPERTIES 19
FOUNDRY "FreeType"
FAMILY_NAME "Ruthless Sketch"
WEIGHT_NAME "Medium"
SLANT "I"
SETWIDTH_NAME "Normal"
ADD_STYLE_NAME ""
PIXEL_SIZE 55
POINT_SIZE 400
RESOLUTION_X 100
RESOLUTION_Y 100
SPACING "P"
AVERAGE_WIDTH 300
CHARSET_REGISTRY "ISO10646"
CHARSET_ENCODING "1"
FONT_ASCENT 52
FONT_DESCENT 11
COPYRIGHT "© 2024 GGBotNet. All Rights Reserved."
_OTF_FONTFILE "RuthlessSketch_Italic.ttf"
_OTF_PSNAME "RuthlessSketch-Italic"
ENDPROPERTIES
CHARS 1105
STARTCHAR 0020
ENCODING 32
SWIDTH 306 0
DWIDTH 17 0
BBX 0 0 0 0
BITMAP
ENDCHAR
STARTCHAR 0021
ENCODING 33
SWIDTH 288 0
DWIDTH 16 0
BBX 20 42 4 -1
BITMAP
01FFF0
07FFF0
07FFF0
07FFE0
07FFE0
07FFC0
0FFFC0
0FFF80
0FFF80
0FFF00
0FFF00
0FFF00
0FFE00
0FFE00
0FFE00
0FFC00
0FFC00
0FFC00
0FF800
1FF800
1FF800
1FF800
1FF000
1FF000
1FF000
1FE000
1FE000
1F8000
000000
000000
000000
030000
1FC000
3FC000
7FC000
7FC000
FFC000
FFC000
FFC000
7F8000
7F0000
1C0000
ENDCHAR
STARTCHAR 0022
ENCODING 34
SWIDTH 396 0
DWIDTH 22 0
BBX 21 20 8 20
BITMAP
3F83F8
7F87F8
7F87F8
7F8FF8
7F8FF8
FF0FF0
FF0FF0
FF0FF0
FF0FE0
FE0FE0
FE0FE0
FE0FC0
FC0FC0
FC0F80
F80F80
F80F00
F00F00
F00F00
E00E00
E00E00
ENDCHAR
STARTCHAR 0023
ENCODING 35
SWIDTH 504 0
DWIDTH 28 0
BBX 33 39 2 0
BITMAP
0000000400
0000FC0F80
0000FC0F80
0001FC1F00
0001F81F00
0003F83E00
0003F83E00
0007F07C00
0007F0FC00
0007E0F800
03FFFFFF00
07FFFFFF00
07FFFFFF00
07FFFFFE00
0FFFFFFE00
0FFFFFFE00
0FFFFFFC00
017E0FC000
007E1F8000
00FC1F8000
00FC3F0000
01FFFFF800
3FFFFFF800
3FFFFFF800
3FFFFFF800
3FFFFFF800
3FFFFFF000
3FFFFFF000
3FFFF80000
0F83F00000
1F87F00000
1F07F00000
3F0FE00000
3E0FE00000
7C0FC00000
7C1FC00000
F81F800000
F81F800000
1000000000
ENDCHAR
STARTCHAR 0024
ENCODING 36
SWIDTH 504 0
DWIDTH 28 0
BBX 33 51 1 -6
BITMAP
00001FC000
00003FC000
00003FC000
00003F8000
00003F8000
00003F8000
00007F8000
00007FF000
0001FFFC00
0007FFFE00
001FFFFF00
003FFFFF80
007FFFFF80
00FFFFFF80
00FFFFFF80
01FFFFFF00
01FFFF3F00
01FFFE1E00
01FFFC0000
01FFFC0000
01FFFC0000
01FFFC0000
01FFFC0000
00FFFF8000
00FFFFC000
003FFFC000
0007FFE000
0007FFE000
0007FFE000
000FFFE000
000FFFE000
070FFFE000
0FFFFFE000
0FFFFFE000
1FFFFFC000
1FFFFFC000
1FFFFF8000
3FFFFF0000
3FFFFF0000
7FFFFE0000
7FFFFE0000
7FFFFC0000
FFFFF80000
7FFFC00000
007F800000
007F800000
007F000000
007F000000
00FF000000
00FE000000
00FE000000
ENDCHAR
STARTCHAR 0025
ENCODING 37
SWIDTH 558 0
DWIDTH 31 0
BBX 33 39 3 0
BITMAP
0000000800
0000001F00
003E001F80
007F003F00
01FF807F00
03FF80FE00
03EFC0FC00
07C7C1FC00
0F87C3F800
0F8783F000
0F0787E000
0F078FE000
0F0F9FC000
0F9F3F8000
0FFE3F0000
0FFE7E0000
07FCFE0000
03F1FC0000
0003F80000
0003F00000
0007E3E000
000FE7F000
001FCFF800
003F9FFC00
003F3E7C00
007E7C3C00
00FE7C3C00
01FC783C00
03F8787C00
03F0F87C00
07E0F8F800
0FC07CF800
1F807FF000
3F807FE000
7F003FC000
7E000F0000
FC00000000
7800000000
1000000000
ENDCHAR
STARTCHAR 0026
ENCODING 38
SWIDTH 504 0
DWIDTH 28 0
BBX 28 37 3 1
BITMAP
000FF000
003FF800
00FFFC00
01FFFC00
01FFFC00
01FFFC00
03F8FC00
03F0FC00
03F0F800
03F1F800
03FFF000
01FFF000
01FFE000
01FFC000
01FFC3F0
03FFE3F0
07FFE7F0
0FFFF7E0
1FFFF7E0
1FE7FFC0
3FC7FFC0
3F83FF80
7F81FF80
7F81FF80
7F80FF00
7F007F80
FF00FF80
FF81FFC0
FFFFFFC0
FFFFFFC0
FFFFFFC0
7FFFFFC0
7FFFF7C0
3FFFE3C0
1FFFC180
07FF0180
00F80080
ENDCHAR
STARTCHAR 0027
ENCODING 39
SWIDTH 198 0
DWIDTH 11 0
BBX 11 21 8 20
BITMAP
0200
3FC0
7FE0
7FE0
7FE0
FFC0
FFC0
FFC0
FFC0
FF80
FF80
FF00
FF00
FE00
FE00
FC00
FC00
F800
F800
F000
F000
ENDCHAR
STARTCHAR 0028
ENCODING 40
SWIDTH 342 0
DWIDTH 19 0
BBX 24 53 4 -8
BITMAP
000060
0000F8
0001FC
0003FF
0007FE
000FF8
001FF8
001FE0
003FC0
007F00
00FF00
01FE00
03FC00
07F800
07F000
07F000
0FE000
1FC000
1FC000
3F8000
3F8000
3F8000
3F8000
3F8000
7F8000
7F0000
7F0000
7F0000
7F0000
FF0000
FE0000
FE0000
FE0000
FE0000
FE0000
FE0000
FE0000
FE0000
FE0000
7E0000
7F0000
7F0000
7F8000
3F8000
3F8000
1FC000
1FE000
0FF000
0FF800
07F800
07F000
03C000
018000
ENDCHAR
STARTCHAR 0029
ENCODING 41
SWIDTH 342 0
DWIDTH 19 0
BBX 24 53 0 -8
BITMAP
000180
000780
001FC0
003FE0
003FE0
001FF0
000FF0
0007F8
0003F8
0001F8
0001FC
0001FC
0001FC
0000FE
0000FE
00007E
00007E
00007F
00007F
00007F
0000FF
0000FE
0000FE
0000FE
0000FC
0001FC
0001FC
0001FC
0001FC
0001FC
0001FC
0001F8
0003F8
0003F8
0003F0
0007F0
0007E0
000FE0
001FC0
003FC0
007F80
007F00
00FE00
01FC00
03FC00
0FF800
1FF000
3FE000
7FC000
FF8000
7F0000
1E0000
0C0000
ENDCHAR
STARTCHAR 002A
ENCODING 42
SWIDTH 324 0
DWIDTH 18 0
BBX 18 17 7 24
BITMAP
006000
007000
08F000
1CE380
3EEFC0
1FFF00
0FFE00
07F800
03F000
07F800
1FFC00
3FFE00
FB9F00
738E00
038000
038000
070000
ENDCHAR
STARTCHAR 002B
ENCODING 43
SWIDTH 468 0
DWIDTH 26 0
BBX 27 25 4 7
BITMAP
000FF000
000FF000
000FF000
000FF000
000FE000
001FE000
001FE000
001FE000
1FDFFFE0
3FFFFFC0
3FFFFFC0
7FFFFFC0
7FFFFFC0
7FFFFFC0
7FFFFF80
FFFFFF80
187F8000
007F0000
00FF0000
00FF0000
00FF0000
00FE0000
01FE0000
01FE0000
01FE0000
ENDCHAR
STARTCHAR 002C
ENCODING 44
SWIDTH 198 0
DWIDTH 11 0
BBX 15 19 -3 -9
BITMAP
0038
01FC
03FE
03FE
07FE
07FE
07FE
07FC
03FC
03F8
03E0
07E0
1FC0
7FC0
FF80
7F00
3E00
1E00
0C00
ENDCHAR
STARTCHAR 002D
ENCODING 45
SWIDTH 378 0
DWIDTH 21 0
BBX 21 9 4 15
BITMAP
3FFFF8
3FFFF8
7FFFF8
7FFFF8
7FFFF8
7FFFF8
7FFFF0
FFFFF0
0003C0
ENDCHAR
STARTCHAR 002E
ENCODING 46
SWIDTH 198 0
DWIDTH 11 0
BBX 10 10 2 0
BITMAP
0F00
1FC0
3FC0
7FC0
FFC0
FFC0
FFC0
FF80
FF00
3E00
ENDCHAR
STARTCHAR 002F
ENCODING 47
SWIDTH 450 0
DWIDTH 25 0
BBX 32 45 1 -3
BITMAP
00000020
00000061
000000FF
000001FE
000001FE
000003FC
000007F8
000007F8
00000FF0
00001FF0
00001FE0
00003FE0
00007FC0
00007F80
0000FF80
0000FF00
0001FF00
0003FE00
0003FE00
0007FC00
000FFC00
000FF800
001FF000
003FF000
003FE000
007FE000
007FC000
00FFC000
01FF8000
01FF8000
03FF0000
03FF0000
07FE0000
0FFE0000
0FFC0000
1FFC0000
1FF80000
3FF80000
3FF00000
7FF00000
7FE00000
FFE00000
FFC00000
FF800000
FF800000
ENDCHAR
STARTCHAR 0030
ENCODING 48
SWIDTH 396 0
DWIDTH 22 0
BBX 22 39 4 0
BITMAP
000E00
003F80
00FF80
00FFC0
01FFE0
03FFE0
03FFF0
07FFF8
07FFF8
07FFFC
0FFFFC
0FFFFC
1FFBFC
1FE3FC
1FE1FC
3FC1FC
3FC1FC
3FC1FC
7F81FC
7F81F8
7F83F8
7F83F8
FF87F8
FF87F8
FFFFF0
7FFFF0
7FFFF0
7FFFE0
7FFFE0
7FFFC0
7FFFC0
3FFFC0
3FFF80
3FFF00
3FFF00
1FFE00
0FFC00
07FC00
01F000
ENDCHAR
STARTCHAR 0031
ENCODING 49
SWIDTH 414 0
DWIDTH 23 0
BBX 20 37 7 1
BITMAP
000780
001FE0
003FF0
00FFF0
03FFF0
0FFFF0
1FFFF0
7FFFE0
FFFFE0
7FBFE0
3F7FE0
3F7FE0
1E7FE0
0CFFC0
00FFC0
00FFC0
01FFC0
01FFC0
03FFC0
03FF80
03FF80
07FF80
07FF80
07FF80
0FFF80
0FFF80
0FFF80
1FFF00
1FFF00
1FFF00
3FFF00
3FFF00
3FFF00
7FFF00
7FFF00
0FFF00
000E00
ENDCHAR
STARTCHAR 0032
ENCODING 50
SWIDTH 504 0
DWIDTH 28 0
BBX 28 38 3 1
BITMAP
00010000
0007F000
001FFC00
007FFF00
00FFFF80
01FFFF80
03FFFF80
07FFFF80
0FFFFF80
07FFFF80
03F9FF80
03E07F00
01C07F00
0180FF00
0000FE00
0000FE00
0001FC00
0003FC00
0003F800
0007F800
000FF000
000FE000
001FC000
003FEFF0
003FFFF0
007FFFE0
00FFFFE0
01FFFFC0
03FFFFC0
03FFFF80
07FFFF80
0FFFFF80
1FFFFF00
7FFFFF00
FFFFFE00
FFFFF800
3FFFC000
07FC0000
ENDCHAR
STARTCHAR 0033
ENCODING 51
SWIDTH 468 0
DWIDTH 26 0
BBX 26 38 2 0
BITMAP
00018000
003FFC00
00FFFE00
00FFFE00
00FFFC00
00FFFC00
00FBF800
0003F800
0007F000
0007F000
000FE000
001FC000
003FC000
007FF800
00FFFE00
01FFFF80
01FFFF80
03FFFFC0
03FFFFC0
00FFFFC0
00007FC0
00001FC0
00001FC0
00001FC0
00001FC0
00001FC0
00001FC0
00003FC0
00007F80
6001FF80
FC0FFF00
FFFFFE00
FFFFFC00
7FFFFC00
3FFFF000
0FFFE000
03FF8000
00FE0000
ENDCHAR
STARTCHAR 0034
ENCODING 52
SWIDTH 432 0
DWIDTH 24 0
BBX 24 39 4 -1
BITMAP
0003C0
001FC0
003FC0
007F80
007F80
007F00
00FF00
00FE00
01FE00
01FC00
03FC00
03F800
07F800
07F000
0FF1FF
0FFFFF
1FFFFF
1FFFFF
3FFFFF
3FFFFF
7FFFFF
7FFFFC
FFFFE0
F01F80
003F80
003F80
007F80
007F00
00FF00
00FF00
01FF00
03FF00
03FF00
07FF00
07FF00
0FFF00
0FFF00
1FFE00
180000
ENDCHAR
STARTCHAR 0035
ENCODING 53
SWIDTH 486 0
DWIDTH 27 0
BBX 29 38 3 0
BITMAP
00001FF0
001FFFF8
001FFFF0
001FFFF0
003FFFE0
003FFF80
003FC000
007F8000
007F8000
00FF8000
00FFC000
00FFF000
01FFFC00
01FFFE00
03FFFE00
03FFFF00
07FFFF00
0607FF80
0003FF80
0001FFC0
0000FFC0
0000FFC0
0000FFC0
0000FFC0
0000FFC0
0000FFC0
0000FFC0
C000FF80
C001FF80
E003FF00
F80FFF00
FFFFFE00
FFFFFC00
FFFFF800
FFFFF000
3FFFE000
0FFFC000
01FF0000
ENDCHAR
STARTCHAR 0036
ENCODING 54
SWIDTH 486 0
DWIDTH 27 0
BBX 28 39 4 0
BITMAP
00001F80
0000FFC0
0001FFE0
0007FFF0
000FFFF0
003FFFE0
007FFFC0
00FF8000
01FE0000
03FC0000
03F80000
0FF80000
0FF00000
1FF80000
1FFFC000
3FFFF000
3FFFFC00
3FFFFE00
7FFFFE00
7FFFFF00
7FFFFF80
FFE1FF80
FFC0FF80
FFC0FF80
FF807F80
FF807F80
FF007F80
FF00FF80
FF00FF80
FF00FF00
FF01FF00
FF03FE00
FF87FE00
FFFFFC00
7FFFF800
7FFFF000
1FFFE000
0FFF8000
07FE0000
ENDCHAR
STARTCHAR 0037
ENCODING 55
SWIDTH 414 0
DWIDTH 23 0
BBX 29 37 1 1
BITMAP
00000078
007FFFF8
00FFFFF8
00FFFFF8
01FFFFF0
01FFFFF0
01FFFFF0
01FFFFE0
03FFFFE0
03FFFFE0
03801FE0
02003FE0
00007FC0
0000FFC0
0001FF80
0003FF80
0003FF00
0007FF00
000FFE00
000FFE00
001FFC00
003FFC00
007FF800
00FFF800
00FFF000
01FFF000
03FFE000
07FFE000
07FFC000
0FFFC000
1FFFC000
1FFF8000
3FFF8000
3FFF8000
7FFF0000
FF800000
E0000000
ENDCHAR
STARTCHAR 0038
ENCODING 56
SWIDTH 486 0
DWIDTH 27 0
BBX 26 39 4 0
BITMAP
0001FC00
000FFE00
003FFF00
007FFF00
00FFFF00
00FFFF00
01FFFF00
01FE3F00
01FC3F00
01FC7F00
01FEFE00
00FFFC00
00FFF800
01FFF800
03FFFC00
03FFFC00
07FFFE00
0FFFFF00
1FFFFF00
1FFFFF00
3FF3FF80
3FE0FF80
7FC0FF80
7F807FC0
FF807FC0
FF807FC0
FF807F80
FFC07F80
FFC0FF80
FFE3FF80
FFFFFF80
FFFFFF00
FFFFFE00
7FFFFC00
7FFFFC00
3FFFF800
0FFFE000
03FFC000
00FE0000
ENDCHAR
STARTCHAR 0039
ENCODING 57
SWIDTH 450 0
DWIDTH 25 0
BBX 27 37 4 0
BITMAP
007FFC00
01FFFF00
03FFFFC0
07FFFFC0
07FFFFC0
07FFFFE0
0FF07FE0
0FF03FE0
1FE03FE0
1FE03FC0
1FE03FC0
3FE03FC0
3FE07FC0
3FE0FFC0
3FF7FFC0
3FFFFFC0
3FFFFF80
1FFFFF80
0FFFFF80
07FFFF00
001FFF00
0000FF00
0000FF00
0000FE00
0000FE00
0001FE00
7003FE00
F807FC00
FFBFFC00
FFFFF800
FFFFF800
FFFFF000
FFFFF000
FFFFE000
7FFFC000
1FFF8000
00800000
ENDCHAR
STARTCHAR 003A
ENCODING 58
SWIDTH 198 0
DWIDTH 11 0
BBX 14 27 2 0
BITMAP
01F0
07F8
0FF8
0FFC
0FFC
1FFC
1FF8
0FF0
0FE0
0780
0000
0000
0000
0000
0000
0000
0000
0700
1F80
7FC0
FFC0
FFC0
FFC0
FFC0
FF80
7F80
7E00
ENDCHAR
STARTCHAR 003B
ENCODING 59
SWIDTH 198 0
DWIDTH 11 0
BBX 19 36 -3 -9
BITMAP
000FC0
001FE0
003FE0
007FE0
007FE0
00FFC0
00FFC0
007F80
003F80
001E00
000000
000000
000000
000000
000000
000000
000000
003800
01FC00
03FE00
03FE00
07FE00
07FE00
07FE00
07FC00
03FC00
03F800
03E000
07E000
1FC000
7FC000
FF8000
7F0000
3E0000
1E0000
0C0000
ENDCHAR
STARTCHAR 003C
ENCODING 60
SWIDTH 468 0
DWIDTH 26 0
BBX 27 31 5 4
BITMAP
00000060
000001E0
000007E0
00001FE0
00007FE0
0001FFE0
0007FFE0
001FFFC0
00FFFFC0
03FFFFC0
0FFFFFC0
7FFFFF80
7FFFF800
FFFF0000
FFF00000
FFC00000
FFFC0000
FFFF8000
7FFFF000
3FFFFC00
1FFFFE00
07FFFE00
03FFFE00
01FFFC00
00FFFC00
003FFC00
001FFC00
000FFC00
0003FC00
0000FC00
00003800
ENDCHAR
STARTCHAR 003D
ENCODING 61
SWIDTH 468 0
DWIDTH 26 0
BBX 29 21 3 9
BITMAP
00000300
07FFFFF8
0FFFFFF8
0FFFFFF8
0FFFFFF0
1FFFFFF0
1FFFFFF0
1FFFFFF0
07C00000
00000000
00000000
00000000
00003F80
3FFFFFC0
7FFFFFC0
7FFFFFC0
7FFFFFC0
7FFFFF80
7FFFFF80
FFFFFF80
06C00000
ENDCHAR
STARTCHAR 003E
ENCODING 62
SWIDTH 468 0
DWIDTH 26 0
BBX 28 31 2 4
BITMAP
01800000
03F00000
03FC0000
03FE0000
03FF8000
03FFC000
03FFE000
07FFF800
07FFFC00
07FFFE00
07FFFF00
07FFFF80
01FFFFE0
001FFFF0
0003FFF0
00007FF0
0000FFF0
0007FFE0
00FFFFE0
1FFFFFE0
3FFFFF80
3FFFFC00
3FFFF000
7FFFC000
7FFF0000
7FF80000
7FE00000
7F800000
7E000000
F8000000
60000000
ENDCHAR
STARTCHAR 003F
ENCODING 63
SWIDTH 450 0
DWIDTH 25 0
BBX 25 41 7 -1
BITMAP
007E0000
03FFFC00
07FFFF00
0FFFFF00
1FFFFF80
3FFFFF80
3FFFFF80
7FFFFF80
7FFFFF80
7F01FF00
7C01FF00
1801FF00
0001FF00
0003FE00
0003FE00
0007FE00
001FFC00
00FFF800
03FFF800
07FFE000
0FFFC000
0FFF0000
0FFC0000
1FF80000
1FF00000
1FF00000
1FE00000
1FE00000
00000000
00000000
00000000
07000000
1F800000
7FC00000
7FC00000
FFC00000
FFC00000
FFC00000
7F800000
3E000000
10000000
ENDCHAR
STARTCHAR 0040
ENCODING 64
SWIDTH 648 0
DWIDTH 36 0
BBX 38 48 3 -8
BITMAP
00000FFC00
00007FFF00
0003FFFFC0
000FFFFFE0
001FFFFFF0
003FFFFFF0
007FFFFFF8
00FFFFFFF8
01FFFFFFF8
01FFFFFFF8
03FFFFFFF8
07FFC01FF8
07FF000FFC
0FFE000FFC
0FFC01FFFC
0FF807FFFC
1FF01FFFFC
1FF03FFFFC
1FF07FFFFC
3FE0FF0FF8
3FE1FE07F8
3FE1FC07F8
3FE3F807F8
7FC3F807F8
7FC3F80FF0
7FC3F80FF0
7FC7F83FE0
7FC7F87FE0
7FC3FFFFC0
FFC3FFFFC0
FFC3FFFF00
FFC1FFFE00
FFC0FFF800
FFC07FE000
FFC0060000
FFC0000000
FFE0000000
FFE001F000
FFF7FFF800
FFFFFFFC00
FFFFFFFC00
7FFFFFFC00
7FFFFFF800
3FFFFFF000
3FFFFFC000
1FFFFF0000
07FFFE0000
007FF00000
ENDCHAR
STARTCHAR 0041
ENCODING 65
SWIDTH 630 0
DWIDTH 35 0
BBX 33 39 1 -1
BITMAP
0000001000
000001F000
000003F800
000003F800
000007F800
00000FF800
00000FF800
00001FF800
00001FF800
00003FF800
00003FF800
00007FF800
0000FFF800
0000FFF800
0001FFF800
0001FFFC00
0003FFFC00
0007FFFC00
0007FFFC00
000FFFFC00
001FDFFC00
001F8FFC00
003F0FFC00
007E0FFC00
007C0FFC00
00FC0FFE00
01FFFFFE00
01FFFFFE00
03FFFFFE00
07FFFFFE00
07FF9FFE00
0FFC1FFF00
1FF01FFF00
1FF01FFF00
3FE01FFF00
3FE01FFF80
7FE01FFF80
FFE00FFF80
FF000C0000
ENDCHAR
STARTCHAR 0042
ENCODING 66
SWIDTH 504 0
DWIDTH 28 0
BBX 26 38 5 0
BITMAP
01FFC000
07FFF800
0FFFFE00
1FFFFE00
1FFFFE00
1FFFFF00
1FFFFF00
1FFFFF80
1FFBFF80
1FF0FF00
1FF07F00
1FF07F00
1FF07E00
1FF0FE00
1FF0FC00
1FFBFC00
3FFFF000
3FFFE000
3FFFF800
3FFFFE00
3FFFFF00
3FFFFF00
3FFFFF80
3FF07F80
3FF07F80
7FF07FC0
7FF0FFC0
7FF1FF80
7FE3FF80
7FE7FF00
7FFFFF00
7FFFFE00
7FFFFC00
7FFFF800
7FFFF000
FFFFC000
7FF80000
0C000000
ENDCHAR
STARTCHAR 0043
ENCODING 67
SWIDTH 486 0
DWIDTH 27 0
BBX 29 37 4 0
BITMAP
00003E00
0001FFC0
000FFFE0
003FFFF0
007FFFF8
01FFFFF8
03FFFFF8
07FFFFF8
07FFFFF0
0FFFFFF0
0FFFFFE0
1FFFC000
1FFF0000
3FFC0000
3FFC0000
3FF80000
7FF80000
7FF00000
7FF00000
7FF00000
7FF80000
FFFC0F80
FFFFFF80
FFFFFF80
FFFFFF80
FFFFFF80
FFFFFF00
7FFFFF00
7FFFFF00
7FFFFF00
7FFFFF00
7FFFFE00
3FFFFC00
3FFFF800
3FFFF000
07FFC000
01FF0000
ENDCHAR
STARTCHAR 0044
ENCODING 68
SWIDTH 450 0
DWIDTH 25 0
BBX 24 38 6 0
BITMAP
07F800
1FFF00
3FFFC0
3FFFE0
3FFFF0
3FFFF8
3FFFF8
7FFFFC
7FFFFC
7FFFFE
7FF7FE
7FE1FE
7FE07F
7FC07F
FFC0FF
FFC0FF
FFC0FE
FFC1FE
FFC1FE
FFC3FC
FF87F8
FF8FF8
FFDFF0
FFFFE0
FFFFE0
FFFFC0
FFFF80
FFFF00
FFFF00
FFFE00
FFFC00
FFF800
FFF000
FFC000
FF0000
FC0000
F00000
800000
ENDCHAR
STARTCHAR 0045
ENCODING 69
SWIDTH 486 0
DWIDTH 27 0
BBX 22 39 7 0
BITMAP
00FF00
07FFFC
3FFFFC
7FFFF8
7FFFF8
3FFFF0
3FFFF0
3FFFF0
3FFFE0
3FFFE0
3FFFE0
3FFFC0
3FF000
3FE000
3FE000
3FE000
3FE7C0
3FFF80
7FFF80
7FFF80
7FFF80
7FFF80
7FC000
7FC000
7FE030
7FFFF0
7FFFF8
7FFFF8
7FFFF8
7FFFF8
7FFFF8
7FFFF8
FFFFF8
FFFFF8
FFFFF8
FFFFC0
FFFC00
FFC000
700000
ENDCHAR
STARTCHAR 0046
ENCODING 70
SWIDTH 504 0
DWIDTH 28 0
BBX 32 39 2 0
BITMAP
00000FFE
001FFFFF
00FFFFFF
03FFFFFF
03FFFFFF
03FFFFFF
03FFFFFF
03FFFFFF
03FFFFCF
07FFC000
07FF0000
07FE0000
07FE0000
0FFE0000
0FFC2000
0FFFF000
0FFFF000
0FFFF000
1FFFE000
1FFFE000
1FFFE000
1FFFE000
3FF86000
3FF00000
3FF00000
3FF00000
3FE00000
7FE00000
7FE00000
7FE00000
7FE00000
7FC00000
7FC00000
7FC00000
7FC00000
FFE00000
FFE00000
FFE00000
7C000000
ENDCHAR
STARTCHAR 0047
ENCODING 71
SWIDTH 504 0
DWIDTH 28 0
BBX 30 37 3 1
BITMAP
0000FF80
0001FFE0
0003FFF0
0007FFF8
000FFFFC
001FFFFC
003FFFFC
007FFFF8
00FFF7F0
00FF8000
01FE0000
01FC0000
03F80000
07F80000
07F00000
07F00000
0FE00FF8
0FE0FFF0
1FE0FFF0
1FC0FFF0
3FC0FFF0
3FC0FFE0
3FC0FFE0
7FC0FFE0
7FC1FFE0
7FE1FFC0
FFFFFFC0
FFFFFFC0
FFFFFFC0
FFFFFFC0
FFFFFF00
FFFFFE00
7FFFF800
7FFFE000
3FFF8000
1FFE0000
0FF00000
ENDCHAR
STARTCHAR 0048
ENCODING 72
SWIDTH 558 0
DWIDTH 31 0
BBX 37 37 1 1
BITMAP
00000C0000
0007FE0000
001FFE0FF8
003FFC1FF8
003FF81FF0
003FFC3FF0
003FFC3FF0
003FF83FF0
003FF87FE0
007FF07FE0
007FF07FE0
007FF0FFE0
007FF0FFC0
00FFF0FFC0
00FFF9FFC0
00FFFFFF80
01FFFFFF80
01FFFFFF80
01FFFFFF00
03FFFFFF00
03FFFFFF00
03FFFFFF00
07FFFFFF00
07FFFFFF00
07FFFFFF00
0FFF0FFE00
0FFF0FFE00
0FFF0FFE00
0FFF0FFC00
1FFE1FFC00
1FFE1FFC00
1FFE1FF800
3FFE3FF800
3FFC3FF800
3FFC3FF000
7FFC3FF000
FFF87C0000
ENDCHAR
STARTCHAR 0049
ENCODING 73
SWIDTH 324 0
DWIDTH 18 0
BBX 25 37 1 1
BITMAP
000FFF80
001FFF00
001FFE00
000FFE00
001FFE00
001FFC00
003FFC00
003FFC00
003FF800
007FF800
007FF800
007FF000
00FFF000
00FFF000
00FFF000
01FFE000
01FFE000
01FFE000
01FFC000
03FFC000
03FFC000
03FFC000
07FFC000
07FF8000
07FF8000
07FF8000
0FFF8000
0FFF8000
0FFF8000
0FFF0000
1FFE0000
1FFE0000
1FFE0000
3FFE0000
3FFC0000
7FF00000
FC000000
ENDCHAR
STARTCHAR 004A
ENCODING 74
SWIDTH 450 0
DWIDTH 25 0
BBX 28 38 3 0
BITMAP
00000030
00007FF0
0000FFF0
0000FFF0
0001FFF0
0001FFF0
0003FFF0
0003FFF0
0003FFE0
0007FFE0
0007FFE0
0007FFE0
0007FFE0
000FFFE0
000FFFE0
000FFFC0
000FFFC0
000FFFC0
000FFFC0
000FFFC0
000FFF80
000FFF80
000FFF80
000FFF80
000FFF00
030FFF00
7F8FFE00
FF8FFE00
FFCFFE00
FFDFFC00
FFDFF800
FFFFF800
FFFFF000
7FFFE000
7FFFC000
3FFF0000
1FFE0000
03FC0000
ENDCHAR
STARTCHAR 004B
ENCODING 75
SWIDTH 540 0
DWIDTH 30 0
BBX 36 39 1 0
BITMAP
0000000100
0000860700
00FFFE0F00
007FFE1F80
00FFFC3FF0
00FFFC7FF0
00FFF8FFE0
01FFF8FFC0
01FFF9FF80
01FFFBFF00
01FFFBFE00
03FFFFFC00
03FFFFF800
03FFFFF000
03FFFFE000
07FFFFE000
07FFFFC000
07FFFF8000
07FFFF0000
0FFFFF0000
0FFFFC0000
0FFFFC0000
1FFFFE0000
1FFFFF0000
1FFFFF8000
1FFFFF8000
1FFFFFC000
3FFFFFE000
3FFFFFE000
3FFFBFF000
3FFF3FF000
3FFF1FF000
7FFE1FF800
7FFE0FF800
7FFE0FF800
7FFF0FF800
7FFE07CC00
FFFC070000
0070060000
ENDCHAR
STARTCHAR 004C
ENCODING 76
SWIDTH 504 0
DWIDTH 28 0
BBX 28 39 1 -1
BITMAP
00003FC0
0003FFE0
0007FFE0
000FFFC0
000FFFC0
001FFFC0
001FFF80
001FFF80
003FFF00
003FFF00
003FFF00
007FFE00
007FFE00
007FFE00
007FFC00
00FFFC00
00FFF800
00FFF800
01FFF800
01FFF000
03FFF000
03FFF000
03FFE000
07FFE000
07FFC000
07FFC000
0FFFC1E0
0FFFFFF0
0FFFFFF0
1FFFFFE0
1FFFFFE0
1FFFFFE0
1FFFFFE0
3FFFFFE0
3FFFFFE0
3FFFFFE0
3FFFFC00
7FE00000
E0000000
ENDCHAR
STARTCHAR 004D
ENCODING 77
SWIDTH 648 0
DWIDTH 36 0
BBX 37 38 1 0
BITMAP
0007000000
0007000038
000F8000F8
000F8000F8
000F8001F8
000FC003F8
001FC003F8
001FE007F8
003FE00FF8
003FF01FF8
003FF01FF8
007FF03FF8
007FF87FF8
00FFF8FFF8
00FFFDFFF8
00FFFFFFF8
00FFFFFFF0
01FFFFFFF0
01FFFFFFF0
03FFFFFFF0
03FFFFFFF0
03FFFFFFF0
07FFDFFFF0
07FF8EFFF0
07FF0CFFE0
0FFF00FFE0
0FFE01FFE0
0FFC01FFE0
1FFC01FFE0
1FF803FFE0
3FF803FFE0
3FF003FFE0
3FF003FFE0
7FE007FFE0
7FE007FFE0
7FC007FFE0
FFC007FE00
FB80000000
ENDCHAR
STARTCHAR 004E
ENCODING 78
SWIDTH 558 0
DWIDTH 31 0
BBX 37 37 1 0
BITMAP
0007E003F0
001FFC0FF8
001FFC3FF8
003FFC3FF8
003FFC3FF0
003FF87FF0
007FF87FF0
007FF87FE0
00FFF87FE0
00FFF8FFE0
00FFF8FFC0
01FFF8FFC0
01FFF8FFC0
01FFF9FF80
03FFF9FF80
03FFF9FF80
03FFFDFF00
07FFFDFF00
07FFFFFF00
07FFFFFF00
07FFFFFE00
0FFEFFFE00
0FFEFFFE00
0FFEFFFC00
0FFCFFFC00
1FFCFFFC00
1FFCFFFC00
1FFC7FF800
3FF87FF800
3FF87FF800
3FF87FF800
3FF87FF000
7FF07FF000
7FF07FF000
7FF07FF000
FFC07FC000
7000000000
ENDCHAR
STARTCHAR 004F
ENCODING 79
SWIDTH 522 0
DWIDTH 29 0
BBX 29 39 4 0
BITMAP
00038000
0007E000
000FF800
001FFC00
003FFF00
007FFF80
00FFFFC0
00FFFFC0
01FFFFE0
03FFFFE0
03FFFFF0
07FFFFF0
0FFFFFF0
0FFFFFF0
1FFFFFF8
1FFC3FF8
3FF81FF8
3FF01FF8
7FF01FF8
7FE03FF8
7FE03FF8
7FE03FF8
7FE07FF8
7FF0FFF0
FFF9FFF0
FFFFFFE0
FFFFFFE0
7FFFFFE0
7FFFFFC0
7FFFFFC0
7FFFFF80
7FFFFF80
7FFFFF00
3FFFFF00
3FFFFE00
1FFFFC00
0FFFF800
07FFE000
00FF8000
ENDCHAR
STARTCHAR 0050
ENCODING 80
SWIDTH 486 0
DWIDTH 27 0
BBX 31 38 1 0
BITMAP
0001FE00
003FFFC0
007FFFF0
007FFFF8
007FFFF8
007FFFFC
00FFFFFC
00FFFFFC
00FFDFFE
00FF81FE
01FF80FE
01FF80FE
01FF81FE
01FF81FE
03FF83FC
03FF83FC
03FF8FFC
07FFFFFC
07FFFFF8
07FFFFF0
07FFFFE0
0FFFFFC0
0FFFFF00
0FFF8000
1FFF8000
1FFF0000
1FFF0000
3FFF0000
3FFF0000
3FFF0000
3FFE0000
7FFE0000
7FFE0000
7FFE0000
7FFE0000
FFFE0000
FFFE0000
FFFE0000
ENDCHAR
STARTCHAR 0051
ENCODING 81
SWIDTH 612 0
DWIDTH 34 0
BBX 30 41 4 -2
BITMAP
00002000
000FFC00
001FFE00
007FFF00
007FFF80
00FFFFC0
01FFFFE0
03FFFFE0
03FFFFF0
07FFFFF8
07FFFFF8
0FFC3FF8
0FF81FF8
1FF81FF8
1FF00FF8
1FF00FF8
3FF00FF8
3FF00FF8
3FF00FF8
7FE00FF8
7FE01FF0
7FF01FF0
FFF83FF0
FFFFFFE0
FFFFFFE0
FFFFFFE0
FFFFFFC0
FFFFFFC0
FFFFFF80
FFFFFF00
FFFFFF80
7FFFFF80
7FFFFFC0
3FFFFFE0
1FFFFFE0
0FFFFFF0
07FFFFF8
01FDFFF8
0000FFFC
0000FFF8
00007F00
ENDCHAR
STARTCHAR 0052
ENCODING 82
SWIDTH 576 0
DWIDTH 32 0
BBX 29 39 4 -1
BITMAP
0007F800
00FFFE00
03FFFF80
0FFFFFE0
0FFFFFF0
0FFFFFF0
0FFF8FF8
0FFF03F8
1FFF01F8
1FFF01F8
1FFF01F8
1FFF03F8
1FFF03F0
1FFF07F0
1FFF0FF0
1FFFBFE0
3FFFFFE0
3FFFFFC0
3FFFFF80
3FFFFC00
3FFFFC00
3FFFFC00
3FFFFE00
7FFFFE00
7FFFFF00
7FFDFF00
7FFCFF00
7FFCFF80
FFFCFF80
FFFC7FC0
FFFC7FC0
FFFC7FC0
FFFC3FE0
FFF83FE0
FFF83FE0
FFF83FF0
FFF83FF0
FFF81F80
7FC00000
ENDCHAR
STARTCHAR 0053
ENCODING 83
SWIDTH 504 0
DWIDTH 28 0
BBX 33 39 2 -1
BITMAP
0000FFFE00
0007FFFF80
000FFFFF00
001FFFFF00
003FFFFE00
003FFFFC00
007FFFFC00
007FFFF800
00FFFFF000
01FFFFF000
01FFFFE000
03FFFFC000
03FFFFC000
03FFFF8000
03FE038000
03FE000000
03FF800000
03FFE00000
01FFF80000
01FFFF0000
01FFFF8000
007FFFC000
0007FFC000
0001FFC000
00007FC000
00007FC000
0800FFC000
3C01FFC000
7F7FFFC000
7FFFFFC000
FFFFFF8000
FFFFFF8000
FFFFFF0000
FFFFFF0000
7FFFFC0000
3FFFF00000
1FFFC00000
07FF000000
0020000000
ENDCHAR
STARTCHAR 0054
ENCODING 84
SWIDTH 576 0
DWIDTH 32 0
BBX 31 38 7 0
BITMAP
00000040
1FFFFFF8
3FFFFFFC
3FFFFFFC
3FFFFFFE
7FFFFFFE
7FFFFFFE
7FFFFFFC
FFFFFFFC
FFFFFFFC
FFFFFFFC
FFFFFE00
FE1FF800
E01FF000
003FE000
003FE000
003FC000
003FC000
007FC000
007FC000
007F8000
007F8000
00FF8000
00FF8000
00FF0000
00FF0000
00FF0000
01FF0000
01FE0000
01FE0000
01FE0000
03FE0000
03FE0000
03FC0000
03FC0000
03FC0000
03FC0000
03F80000
ENDCHAR
STARTCHAR 0055
ENCODING 85
SWIDTH 540 0
DWIDTH 30 0
BBX 33 37 4 1
BITMAP
0078004000
00FF80FF80
00FF00FF80
01FF00FF80
01FE00FF80
03FE00FF00
03FC00FF00
07FC01FF00
07FC01FE00
0FF801FE00
0FF803FE00
0FF803FE00
1FF803FE00
1FF007FC00
3FF007FC00
3FF007FC00
3FF00FFC00
7FF00FFC00
7FF01FFC00
7FF01FFC00
7FF81FF800
7FFE3FF800
7FFFFFF000
FFFFFFE000
FFFFFFE000
FFFFFFC000
FFFFFFC000
FFFFFF8000
7FFFFF8000
7FFFFF0000
7FFFFE0000
3FFFFC0000
3FFFF80000
3FFFF00000
1FFFE00000
07FFC00000
01FF000000
ENDCHAR
STARTCHAR 0056
ENCODING 86
SWIDTH 594 0
DWIDTH 33 0
BBX 32 36 8 1
BITMAP
0000007E
FC0007FF
FFC00FFF
7FF80FFE
3FFC0FFE
3FFE1FFE
3FFE1FFC
3FFC1FFC
3FFC3FF8
3FFC3FF8
3FFC3FF0
3FFC3FF0
1FFC7FE0
1FFC7FE0
1FFC7FE0
1FFCFFC0
0FFCFFC0
0FFDFF80
0FFFFF80
07FFFF00
07FFFF00
07FFFE00
03FFFE00
03FFFC00
01FFFC00
01FFFC00
01FFF800
00FFF800
00FFF000
007FF000
007FF000
003FE000
003FE000
001FE000
001FC000
000E0000
ENDCHAR
STARTCHAR 0057
ENCODING 87
SWIDTH 720 0
DWIDTH 40 0
BBX 39 39 8 0
BITMAP
0000000100
0000000184
7FC00003FE
7FE01C07FE
FFE03C07FC
FFE03C0FFC
FFE03C0FF8
FFE07C1FF8
FFF07C3FF0
FFF07C3FF0
FFF0FC7FE0
FFF0FC7FE0
FFF0FEFFC0
FFF9FEFFC0
FFF9FFFFC0
7FFBFFFFC0
7FFFFFFF80
7FFFFFFF80
7FFFFFFF00
3FFFFFFF00
3FFFFFFE00
3FFFFFFE00
3FFFFFFE00
1FFFFFFC00
1FFFBFFC00
1FFF3FF800
1FFF3FF800
0FFE3FF800
0FFE3FF800
0FFC3FF000
07F83FF000
07F83FE000
07F03FE000
07F03FE000
03E01FC000
03E01FC000
01C01E0000
01C0000000
0080000000
ENDCHAR
STARTCHAR 0058
ENCODING 88
SWIDTH 576 0
DWIDTH 32 0
BBX 36 37 3 1
BITMAP
0000000E00
0004001FF0
01FF003FF0
03FE007FF0
07FF00FFE0
07FF00FFC0
07FF81FF80
07FF83FF80
07FF83FF00
07FFC7FE00
07FFC7FE00
03FFCFFC00
03FFDFFC00
01FFFFF800
00FFFFF000
00FFFFF000
007FFFE000
007FFFC000
003FFF8000
003FFF8000
003FFF0000
003FFF0000
007FFF0000
00FFFF0000
00FFFF0000
01FFFF8000
03FFFF8000
07FFFF8000
07FCFF8000
0FFCFF8000
1FFC7F8000
1FF87FC000
3FF83FC000
3FF03FC000
7FF01F8000
7FE0080000
FFE0000000
ENDCHAR
STARTCHAR 0059
ENCODING 89
SWIDTH 612 0
DWIDTH 34 0
BBX 33 38 8 0
BITMAP
0000007F80
008001FF80
07C001FF00
7FC003FE00
FFE003FE00
FFE007FC00
FFE00FF800
7FE00FF800
7FF01FF000
7FF03FE000
3FF07FC000
3FF07FC000
3FF8FF8000
3FF9FF0000
1FFBFF0000
1FFBFE0000
1FFFFC0000
0FFFFC0000
0FFFF80000
0FFFF00000
0FFFF00000
07FFE00000
07FFC00000
07FFC00000
03FF800000
03FF000000
03FF000000
01FF000000
01FE000000
01FE000000
03FE000000
03FE000000
03FE000000
03FE000000
03FE000000
07FE000000
07FC000000
07F0000000
ENDCHAR
STARTCHAR 005A
ENCODING 90
SWIDTH 594 0
DWIDTH 33 0
BBX 29 38 7 0
BITMAP
000FFF80
00FFFFF8
07FFFFF0
1FFFFFE0
3FFFFFC0
3FFFFF80
7FFFFF00
7FFFFE00
FFFFFE00
FFF7FC00
8007F800
000FF000
000FF000
001FE000
003FE000
003FC000
007FC000
007F8000
00FF8000
00FF0000
01FF0000
03FE0000
03FE0000
07FC0000
07FC0000
0FF80000
0FF00000
1FE038E0
1FFFFFF0
3FFFFFE0
7FFFFFE0
7FFFFFE0
FFFFFFC0
FFFFFF80
FFFFFF00
03FFFC00
00FFF000
00070000
ENDCHAR
STARTCHAR 005B
ENCODING 91
SWIDTH 342 0
DWIDTH 19 0
BBX 29 53 -1 -8
BITMAP
00001FF8
001FFFF8
001FFFF8
001FFFF8
001FFFF0
001FFFF0
003FFFF0
003FFF00
003FC000
003FC000
003FC000
003F8000
007F8000
007F8000
007F8000
00FF8000
00FF0000
00FF0000
00FF0000
00FF0000
01FF0000
01FE0000
01FE0000
01FE0000
03FE0000
03FE0000
03FC0000
03FC0000
03FC0000
07FC0000
07F80000
07F80000
07F80000
07F80000
0FF80000
0FF80000
0FF00000
0FF00000
0FF00000
1FF00000
1FE00000
1FE00000
3FE00000
3FE00000
3FC00000
3FFFE000
3FFFE000
7FFFE000
7FFFE000
7FFFE000
7FFFE000
7FFFC000
FFFF0000
ENDCHAR
STARTCHAR 005C
ENCODING 92
SWIDTH 450 0
DWIDTH 25 0
BBX 15 45 9 -3
BITMAP
4040
7FC0
FFC0
FFE0
FFE0
FFE0
FFE0
FFE0
FFE0
7FE0
7FE0
7FE0
7FE0
7FF0
7FF0
7FF0
3FF0
3FF0
3FF0
3FF0
3FF0
1FF0
1FF0
1FF0
1FF8
1FF8
0FF8
0FF8
0FF8
0FF8
0FF8
07F8
07FC
07FC
07FC
03FC
03FC
03FC
03FC
03FE
01FE
01FE
01FE
00F6
00C0
ENDCHAR
STARTCHAR 005D
ENCODING 93
SWIDTH 342 0
DWIDTH 19 0
BBX 28 53 0 -8
BITMAP
00077FF0
003FFFF0
003FFFF0
003FFFF0
003FFFE0
007FFFE0
007FFFE0
007FFFE0
00003FC0
00003FC0
00003FC0
00007FC0
00007FC0
00007F80
00007F80
0000FF80
0000FF80
0000FF00
0000FF00
0000FF00
0000FF00
0001FF00
0001FE00
0001FE00
0001FE00
0003FE00
0003FE00
0003FC00
0003FC00
0007FC00
0007FC00
0007F800
0007F800
0007F800
0007F800
000FF800
000FF000
000FF000
000FF000
001FF000
001FE000
001FE000
001FE000
001FE000
001FE000
03FFC000
7FFFC000
FFFFC000
FFFFC000
FFFFC000
FFFF8000
FFFF8000
FF800000
ENDCHAR
STARTCHAR 005E
ENCODING 94
SWIDTH 486 0
DWIDTH 27 0
BBX 26 22 5 18
BITMAP
0001F800
0003F800
0007F800
000FF800
000FFC00
001FFC00
003FFC00
007FFC00
00FFFC00
01FEFE00
01FEFE00
03FCFE00
07FCFF00
0FF8FF00
1FF8FF00
1FF0FF00
3FF0FF80
3FE0FF80
7FE0FF80
7FC0FF80
FFC0FFC0
FF80FF80
ENDCHAR
STARTCHAR 005F
ENCODING 95
SWIDTH 378 0
DWIDTH 21 0
BBX 21 7 0 -7
BITMAP
7FFFF8
7FFFF0
FFFFF0
FFFFF0
FFFFF0
FFFFE0
FFFFE0
ENDCHAR
STARTCHAR 0060
ENCODING 96
SWIDTH 234 0
DWIDTH 13 0
BBX 10 9 11 39
BITMAP
FE00
FF00
7F00
7F80
3F80
1F80
1FC0
0FC0
0400
ENDCHAR
STARTCHAR 0061
ENCODING 97
SWIDTH 630 0
DWIDTH 35 0
BBX 33 39 1 -1
BITMAP
0000001000
000001F000
000003F800
000003F800
000007F800
00000FF800
00000FF800
00001FF800
00001FF800
00003FF800
00003FF800
00007FF800
0000FFF800
0000FFF800
0001FFF800
0001FFFC00
0003FFFC00
0007FFFC00
0007FFFC00
000FFFFC00
001FDFFC00
001F8FFC00
003F0FFC00
007E0FFC00
007C0FFC00
00FC0FFE00
01FFFFFE00
01FFFFFE00
03FFFFFE00
07FFFFFE00
07FF9FFE00
0FFC1FFF00
1FF01FFF00
1FF01FFF00
3FE01FFF00
3FE01FFF80
7FE01FFF80
FFE00FFF80
FF000C0000
ENDCHAR
STARTCHAR 0062
ENCODING 98
SWIDTH 504 0
DWIDTH 28 0
BBX 26 38 5 0
BITMAP
01FFC000
07FFF800
0FFFFE00
1FFFFE00
1FFFFE00
1FFFFF00
1FFFFF00
1FFFFF80
1FFBFF80
1FF0FF00
1FF07F00
1FF07F00
1FF07E00
1FF0FE00
1FF0FC00
1FFBFC00
3FFFF000
3FFFE000
3FFFF800
3FFFFE00
3FFFFF00
3FFFFF00
3FFFFF80
3FF07F80
3FF07F80
7FF07FC0
7FF0FFC0
7FF1FF80
7FE3FF80
7FE7FF00
7FFFFF00
7FFFFE00
7FFFFC00
7FFFF800
7FFFF000
FFFFC000
7FF80000
0C000000
ENDCHAR
STARTCHAR 0063
ENCODING 99
SWIDTH 486 0
DWIDTH 27 0
BBX 29 37 4 0
BITMAP
00003E00
0001FFC0
000FFFE0
003FFFF0
007FFFF8
01FFFFF8
03FFFFF8
07FFFFF8
07FFFFF0
0FFFFFF0
0FFFFFE0
1FFFC000
1FFF0000
3FFC0000
3FFC0000
3FF80000
7FF80000
7FF00000
7FF00000
7FF00000
7FF80000
FFFC0F80
FFFFFF80
FFFFFF80
FFFFFF80
FFFFFF80
FFFFFF00
7FFFFF00
7FFFFF00
7FFFFF00
7FFFFF00
7FFFFE00
3FFFFC00
3FFFF800
3FFFF000
07FFC000
01FF0000
ENDCHAR
STARTCHAR 0064
ENCODING 100
SWIDTH 450 0
DWIDTH 25 0
BBX 24 38 6 0
BITMAP
07F800
1FFF00
3FFFC0
3FFFE0
3FFFF0
3FFFF8
3FFFF8
7FFFFC
7FFFFC
7FFFFE
7FF7FE
7FE1FE
7FE07F
7FC07F
FFC0FF
FFC0FF
FFC0FE
FFC1FE
FFC1FE
FFC3FC
FF87F8
FF8FF8
FFDFF0
FFFFE0
FFFFE0
FFFFC0
FFFF80
FFFF00
FFFF00
FFFE00
FFFC00
FFF800
FFF000
FFC000
FF0000
FC0000
F00000
800000
ENDCHAR
STARTCHAR 0065
ENCODING 101
SWIDTH 486 0
DWIDTH 27 0
BBX 22 39 7 0
BITMAP
00FF00
07FFFC
3FFFFC
7FFFF8
7FFFF8
3FFFF0
3FFFF0
3FFFF0
3FFFE0
3FFFE0
3FFFE0
3FFFC0
3FF000
3FE000
3FE000
3FE000
3FE7C0
3FFF80
7FFF80
7FFF80
7FFF80
7FFF80
7FC000
7FC000
7FE030
7FFFF0
7FFFF8
7FFFF8
7FFFF8
7FFFF8
7FFFF8
7FFFF8
FFFFF8
FFFFF8
FFFFF8
FFFFC0
FFFC00
FFC000
700000
ENDCHAR
STARTCHAR 0066
ENCODING 102
SWIDTH 504 0
DWIDTH 28 0
BBX 32 39 2 0
BITMAP
00000FFE
001FFFFF
00FFFFFF
03FFFFFF
03FFFFFF
03FFFFFF
03FFFFFF
03FFFFFF
03FFFFCF
07FFC000
07FF0000
07FE0000
07FE0000
0FFE0000
0FFC2000
0FFFF000
0FFFF000
0FFFF000
1FFFE000
1FFFE000
1FFFE000
1FFFE000
3FF86000
3FF00000
3FF00000
3FF00000
3FE00000
7FE00000
7FE00000
7FE00000
7FE00000
7FC00000
7FC00000
7FC00000
7FC00000
FFE00000
FFE00000
FFE00000
7C000000
ENDCHAR
STARTCHAR 0067
ENCODING 103
SWIDTH 504 0
DWIDTH 28 0
BBX 30 37 3 1
BITMAP
0000FF80
0001FFE0
0003FFF0
0007FFF8
000FFFFC
001FFFFC
003FFFFC
007FFFF8
00FFF7F0
00FF8000
01FE0000
01FC0000
03F80000
07F80000
07F00000
07F00000
0FE00FF8
0FE0FFF0
1FE0FFF0
1FC0FFF0
3FC0FFF0
3FC0FFE0
3FC0FFE0
7FC0FFE0
7FC1FFE0
7FE1FFC0
FFFFFFC0
FFFFFFC0
FFFFFFC0
FFFFFFC0
FFFFFF00
FFFFFE00
7FFFF800
7FFFE000
3FFF8000
1FFE0000
0FF00000
ENDCHAR
STARTCHAR 0068
ENCODING 104
SWIDTH 558 0
DWIDTH 31 0
BBX 37 37 1 1
BITMAP
00000C0000
0007FE0000
001FFE0FF8
003FFC1FF8
003FF81FF0
003FFC3FF0
003FFC3FF0
003FF83FF0
003FF87FE0
007FF07FE0
007FF07FE0
007FF0FFE0
007FF0FFC0
00FFF0FFC0
00FFF9FFC0
00FFFFFF80
01FFFFFF80
01FFFFFF80
01FFFFFF00
03FFFFFF00
03FFFFFF00
03FFFFFF00
07FFFFFF00
07FFFFFF00
07FFFFFF00
0FFF0FFE00
0FFF0FFE00
0FFF0FFE00
0FFF0FFC00
1FFE1FFC00
1FFE1FFC00
1FFE1FF800
3FFE3FF800
3FFC3FF800
3FFC3FF000
7FFC3FF000
FFF87C0000
ENDCHAR
STARTCHAR 0069
ENCODING 105
SWIDTH 324 0
DWIDTH 18 0
BBX 25 37 1 1
BITMAP
000FFF80
001FFF00
001FFE00
000FFE00
001FFE00
001FFC00
003FFC00
003FFC00
003FF800
007FF800
007FF800
007FF000
00FFF000
00FFF000
00FFF000
01FFE000
01FFE000
01FFE000
01FFC000
03FFC000
03FFC000
03FFC000
07FFC000
07FF8000
07FF8000
07FF8000
0FFF8000
0FFF8000
0FFF8000
0FFF0000
1FFE0000
1FFE0000
1FFE0000
3FFE0000
3FFC0000
7FF00000
FC000000
ENDCHAR
STARTCHAR 006A
ENCODING 106
SWIDTH 450 0
DWIDTH 25 0
BBX 28 38 3 0
BITMAP
00000030
00007FF0
0000FFF0
0000FFF0
0001FFF0
0001FFF0
0003FFF0
0003FFF0
0003FFE0
0007FFE0
0007FFE0
0007FFE0
0007FFE0
000FFFE0
000FFFE0
000FFFC0
000FFFC0
000FFFC0
000FFFC0
000FFFC0
000FFF80
000FFF80
000FFF80
000FFF80
000FFF00
030FFF00
7F8FFE00
FF8FFE00
FFCFFE00
FFDFFC00
FFDFF800
FFFFF800
FFFFF000
7FFFE000
7FFFC000
3FFF0000
1FFE0000
03FC0000
ENDCHAR
STARTCHAR 006B
ENCODING 107
SWIDTH 540 0
DWIDTH 30 0
BBX 36 39 1 0
BITMAP
0000000100
0000860700
00FFFE0F00
007FFE1F80
00FFFC3FF0
00FFFC7FF0
00FFF8FFE0
01FFF8FFC0
01FFF9FF80
01FFFBFF00
01FFFBFE00
03FFFFFC00
03FFFFF800
03FFFFF000
03FFFFE000
07FFFFE000
07FFFFC000
07FFFF8000
07FFFF0000
0FFFFF0000
0FFFFC0000
0FFFFC0000
1FFFFE0000
1FFFFF0000
1FFFFF8000
1FFFFF8000
1FFFFFC000
3FFFFFE000
3FFFFFE000
3FFFBFF000
3FFF3FF000
3FFF1FF000
7FFE1FF800
7FFE0FF800
7FFE0FF800
7FFF0FF800
7FFE07CC00
FFFC070000
0070060000
ENDCHAR
STARTCHAR 006C
ENCODING 108
SWIDTH 504 0
DWIDTH 28 0
BBX 28 39 1 -1
BITMAP
00003FC0
0003FFE0
0007FFE0
000FFFC0
000FFFC0
001FFFC0
001FFF80
001FFF80
003FFF00
003FFF00
003FFF00
007FFE00
007FFE00
007FFE00
007FFC00
00FFFC00
00FFF800
00FFF800
01FFF800
01FFF000
03FFF000
03FFF000
03FFE000
07FFE000
07FFC000
07FFC000
0FFFC1E0
0FFFFFF0
0FFFFFF0
1FFFFFE0
1FFFFFE0
1FFFFFE0
1FFFFFE0
3FFFFFE0
3FFFFFE0
3FFFFFE0
3FFFFC00
7FE00000
E0000000
ENDCHAR
STARTCHAR 006D
ENCODING 109
SWIDTH 648 0
DWIDTH 36 0
BBX 37 38 1 0
BITMAP
0007000000
0007000038
000F8000F8
000F8000F8
000F8001F8
000FC003F8
001FC003F8
001FE007F8
003FE00FF8
003FF01FF8
003FF01FF8
007FF03FF8
007FF87FF8
00FFF8FFF8
00FFFDFFF8
00FFFFFFF8
00FFFFFFF0
01FFFFFFF0
01FFFFFFF0
03FFFFFFF0
03FFFFFFF0
03FFFFFFF0
07FFDFFFF0
07FF8EFFF0
07FF0CFFE0
0FFF00FFE0
0FFE01FFE0
0FFC01FFE0
1FFC01FFE0
1FF803FFE0
3FF803FFE0
3FF003FFE0
3FF003FFE0
7FE007FFE0
7FE007FFE0
7FC007FFE0
FFC007FE00
FB80000000
ENDCHAR
STARTCHAR 006E
ENCODING 110
SWIDTH 558 0
DWIDTH 31 0
BBX 37 37 1 0
BITMAP
0007E003F0
001FFC0FF8
001FFC3FF8
003FFC3FF8
003FFC3FF0
003FF87FF0
007FF87FF0
007FF87FE0
00FFF87FE0
00FFF8FFE0
00FFF8FFC0
01FFF8FFC0
01FFF8FFC0
01FFF9FF80
03FFF9FF80
03FFF9FF80
03FFFDFF00
07FFFDFF00
07FFFFFF00
07FFFFFF00
07FFFFFE00
0FFEFFFE00
0FFEFFFE00
0FFEFFFC00
0FFCFFFC00
1FFCFFFC00
1FFCFFFC00
1FFC7FF800
3FF87FF800
3FF87FF800
3FF87FF800
3FF87FF000
7FF07FF000
7FF07FF000
7FF07FF000
FFC07FC000
7000000000
ENDCHAR
STARTCHAR 006F
ENCODING 111
SWIDTH 522 0
DWIDTH 29 0
BBX 29 39 4 0
BITMAP
00038000
0007E000
000FF800
001FFC00
003FFF00
007FFF80
00FFFFC0
00FFFFC0
01FFFFE0
03FFFFE0
03FFFFF0
07FFFFF0
0FFFFFF0
0FFFFFF0
1FFFFFF8
1FFC3FF8
3FF81FF8
3FF01FF8
7FF01FF8
7FE03FF8
7FE03FF8
7FE03FF8
7FE07FF8
7FF0FFF0
FFF9FFF0
FFFFFFE0
FFFFFFE0
7FFFFFE0
7FFFFFC0
7FFFFFC0
7FFFFF80
7FFFFF80
7FFFFF00
3FFFFF00
3FFFFE00
1FFFFC00
0FFFF800
07FFE000
00FF8000
ENDCHAR
STARTCHAR 0070
ENCODING 112
SWIDTH 486 0
DWIDTH 27 0
BBX 31 38 1 0
BITMAP
0001FE00
003FFFC0
007FFFF0
007FFFF8
007FFFF8
007FFFFC
00FFFFFC
00FFFFFC
00FFDFFE
00FF81FE
01FF80FE
01FF80FE
01FF81FE
01FF81FE
03FF83FC
03FF83FC
03FF8FFC
07FFFFFC
07FFFFF8
07FFFFF0
07FFFFE0
0FFFFFC0
0FFFFF00
0FFF8000
1FFF8000
1FFF0000
1FFF0000
3FFF0000
3FFF0000
3FFF0000
3FFE0000
7FFE0000
7FFE0000
7FFE0000
7FFE0000
FFFE0000
FFFE0000
FFFE0000
ENDCHAR
STARTCHAR 0071
ENCODING 113
SWIDTH 612 0
DWIDTH 34 0
BBX 30 41 4 -2
BITMAP
00002000
000FFC00
001FFE00
007FFF00
007FFF80
00FFFFC0
01FFFFE0
03FFFFE0
03FFFFF0
07FFFFF8
07FFFFF8
0FFC3FF8
0FF81FF8
1FF81FF8
1FF00FF8
1FF00FF8
3FF00FF8
3FF00FF8
3FF00FF8
7FE00FF8
7FE01FF0
7FF01FF0
FFF83FF0
FFFFFFE0
FFFFFFE0
FFFFFFE0
FFFFFFC0
FFFFFFC0
FFFFFF80
FFFFFF00
FFFFFF80
7FFFFF80
7FFFFFC0
3FFFFFE0
1FFFFFE0
0FFFFFF0
07FFFFF8
01FDFFF8
0000FFFC
0000FFF8
00007F00
ENDCHAR
STARTCHAR 0072
ENCODING 114
SWIDTH 576 0
DWIDTH 32 0
BBX 29 39 4 -1
BITMAP
0007F800
00FFFE00
03FFFF80
0FFFFFE0
0FFFFFF0
0FFFFFF0
0FFF8FF8
0FFF03F8
1FFF01F8
1FFF01F8
1FFF01F8
1FFF03F8
1FFF03F0
1FFF07F0
1FFF0FF0
1FFFBFE0
3FFFFFE0
3FFFFFC0
3FFFFF80
3FFFFC00
3FFFFC00
3FFFFC00
3FFFFE00
7FFFFE00
7FFFFF00
7FFDFF00
7FFCFF00
7FFCFF80
FFFCFF80
FFFC7FC0
FFFC7FC0
FFFC7FC0
FFFC3FE0
FFF83FE0
FFF83FE0
FFF83FF0
FFF83FF0
FFF81F80
7FC00000
ENDCHAR
STARTCHAR 0073
ENCODING 115
SWIDTH 504 0
DWIDTH 28 0
BBX 33 39 2 -1
BITMAP
0000FFFE00
0007FFFF80
000FFFFF00
001FFFFF00
003FFFFE00
003FFFFC00
007FFFFC00
007FFFF800
00FFFFF000
01FFFFF000
01FFFFE000
03FFFFC000
03FFFFC000
03FFFF8000
03FE038000
03FE000000
03FF800000
03FFE00000
01FFF80000
01FFFF0000
01FFFF8000
007FFFC000
0007FFC000
0001FFC000
00007FC000
00007FC000
0800FFC000
3C01FFC000
7F7FFFC000
7FFFFFC000
FFFFFF8000
FFFFFF8000
FFFFFF0000
FFFFFF0000
7FFFFC0000
3FFFF00000
1FFFC00000
07FF000000
0020000000
ENDCHAR
STARTCHAR 0074
ENCODING 116
SWIDTH 576 0
DWIDTH 32 0
BBX 31 38 7 0
BITMAP
00000040
1FFFFFF8
3FFFFFFC
3FFFFFFC
3FFFFFFE
7FFFFFFE
7FFFFFFE
7FFFFFFC
FFFFFFFC
FFFFFFFC
FFFFFFFC
FFFFFE00
FE1FF800
E01FF000
003FE000
003FE000
003FC000
003FC000
007FC000
007FC000
007F8000
007F8000
00FF8000
00FF8000
00FF0000
00FF0000
00FF0000
01FF0000
01FE0000
01FE0000
01FE0000
03FE0000
03FE0000
03FC0000
03FC0000
03FC0000
03FC0000
03F80000
ENDCHAR
STARTCHAR 0075
ENCODING 117
SWIDTH 540 0
DWIDTH 30 0
BBX 33 37 4 1
BITMAP
0078004000
00FF80FF80
00FF00FF80
01FF00FF80
01FE00FF80
03FE00FF00
03FC00FF00
07FC01FF00
07FC01FE00
0FF801FE00
0FF803FE00
0FF803FE00
1FF803FE00
1FF007FC00
3FF007FC00
3FF007FC00
3FF00FFC00
7FF00FFC00
7FF01FFC00
7FF01FFC00
7FF81FF800
7FFE3FF800
7FFFFFF000
FFFFFFE000
FFFFFFE000
FFFFFFC000
FFFFFFC000
FFFFFF8000
7FFFFF8000
7FFFFF0000
7FFFFE0000
3FFFFC0000
3FFFF80000
3FFFF00000
1FFFE00000
07FFC00000
01FF000000
ENDCHAR
STARTCHAR 0076
ENCODING 118
SWIDTH 594 0
DWIDTH 33 0
BBX 32 36 8 1
BITMAP
0000007E
FC0007FF
FFC00FFF
7FF80FFE
3FFC0FFE
3FFE1FFE
3FFE1FFC
3FFC1FFC
3FFC3FF8
3FFC3FF8
3FFC3FF0
3FFC3FF0
1FFC7FE0
1FFC7FE0
1FFC7FE0
1FFCFFC0
0FFCFFC0
0FFDFF80
0FFFFF80
07FFFF00
07FFFF00
07FFFE00
03FFFE00
03FFFC00
01FFFC00
01FFFC00
01FFF800
00FFF800
00FFF000
007FF000
007FF000
003FE000
003FE000
001FE000
001FC000
000E0000
ENDCHAR
STARTCHAR 0077
ENCODING 119
SWIDTH 720 0
DWIDTH 40 0
BBX 39 39 8 0
BITMAP
0000000100
0000000184
7FC00003FE
7FE01C07FE
FFE03C07FC
FFE03C0FFC
FFE03C0FF8
FFE07C1FF8
FFF07C3FF0
FFF07C3FF0
FFF0FC7FE0
FFF0FC7FE0
FFF0FEFFC0
FFF9FEFFC0
FFF9FFFFC0
7FFBFFFFC0
7FFFFFFF80
7FFFFFFF80
7FFFFFFF00
3FFFFFFF00
3FFFFFFE00
3FFFFFFE00
3FFFFFFE00
1FFFFFFC00
1FFFBFFC00
1FFF3FF800
1FFF3FF800
0FFE3FF800
0FFE3FF800
0FFC3FF000
07F83FF000
07F83FE000
07F03FE000
07F03FE000
03E01FC000
03E01FC000
01C01E0000
01C0000000
0080000000
ENDCHAR
STARTCHAR 0078
ENCODING 120
SWIDTH 576 0
DWIDTH 32 0
BBX 36 37 3 1
BITMAP
0000000E00
0004001FF0
01FF003FF0
03FE007FF0
07FF00FFE0
07FF00FFC0
07FF81FF80
07FF83FF80
07FF83FF00
07FFC7FE00
07FFC7FE00
03FFCFFC00
03FFDFFC00
01FFFFF800
00FFFFF000
00FFFFF000
007FFFE000
007FFFC000
003FFF8000
003FFF8000
003FFF0000
003FFF0000
007FFF0000
00FFFF0000
00FFFF0000
01FFFF8000
03FFFF8000
07FFFF8000
07FCFF8000
0FFCFF8000
1FFC7F8000
1FF87FC000
3FF83FC000
3FF03FC000
7FF01F8000
7FE0080000
FFE0000000
ENDCHAR
STARTCHAR 0079
ENCODING 121
SWIDTH 612 0
DWIDTH 34 0
BBX 33 38 8 0
BITMAP
0000007F80
008001FF80
07C001FF00
7FC003FE00
FFE003FE00
FFE007FC00
FFE00FF800
7FE00FF800
7FF01FF000
7FF03FE000
3FF07FC000
3FF07FC000
3FF8FF8000
3FF9FF0000
1FFBFF0000
1FFBFE0000
1FFFFC0000
0FFFFC0000
0FFFF80000
0FFFF00000
0FFFF00000
07FFE00000
07FFC00000
07FFC00000
03FF800000
03FF000000
03FF000000
01FF000000
01FE000000
01FE000000
03FE000000
03FE000000
03FE000000
03FE000000
03FE000000
07FE000000
07FC000000
07F0000000
ENDCHAR
STARTCHAR 007A
ENCODING 122
SWIDTH 594 0
DWIDTH 33 0
BBX 29 38 7 0
BITMAP
000FFF80
00FFFFF8
07FFFFF0
1FFFFFE0
3FFFFFC0
3FFFFF80
7FFFFF00
7FFFFE00
FFFFFE00
FFF7FC00
8007F800
000FF000
000FF000
001FE000
003FE000
003FC000
007FC000
007F8000
00FF8000
00FF0000
01FF0000
03FE0000
03FE0000
07FC0000
07FC0000
0FF80000
0FF00000
1FE038E0
1FFFFFF0
3FFFFFE0
7FFFFFE0
7FFFFFE0
FFFFFFC0
FFFFFF80
FFFFFF00
03FFFC00
00FFF000
00070000
ENDCHAR
STARTCHAR 007B
ENCODING 123
SWIDTH 342 0
DWIDTH 19 0
BBX 22 52 5 -5
BITMAP
000078
0000F8
0001FC
0003FC
0003FC
0007FC
000FFC
001FF0
001FE0
003FC0
003F80
003F80
007F00
007E00
00FE00
00FC00
01FC00
01FC00
03F800
03F800
03F000
07F000
3FF000
7FE000
7FE000
FFE000
FFE000
FFE000
7FE000
0FE000
0FE000
0FE000
0FE000
0FE000
0FE000
0FE000
0FE000
1FE000
1FC000
1FC000
1FC000
1FC000
1FC000
3FC000
3FE000
3FF800
1FF800
1FF800
0FF000
07F000
03E000
01E000
ENDCHAR
STARTCHAR 007C
ENCODING 124
SWIDTH 180 0
DWIDTH 10 0
BBX 19 55 0 -8
BITMAP
000FE0
001FE0
001FE0
001FE0
003FC0
003FC0
003FC0
003FC0
007FC0
007F80
007F80
00FF80
00FF80
00FF80
00FF00
00FF00
00FF00
01FF00
01FF00
01FF00
01FE00
01FE00
03FC00
03FC00
03FC00
03FC00
07FC00
07FC00
07F800
07F800
07F800
0FF800
0FF800
0FF000
0FF000
0FF000
1FF000
1FE000
1FE000
1FE000
1FE000
3FE000
3FC000
3FC000
3FC000
3FC000
7F8000
7F8000
7F8000
7F8000
7F8000
FF0000
FF0000
FF0000
FF0000
ENDCHAR
STARTCHAR 007D
ENCODING 125
SWIDTH 342 0
DWIDTH 19 0
BBX 22 53 1 -6
BITMAP
000800
000F00
001F80
003FC0
003FE0
003FE0
007FF0
003FF0
000FF0
000FF0
000FF0
000FE0
000FE0
000FE0
000FE0
000FE0
001FE0
001FC0
001FC0
001FC0
001FC0
001FC0
001FC0
001FC0
001FFC
001FFC
001FFC
000FFC
001FF8
001FF8
001FF0
003F80
003F80
007F00
007F00
00FE00
00FE00
00FC00
01FC00
01F800
03F800
03F000
07F000
0FF000
1FE000
3FE000
FFC000
FF8000
FF0000
FF0000
7E0000
7C0000
700000
ENDCHAR
STARTCHAR 007E
ENCODING 126
SWIDTH 468 0
DWIDTH 26 0
BBX 27 13 4 13
BITMAP
01E01FE0
07F83FE0
0FFC3FE0
1FFE3FC0
3FFFFFC0
3FFFFFC0
7FFFFFC0
7FFFFF80
7FFFFF00
FF7FFE00
FE3FFC00
FE1FF000
FE01E000
ENDCHAR
STARTCHAR 00A0
ENCODING 160
SWIDTH 306 0
DWIDTH 17 0
BBX 0 0 0 0
BITMAP
ENDCHAR
STARTCHAR 00A1
ENCODING 161
SWIDTH 288 0
DWIDTH 16 0
BBX 20 42 -1 -11
BITMAP
0003C0
000FF0
001FF0
001FF0
003FF0
003FF0
003FE0
003FE0
003FC0
000F80
000000
000000
000000
001000
007E00
00FF00
00FF00
01FF00
01FF00
01FF00
03FF00
03FF00
03FE00
07FE00
07FE00
07FE00
0FFE00
0FFE00
1FFE00
1FFE00
1FFE00
3FFE00
3FFC00
3FFC00
7FFC00
7FFC00
7FFC00
7FFE00
FFFE00
FFFE00
FFFE00
03FC00
ENDCHAR
STARTCHAR 00A2
ENCODING 162
SWIDTH 486 0
DWIDTH 27 0
BBX 29 48 4 -5
BITMAP
00000300
000003F8
000007F8
000007F8
00000FF0
00000FF0
0001FFE0
000FFFE0
001FFFF0
007FFFF8
00FFFFF8
01FFFFF8
03FFFFF8
03FFFFF8
07FFFFF0
0FFFFFF0
0FFFFFF0
1FFFFFE0
1FFDFFE0
3FFBFFE0
3FF3F840
3FE7F800
7FC7F000
7FCFF000
7F8FF000
7F9FE000
FF9FE000
FF9FC000
FFBFC000
FFBFC000
FFFF8000
FFFF8300
FFFFFF80
FFFFFF80
FFFFFF80
7FFFFF00
7FFFFF00
3FFFFF00
3FFFFF00
1FFFFC00
07FFF800
07FFE000
07FE0000
0FE00000
0FE00000
1FE00000
1FC00000
03C00000
ENDCHAR
STARTCHAR 00A3
ENCODING 163
SWIDTH 540 0
DWIDTH 30 0
BBX 34 38 2 0
BITMAP
000007E000
00001FF800
00003FFE00
00007FFF00
0000FFFF80
0003FFFF80
0003FFFF80
0007FFFFC0
0007FDFF80
000FFCFF80
001FF8FF80
001FF87F80
003FF87C00
003FF00000
003FF00000
007FF00000
0FFFFFF000
1FFFFFE000
1FFFFFE000
1FFFFFE000
1FFFFFE000
3FFFFFE000
08FFFF0000
01FFC00000
01FFC00000
01FFC00000
01FF800000
01FF800000
01FF800000
7FFFFFFC00
7FFFFFF800
7FFFFFF800
7FFFFFF000
FFFFFFF000
FFFFFFF000
FFFFFFE000
3FFFFFE000
02FFFC0000
ENDCHAR
STARTCHAR 00A4
ENCODING 164
SWIDTH 432 0
DWIDTH 24 0
BBX 25 23 4 8
BITMAP
00800C00
01E01E00
07E73E00
0FFFFF00
1FFFFF80
3FFFFF80
1FFFFF00
0FF3FE00
0FE1FC00
07C1F800
0FC1F800
0F81F000
0F81F000
0F83F000
0F83F000
3FC7F800
7FFFFC00
FFFFFE00
FFFFFC00
7FFFF800
3E73E000
3C01C000
18008000
ENDCHAR
STARTCHAR 00A5
ENCODING 165
SWIDTH 612 0
DWIDTH 34 0
BBX 36 38 5 0
BITMAP
0000000FF0
0010003FF0
00F8003FE0
0FF8007FC0
1FFC007FC0
1FFC00FF80
1FFC01FF00
0FFC01FF00
0FFE03FE00
0FFE07FC00
07FE0FF800
07FE0FF800
07FF1FF000
07FF3FE000
03FF7FE000
03FF7FC000
03FFFFF000
1FFFFFF000
1FFFFFF000
1FFFFFE000
1FFFFFE000
3FFFFFE000
3FFFFFE000
3FFFF80000
007FF00000
007FE00000
3FFFFFC000
3FFFFFC000
7FFFFFC000
7FFFFFC000
7FFFFFC000
7FFFFF8000
FFFFF10000
107FC00000
007FC00000
00FFC00000
00FF800000
00FE000000
ENDCHAR
STARTCHAR 00A6
ENCODING 166
SWIDTH 180 0
DWIDTH 10 0
BBX 19 55 0 -8
BITMAP
001FE0
001FE0
003FE0
003FE0
003FC0
003FC0
003FC0
003FC0
007FC0
007F80
007F80
007F80
007F80
00FF80
00FF00
00FF00
00FF00
00FF00
01FF00
01FE00
01FE00
01FE00
01FE00
03FC00
004000
000000
000000
000000
000000
000000
000000
01F000
0FF000
0FF000
0FF000
1FF000
1FE000
1FE000
1FE000
3FE000
3FE000
3FC000
3FC000
3FC000
3FC000
7FC000
7F8000
7F8000
7F8000
FF8000
FF8000
FF8000
FF0000
FF0000
FE0000
ENDCHAR
STARTCHAR 00A7
ENCODING 167
SWIDTH 486 0
DWIDTH 27 0
BBX 26 47 5 -4
BITMAP
0001FC00
000FFF00
001FFF80
007FFFC0
00FFFFC0
01FFFFC0
01FFFFC0
01FFFFC0
03FFFFC0
03FF8780
03FF0300
03FF0000
03FF0000
03FF0000
07FFC000
0FFFF800
0FFFFE00
1FFFFF00
3FFFFF80
3FFFFF80
7FFFFFC0
7FF1FFC0
FFC07FC0
FF807FC0
FFC0FFC0
FFE3FF80
FFFFFF80
7FFFFF00
3FFFFF00
1FFFFE00
0FFFFE00
01FFFC00
007FF800
003FF000
001FF000
001FF000
303FF000
787FF000
7FFFF000
FFFFF000
FFFFE000
FFFFE000
FFFFC000
7FFF8000
7FFE0000
3FFC0000
0FE00000
ENDCHAR
STARTCHAR 00A8
ENCODING 168
SWIDTH 306 0
DWIDTH 17 0
BBX 15 6 10 39
BITMAP
381E
7C3E
FC7E
FC7E
F87C
7038
ENDCHAR
STARTCHAR 00A9
ENCODING 169
SWIDTH 666 0
DWIDTH 37 0
BBX 37 35 4 2
BITMAP
00003FF800
0003FFFF00
000FFFFFC0
003FFFFFE0
00FFFFFFE0
01FFF07FF0
03FF001FF0
03FC000FF0
07F80007F0
0FE07F03F8
0FC0FFC3F8
1F81FFC3F8
1F03FF81F8
3F03FF81F8
3E07FF81F8
3E07E081F8
7E0FC001F8
7C0FC003F0
7C0F8003F0
7C0F8003F0
7C1F8003E0
FE1FC007E0
FE0FFE07C0
FE0FFE07C0
FE0FFE0F80
7F07FC0F80
7F01F81F00
7F80007E00
7FC001FC00
3FF00FF800
3FFFFFF000
1FFFFFC000
0FFFFF8000
07FFFE0000
00FFF80000
ENDCHAR
STARTCHAR 00AA
ENCODING 170
SWIDTH 324 0
DWIDTH 18 0
BBX 16 20 5 18
BITMAP
0004
001C
003C
003C
007C
007C
00FE
00FE
01FE
03FE
03BE
073E
0E3E
0FFE
1FFE
3F7F
3C7F
7C7F
F83F
E000
ENDCHAR
STARTCHAR 00AB
ENCODING 171
SWIDTH 468 0
DWIDTH 26 0
BBX 28 25 3 1
BITMAP
00010000
00060030
001E00F0
003E01E0
007E03E0
01FC0FE0
03FC1FE0
07FC7FE0
0FFCFFC0
1FFBFFC0
3FE3FF00
7F87F800
7E07E000
7C07F000
FF07F800
FFE3FE00
7FF3FF00
3FF1FF00
1FF0FF00
0FF0FF00
07E07F00
03E03E00
01E01E00
00E01E00
00400600
ENDCHAR
STARTCHAR 00AC
ENCODING 172
SWIDTH 468 0
DWIDTH 26 0
BBX 27 14 4 10
BITMAP
3FFFFFE0
3FFFFFC0
3FFFFFC0
7FFFFFC0
7FFFFFC0
7FFFFFC0
7FFFFFC0
FFFFFF80
3FF07F80
00007F80
0000FF00
0000FF00
0000FF00
0000FF00
ENDCHAR
STARTCHAR 00AD
ENCODING 173
SWIDTH 378 0
DWIDTH 21 0
BBX 22 9 4 15
BITMAP
3FFFFC
3FFFF8
3FFFF8
7FFFF8
7FFFF8
7FFFF8
7FFFF8
FFFFF0
3E0000
ENDCHAR
STARTCHAR 00AE
ENCODING 174
SWIDTH 450 0
DWIDTH 25 0
BBX 24 23 6 16
BITMAP
007FE0
01FFF8
07FFFC
0FE07E
0F801E
1F3F0F
3E7F87
3C7987
3C7987
78FB87
78FF0F
70FE0F
70FE0F
F0F71F
F0F71E
F8F3BE
78F3FC
7C00F8
7F01F8
3FFFF0
3FFFE0
0FFF80
01FE00
ENDCHAR
STARTCHAR 00AF
ENCODING 175
SWIDTH 324 0
DWIDTH 18 0
BBX 16 6 10 39
BITMAP
7FFF
FFFF
FFFF
FFFF
FFFF
4000
ENDCHAR
STARTCHAR 00B0
ENCODING 176
SWIDTH 324 0
DWIDTH 18 0
BBX 17 19 7 21
BITMAP
007000
03FC00
0FFE00
1FFF00
1FFF80
3F1F80
7E1F80
7C1F80
7C1F80
FC1F80
FC1F80
FC1F00
FC3F00
FEFE00
7FFC00
7FF800
3FF000
1FC000
020000
ENDCHAR
STARTCHAR 00B1
ENCODING 177
SWIDTH 468 0
DWIDTH 26 0
BBX 29 33 1 -1
BITMAP
0001FE00
0001FC00
0003FC00
0003FC00
0003FC00
0003F800
0003F800
0003F800
07FFFBF0
07FFFFF8
0FFFFFF8
0FFFFFF8
0FFFFFF8
0FFFFFF0
0FFFFFF0
1FFFFFF0
000FE080
001FE000
001FE000
001FE000
001FE000
001FC000
003FC000
003FC000
00000000
00000000
7FFFFF80
7FFFFF80
7FFFFF80
7FFFFF80
FFFFFF00
FFFFFF00
00800000
ENDCHAR
STARTCHAR 00B2
ENCODING 178
SWIDTH 270 0
DWIDTH 15 0
BBX 14 19 6 20
BITMAP
0100
07E0
0FF8
1FF8
3FF8
1C70
18F0
00F0
01E0
01E0
03C0
0384
07FC
0FF8
1FF8
3FF8
7FF0
FFF0
7F80
ENDCHAR
STARTCHAR 00B3
ENCODING 179
SWIDTH 252 0
DWIDTH 14 0
BBX 12 19 6 19
BITMAP
0300
1FE0
1FE0
0DC0
03C0
0780
0F00
0FE0
1FF0
3FF0
00F0
0070
0070
0070
00F0
E7E0
FFE0
7FC0
3F00
ENDCHAR
STARTCHAR 00B4
ENCODING 180
SWIDTH 234 0
DWIDTH 13 0
BBX 12 9 10 39
BITMAP
07F0
0FF0
1FE0
3FC0
3F80
7F00
FC00
F800
3000
ENDCHAR
STARTCHAR 00B5
ENCODING 181
SWIDTH 540 0
DWIDTH 30 0
BBX 34 38 0 -8
BITMAP
0000000F00
00FF00FF80
01FF00FF80
01FF00FF80
01FE00FF80
03FE00FFC0
03FE00FFC0
03FE00FFC0
03FE01FFC0
07FE01FFC0
07FE01FFC0
07FE03FF80
07FE03FF80
0FFE07FF80
0FFE07FF00
0FFE1FFF00
0FFE7FFF00
0FFFFFFE00
1FFFFFFE00
1FFFFFFC00
1FFFFFFC00
1FFFFFF800
1FFFFFF800
3FFFFFF000
3FFFFFE000
3FFFFFC000
3FFFFF8000
3FFFFE0000
7FDFF00000
7F80000000
7F80000000
7F80000000
7F80000000
FF80000000
FF80000000
FF00000000
FF00000000
FE00000000
ENDCHAR
STARTCHAR 00B6
ENCODING 182
SWIDTH 396 0
DWIDTH 22 0
BBX 23 44 6 -4
BITMAP
000200
007FFE
03FFFE
07FFFC
0FFFFC
1FFFFC
3FFFFC
3FFFFC
3FFCFC
7FF8F8
7FF8F8
7FF8F8
7FF1F8
7FF1F8
7FF1F0
FFF1F0
FFF3F0
FFF3F0
FFE3F0
FFE3E0
FFE7E0
7FE7E0
7FE7E0
1FC7C0
0FC7C0
0FCFC0
0FCFC0
0FCFC0
0F8FC0
1F8F80
1F9F80
1F9F80
1F9F80
1F1F00
3F3F00
3F3F00
3F3F00
3F3E00
7E3E00
7E3E00
7E7E00
7E7E00
7C7C00
FC7C00
ENDCHAR
STARTCHAR 00B7
ENCODING 183
SWIDTH 198 0
DWIDTH 11 0
BBX 10 11 5 14
BITMAP
0700
1F80
7FC0
7FC0
FFC0
FFC0
FFC0
FF80
7F00
3E00
1800
ENDCHAR
STARTCHAR 00B8
ENCODING 184
SWIDTH 288 0
DWIDTH 16 0
BBX 16 11 -1 -9
BITMAP
03F0
03F0
03F8
03F8
01FE
007F
207F
7F7F
FFFE
7FFE
3FF8
ENDCHAR
STARTCHAR 00B9
ENCODING 185
SWIDTH 216 0
DWIDTH 12 0
BBX 10 18 8 20
BITMAP
0380
07C0
1FC0
7FC0
FFC0
7780
2F80
0F80
1F80
1F80
1F80
3F00
3F00
3F00
7F00
7F00
7F00
7F00
ENDCHAR
STARTCHAR 00BA
ENCODING 186
SWIDTH 270 0
DWIDTH 15 0
BBX 14 20 7 19
BITMAP
0380
07C0
0FF0
0FF0
1FF8
3FF8
3FFC
7EFC
7C7C
F87C
F87C
F8FC
FFF8
FFF8
FFF8
FFF0
FFF0
7FE0
3FC0
0E00
ENDCHAR
STARTCHAR 00BB
ENCODING 187
SWIDTH 468 0
DWIDTH 26 0
BBX 27 25 2 0
BITMAP
0C000000
0E004000
0F00E000
0F80F000
0FC0F800
0FC0FC00
1FE1FE00
1FF1FF00
1FF1FF80
0FF9FFE0
07FCFFE0
01FC1FE0
007C07E0
01F80FC0
07F83FC0
7FF8FF80
7FF3FF00
7FC7FE00
7F87FC00
FE07F800
FC07F000
F807C000
E00F8000
C00F0000
800C0000
ENDCHAR
STARTCHAR 00BC
ENCODING 188
SWIDTH 558 0
DWIDTH 31 0
BBX 33 40 3 -1
BITMAP
0000000800
001C001F00
003E001F80
00FE003F00
03FE007F00
07FE00FE00
03BC00FC00
017C01FC00
007C03F800
00FC03F000
00FC07E000
00FC0FE000
01F81FC000
01F83F8000
01F83F0000
03F87E0000
03F8FE0000
03F9FC0000
03FBF80000
0003F00000
0007E00000
000FE1C000
001FC3C000
003F83C000
003F078000
007E078000
00FE0F0000
01FC0F3C00
03F81FFC00
03F01FFC00
07E03FF800
0FC03FE000
1F8001C000
3F8003C000
7F0003C000
7E0007C000
FC0007C000
78000FC000
10000FC000
00001F0000
ENDCHAR
STARTCHAR 00BD
ENCODING 189
SWIDTH 558 0
DWIDTH 31 0
BBX 33 39 3 0
BITMAP
0000000800
001C001F00
003E001F80
00FE003F00
03FE007F00
07FE00FE00
03BC00FC00
017C01FC00
007C03F800
00FC03F000
00FC07E000
00FC0FE000
01F81FC000
01F83F8000
01F83F0000
03F87E0000
03F8FE0000
03F9FC0000
03FBF80000
0003F00000
0007E7C000
000FEFF000
001FFFF000
003FBFF000
003F3DF000
007E10E000
00FE01E000
01FC01C000
03F803C000
03F0038000
07E0078000
0FC00FF800
1F801FF800
3F801FF000
7F003FF000
7E007FE000
FC01FFE000
7800FF0000
1000000000
ENDCHAR
STARTCHAR 00BE
ENCODING 190
SWIDTH 558 0
DWIDTH 31 0
BBX 33 40 3 -1
BITMAP
0000000800
0060001F00
03FC001F80
03FC003F00
01B8007F00
007800FE00
00F000FC00
01E001FC00
01FC03F800
03FE03F000
07FE07E000
001E0FE000
000E1FC000
000E3F8000
000E3F0000
001E7E0000
1CFCFE0000
1FFDFC0000
0FFBF80000
07E3F00000
0007E00000
000FE1C000
001FC3C000
003F83C000
003F078000
007E078000
00FE0F0000
01FC0F3C00
03F81FFC00
03F01FFC00
07E03FF800
0FC03FE000
1F8001C000
3F8003C000
7F0003C000
7E0007C000
FC0007C000
78000FC000
10000FC000
00001F0000
ENDCHAR
STARTCHAR 00BF
ENCODING 191
SWIDTH 450 0
DWIDTH 25 0
BBX 25 41 0 -11
BITMAP
00000400
00003E00
0000FF00
0001FF80
0001FF80
0001FF80
0001FF00
0001FF00
0001FE00
0000F000
00000000
00000000
00000000
0003FC00
0003FC00
0003FC00
0007FC00
000FFC00
001FF800
007FF800
00FFF800
03FFF000
0FFFE000
0FFF8000
1FFC0000
3FF00000
3FE00000
3FE00000
7FC00000
7FC00400
7FC01F00
7FC07F00
FFFBFF00
FFFFFF00
FFFFFF00
FFFFFE00
FFFFFC00
7FFFFC00
7FFFF800
1FFFE000
00FF8000
ENDCHAR
STARTCHAR 00C0
ENCODING 192
SWIDTH 630 0
DWIDTH 35 0
BBX 33 49 1 -1
BITMAP
00001FC000
00003FC000
00001FE000
00000FE000
00000FE000
000007F000
000003F000
000003F000
0000018000
0000000000
0000001000
000001F000
000003F800
000003F800
000007F800
00000FF800
00000FF800
00001FF800
00001FF800
00003FF800
00003FF800
00007FF800
0000FFF800
0000FFF800
0001FFF800
0001FFFC00
0003FFFC00
0007FFFC00
0007FFFC00
000FFFFC00
001FDFFC00
001F8FFC00
003F0FFC00
007E0FFC00
007C0FFC00
00FC0FFE00
01FFFFFE00
01FFFFFE00
03FFFFFE00
07FFFFFE00
07FF9FFE00
0FFC1FFF00
1FF01FFF00
1FF01FFF00
3FE01FFF00
3FE01FFF80
7FE01FFF80
FFE00FFF80
FF000C0000
ENDCHAR
STARTCHAR 00C1
ENCODING 193
SWIDTH 630 0
DWIDTH 35 0
BBX 37 49 1 -1
BITMAP
00000007F8
00000007F8
0000000FE0
0000001FC0
0000003F80
0000003F00
0000007E00
000000FC00
0000001800
0000000000
0000001000
000001F000
000003F800
000003F800
000007F800
00000FF800
00000FF800
00001FF800
00001FF800
00003FF800
00003FF800
00007FF800
0000FFF800
0000FFF800
0001FFF800
0001FFFC00
0003FFFC00
0007FFFC00
0007FFFC00
000FFFFC00
001FDFFC00
001F8FFC00
003F0FFC00
007E0FFC00
007C0FFC00
00FC0FFE00
01FFFFFE00
01FFFFFE00
03FFFFFE00
07FFFFFE00
07FF9FFE00
0FFC1FFF00
1FF01FFF00
1FF01FFF00
3FE01FFF00
3FE01FFF80
7FE01FFF80
FFE00FFF80
FF000C0000
ENDCHAR
STARTCHAR 00C2
ENCODING 194
SWIDTH 630 0
DWIDTH 35 0
BBX 35 49 1 -1
BITMAP
0000003C00
000000FE00
000001FF00
000007FF80
00000FFFC0
00001FFFC0
00003F8FE0
00003F07C0
0000100300
0000000000
0000001000
000001F000
000003F800
000003F800
000007F800
00000FF800
00000FF800
00001FF800
00001FF800
00003FF800
00003FF800
00007FF800
0000FFF800
0000FFF800
0001FFF800
0001FFFC00
0003FFFC00
0007FFFC00
0007FFFC00
000FFFFC00
001FDFFC00
001F8FFC00
003F0FFC00
007E0FFC00
007C0FFC00
00FC0FFE00
01FFFFFE00
01FFFFFE00
03FFFFFE00
07FFFFFE00
07FF9FFE00
0FFC1FFF00
1FF01FFF00
1FF01FFF00
3FE01FFF00
3FE01FFF80
7FE01FFF80
FFE00FFF80
FF000C0000
ENDCHAR
STARTCHAR 00C3
ENCODING 195
SWIDTH 630 0
DWIDTH 35 0
BBX 36 48 1 -1
BITMAP
000003E3F0
00000FF3F0
00000FFFE0
00001FFFE0
00001FFFE0
00001FFF80
00003E7F00
00003E1C00
0000000000
0000001000
000001F000
000003F800
000003F800
000007F800
00000FF800
00000FF800
00001FF800
00001FF800
00003FF800
00003FF800
00007FF800
0000FFF800
0000FFF800
0001FFF800
0001FFFC00
0003FFFC00
0007FFFC00
0007FFFC00
000FFFFC00
001FDFFC00
001F8FFC00
003F0FFC00
007E0FFC00
007C0FFC00
00FC0FFE00
01FFFFFE00
01FFFFFE00
03FFFFFE00
07FFFFFE00
07FF9FFE00
0FFC1FFF00
1FF01FFF00
1FF01FFF00
3FE01FFF00
3FE01FFF80
7FE01FFF80
FFE00FFF80
FF000C0000
ENDCHAR
STARTCHAR 00C4
ENCODING 196
SWIDTH 630 0
DWIDTH 35 0
BBX 35 46 1 -1
BITMAP
00000703C0
00000F87E0
00001F87E0
00001F8FC0
00001F8F80
00000F0300
0000000000
0000001000
000001F000
000003F800
000003F800
000007F800
00000FF800
00000FF800
00001FF800
00001FF800
00003FF800
00003FF800
00007FF800
0000FFF800
0000FFF800
0001FFF800
0001FFFC00
0003FFFC00
0007FFFC00
0007FFFC00
000FFFFC00
001FDFFC00
001F8FFC00
003F0FFC00
007E0FFC00
007C0FFC00
00FC0FFE00
01FFFFFE00
01FFFFFE00
03FFFFFE00
07FFFFFE00
07FF9FFE00
0FFC1FFF00
1FF01FFF00
1FF01FFF00
3FE01FFF00
3FE01FFF80
7FE01FFF80
FFE00FFF80
FF000C0000
ENDCHAR
STARTCHAR 00C5
ENCODING 197
SWIDTH 630 0
DWIDTH 35 0
BBX 34 49 1 -1
BITMAP
0000007C00
000003FF00
000007FF80
00000FFFC0
00001F8FC0
00003F07C0
00003E07C0
00003E07C0
00003E0FC0
00003E0F80
00003F3F00
00001FFE00
00001FFC00
00000FF800
000007F800
00000FF800
00000FF800
00001FF800
00001FF800
00003FF800
00003FF800
00007FF800
0000FFF800
0000FFF800
0001FFF800
0001FFFC00
0003FFFC00
0007FFFC00
0007FFFC00
000FFFFC00
001FDFFC00
001F8FFC00
003F0FFC00
007E0FFC00
007C0FFC00
00FC0FFE00
01FFFFFE00
01FFFFFE00
03FFFFFE00
07FFFFFE00
07FF9FFE00
0FFC1FFF00
1FF01FFF00
1FF01FFF00
3FE01FFF00
3FE01FFF80
7FE01FFF80
FFE00FFF80
FF000C0000
ENDCHAR
STARTCHAR 00C6
ENCODING 198
SWIDTH 738 0
DWIDTH 41 0
BBX 41 40 1 -1
BITMAP
000000010000
0000007FFF00
000001FFFF80
000003FFFF80
000003FFFF80
000007FFFF00
00000FFFFF00
00000FFFFE00
00001FFFFE00
00001FFFFC00
00003FFFFE00
00007FFFFC00
00007FFF0000
0000FFFC0000
0000FFFC0000
0001FFFC0000
0003FFFC3800
0003FFFFF800
0007FFFFF000
000FFFFFF000
000FFFFFF000
001FDFFFF000
001F8FFE0000
003F0FFC0000
007E0FFC0300
007C0FFFFF00
00FC3FFFFF00
01FFFFFFFF00
01FFFFFFFF00
03FFFFFFFF00
07FFFFFFFF00
07FF1FFFFF00
0FF81FFFFF00
1FF01FFFFF00
1FF01FFFFF00
3FE01FFFFC00
7FE01FFFC000
7FE01FFC0000
FFE00F800000
FC0000000000
ENDCHAR
STARTCHAR 00C7
ENCODING 199
SWIDTH 486 0
DWIDTH 27 0
BBX 29 47 4 -9
BITMAP
00003E00
0001FFC0
000FFFE0
003FFFF0
007FFFF8
01FFFFF8
03FFFFF8
07FFFFF8
07FFFFF0
0FFFFFF0
0FFFFFE0
1FFFC000
1FFF0000
3FFE0000
3FFC0000
3FF80000
7FF80000
7FF00000
7FF00000
7FF00000
7FF80000
FFFC0F80
FFFFFF80
FFFFFF80
FFFFFF80
FFFFFF80
FFFFFF00
7FFFFF00
7FFFFF00
7FFFFF00
7FFFFF00
7FFFFE00
3FFFFC00
3FFFF800
3FFFF000
07FFC000
03FF0000
03F00000
07F00000
03F80000
01FC0000
00FE0000
207E0000
FEFE0000
FFFE0000
FFFC0000
3FF80000
ENDCHAR
STARTCHAR 00C8
ENCODING 200
SWIDTH 486 0
DWIDTH 27 0
BBX 22 48 7 0
BITMAP
0FF000
0FF000
0FF800
07F800
03FC00
01FC00
00FC00
007800
000000
00FF00
07FFFC
3FFFFC
7FFFF8
7FFFF8
3FFFF0
3FFFF0
3FFFF0
3FFFE0
3FFFE0
3FFFE0
3FFFC0
3FF000
3FE000
3FE000
3FE000
3FE7C0
3FFF80
7FFF80
7FFF80
7FFF80
7FFF80
7FC000
7FC000
7FE030
7FFFF0
7FFFF8
7FFFF8
7FFFF8
7FFFF8
7FFFF8
7FFFF8
FFFFF8
FFFFF8
FFFFF8
FFFFC0
FFFC00
FFC000
700000
ENDCHAR
STARTCHAR 00C9
ENCODING 201
SWIDTH 486 0
DWIDTH 27 0
BBX 22 49 7 0
BITMAP
0003F8
0007F0
000FE0
000FC0
001F80
003F80
003F00
007E00
007C00
000000
00FF00
07FFFC
3FFFFC
7FFFF8
7FFFF8
3FFFF0
3FFFF0
3FFFF0
3FFFE0
3FFFE0
3FFFE0
3FFFC0
3FF000
3FE000
3FE000
3FE000
3FE7C0
3FFF80
7FFF80
7FFF80
7FFF80
7FFF80
7FC000
7FC000
7FE030
7FFFF0
7FFFF8
7FFFF8
7FFFF8
7FFFF8
7FFFF8
7FFFF8
FFFFF8
FFFFF8
FFFFF8
FFFFC0
FFFC00
FFC000
700000
ENDCHAR
STARTCHAR 00CA
ENCODING 202
SWIDTH 486 0
DWIDTH 27 0
BBX 22 49 7 0
BITMAP
000C00
003E00
00FF00
01FFC0
03FFE0
07FFF0
0FE7F0
1FC3E0
1F0100
080000
00FF00
07FFFC
3FFFFC
7FFFF8
7FFFF8
3FFFF0
3FFFF0
3FFFF0
3FFFE0
3FFFE0
3FFFE0
3FFFC0
3FF000
3FE000
3FE000
3FE000
3FE7C0
3FFF80
7FFF80
7FFF80
7FFF80
7FFF80
7FC000
7FC000
7FE030
7FFFF0
7FFFF8
7FFFF8
7FFFF8
7FFFF8
7FFFF8
7FFFF8
FFFFF8
FFFFF8
FFFFF8
FFFFC0
FFFC00
FFC000
700000
ENDCHAR
STARTCHAR 00CB
ENCODING 203
SWIDTH 486 0
DWIDTH 27 0
BBX 22 46 7 0
BITMAP
0003C0
0787E0
0F87E0
0F87C0
1F87C0
1F8380
0F0000
00FF00
07FFFC
3FFFFC
7FFFF8
7FFFF8
3FFFF0
3FFFF0
3FFFF0
3FFFE0
3FFFE0
3FFFE0
3FFFC0
3FF000
3FE000
3FE000
3FE000
3FE7C0
3FFF80
7FFF80
7FFF80
7FFF80
7FFF80
7FC000
7FC000
7FE030
7FFFF0
7FFFF8
7FFFF8
7FFFF8
7FFFF8
7FFFF8
7FFFF8
FFFFF8
FFFFF8
FFFFF8
FFFFC0
FFFC00
FFC000
700000
ENDCHAR
STARTCHAR 00CC
ENCODING 204
SWIDTH 324 0
DWIDTH 18 0
BBX 25 48 1 0
BITMAP
0007F000
0007F800
0007F800
0003F800
0001FC00
0001FC00
0000FC00
00007C00
00006000
00000000
00000000
000FFF80
001FFF00
001FFE00
000FFE00
001FFE00
001FFC00
003FFC00
003FFC00
003FF800
007FF800
007FF800
007FF000
00FFF000
00FFF000
00FFF000
01FFE000
01FFE000
01FFE000
01FFC000
03FFC000
03FFC000
03FFC000
07FFC000
07FF8000
07FF8000
07FF8000
0FFF8000
0FFF8000
0FFF8000
0FFF0000
1FFE0000
1FFE0000
1FFE0000
3FFE0000
3FFC0000
7FF00000
FC000000
ENDCHAR
STARTCHAR 00CD
ENCODING 205
SWIDTH 324 0
DWIDTH 18 0
BBX 29 48 1 0
BITMAP
000003F8
000007F8
00000FF0
00000FE0
00001FC0
00003F80
00007F00
00007E00
00000C00
00000000
00000000
000FFF80
001FFF00
001FFE00
000FFE00
001FFE00
001FFC00
003FFC00
003FFC00
003FF800
007FF800
007FF800
007FF000
00FFF000
00FFF000
00FFF000
01FFE000
01FFE000
01FFE000
01FFC000
03FFC000
03FFC000
03FFC000
07FFC000
07FF8000
07FF8000
07FF8000
0FFF8000
0FFF8000
0FFF8000
0FFF0000
1FFE0000
1FFE0000
1FFE0000
3FFE0000
3FFC0000
7FF00000
FC000000
ENDCHAR
STARTCHAR 00CE
ENCODING 206
SWIDTH 324 0
DWIDTH 18 0
BBX 28 48 1 0
BITMAP
00000E00
00007F00
0000FF80
0003FFC0
0007FFE0
000FFFF0
001FE7F0
001F83F0
00040180
00000000
00000000
000FFF80
001FFF00
001FFE00
000FFE00
001FFE00
001FFC00
003FFC00
003FFC00
003FF800
007FF800
007FF800
007FF000
00FFF000
00FFF000
00FFF000
01FFE000
01FFE000
01FFE000
01FFC000
03FFC000
03FFC000
03FFC000
07FFC000
07FF8000
07FF8000
07FF8000
0FFF8000
0FFF8000
0FFF8000
0FFF0000
1FFE0000
1FFE0000
1FFE0000
3FFE0000
3FFC0000
7FF00000
FC000000
ENDCHAR
STARTCHAR 00CF
ENCODING 207
SWIDTH 324 0
DWIDTH 18 0
BBX 28 45 1 0
BITMAP
000381E0
0007C3F0
000FC3F0
000FC7E0
000FC7C0
00078180
00000000
00000000
000FFF80
001FFF00
001FFE00
000FFE00
001FFE00
001FFC00
003FFC00
003FFC00
003FF800
007FF800
007FF800
007FF000
00FFF000
00FFF000
00FFF000
01FFE000
01FFE000
01FFE000
01FFC000
03FFC000
03FFC000
03FFC000
07FFC000
07FF8000
07FF8000
07FF8000
0FFF8000
0FFF8000
0FFF8000
0FFF0000
1FFE0000
1FFE0000
1FFE0000
3FFE0000
3FFC0000
7FF00000
FC000000
ENDCHAR
STARTCHAR 00D0
ENCODING 208
SWIDTH 486 0
DWIDTH 27 0
BBX 27 38 4 0
BITMAP
007F8000
01FFE000
03FFFC00
03FFFE00
03FFFF00
07FFFF80
07FFFF80
07FFFFC0
07FFFFC0
07FFFFE0
07FF7FE0
0FFE1FE0
0FFECFE0
0FFFCFE0
3FFFCFE0
7FFFCFE0
7FFF8FE0
7FFF9FE0
FFFFBFC0
FFFF3FC0
FFF87F80
FFF8FF00
0FFBFF00
0FFFFE00
0FFFFC00
0FFFFC00
0FFFF800
0FFFF000
0FFFE000
0FFFC000
0FFFC000
0FFF8000
0FFE0000
0FFC0000
0FF00000
0FC00000
0F000000
08000000
ENDCHAR
STARTCHAR 00D1
ENCODING 209
SWIDTH 558 0
DWIDTH 31 0
BBX 37 47 1 0
BITMAP
000007C3E0
00000FE7E0
00001FFFE0
00003FFFC0
00003FFFC0
00003FFF80
00003C7E00
00007C0C00
0000000000
0000000000
0007E003F0
001FFC0FF8
001FFC3FF8
003FFC3FF8
003FFC3FF0
003FF87FF0
007FF87FF0
007FF87FE0
00FFF87FE0
00FFF8FFE0
00FFF8FFC0
01FFF8FFC0
01FFF8FFC0
01FFF9FF80
03FFF9FF80
03FFF9FF80
03FFFDFF00
07FFFDFF00
07FFFFFF00
07FFFFFF00
07FFFFFE00
0FFEFFFE00
0FFEFFFE00
0FFEFFFC00
0FFCFFFC00
1FFCFFFC00
1FFCFFFC00
1FFC7FF800
3FF87FF800
3FF87FF800
3FF87FF800
3FF87FF000
7FF07FF000
7FF07FF000
7FF07FF000
FFC07FC000
7000000000
ENDCHAR
STARTCHAR 00D2
ENCODING 210
SWIDTH 522 0
DWIDTH 29 0
BBX 29 48 4 0
BITMAP
00FE0000
01FE0000
00FE0000
007F0000
007F0000
003F0000
001F8000
001F8000
000C0000
00038000
0007E000
000FF800
001FFC00
003FFF00
007FFF80
00FFFFC0
00FFFFC0
01FFFFE0
03FFFFE0
03FFFFF0
07FFFFF0
0FFFFFF0
0FFFFFF0
1FFFFFF8
1FFC3FF8
3FF81FF8
3FF01FF8
7FF01FF8
7FE03FF8
7FE03FF8
7FE03FF8
7FE07FF8
7FF0FFF0
FFF9FFF0
FFFFFFE0
FFFFFFE0
7FFFFFE0
7FFFFFC0
7FFFFFC0
7FFFFF80
7FFFFF80
7FFFFF00
3FFFFF00
3FFFFE00
1FFFFC00
0FFFF800
07FFE000
00FF8000
ENDCHAR
STARTCHAR 00D3
ENCODING 211
SWIDTH 522 0
DWIDTH 29 0
BBX 29 48 4 0
BITMAP
00001FC0
00003FC0
00007F80
0000FF00
0001FE00
0001F800
0003F000
0003E000
0000C000
00038000
0007E000
000FF800
001FFC00
003FFF00
007FFF80
00FFFFC0
00FFFFC0
01FFFFE0
03FFFFE0
03FFFFF0
07FFFFF0
0FFFFFF0
0FFFFFF0
1FFFFFF8
1FFC3FF8
3FF81FF8
3FF01FF8
7FF01FF8
7FE03FF8
7FE03FF8
7FE03FF8
7FE07FF8
7FF0FFF0
FFF9FFF0
FFFFFFE0
FFFFFFE0
7FFFFFE0
7FFFFFC0
7FFFFFC0
7FFFFF80
7FFFFF80
7FFFFF00
3FFFFF00
3FFFFE00
1FFFFC00
0FFFF800
07FFE000
00FF8000
ENDCHAR
STARTCHAR 00D4
ENCODING 212
SWIDTH 522 0
DWIDTH 29 0
BBX 29 48 4 0
BITMAP
0001E000
0007F000
000FFC00
003FFC00
007FFE00
00FEFF00
01FC7F00
00F83E00
00000000
00038000
0007E000
000FF800
001FFC00
003FFF00
007FFF80
00FFFFC0
00FFFFC0
01FFFFE0
03FFFFE0
03FFFFF0
07FFFFF0
0FFFFFF0
0FFFFFF0
1FFFFFF8
1FFC3FF8
3FF81FF8
3FF01FF8
7FF01FF8
7FE03FF8
7FE03FF8
7FE03FF8
7FE07FF8
7FF0FFF0
FFF9FFF0
FFFFFFE0
FFFFFFE0
7FFFFFE0
7FFFFFC0
7FFFFFC0
7FFFFF80
7FFFFF80
7FFFFF00
3FFFFF00
3FFFFE00
1FFFFC00
0FFFF800
07FFE000
00FF8000
ENDCHAR
STARTCHAR 00D5
ENCODING 213
SWIDTH 522 0
DWIDTH 29 0
BBX 29 48 4 0
BITMAP
00001F00
003E1F00
007FBF00
00FFFF00
00FFFE00
00FFFC00
01FFF800
01F1F000
01F00000
00038000
0007E000
000FF800
001FFC00
003FFF00
007FFF80
00FFFFC0
00FFFFC0
01FFFFE0
03FFFFE0
03FFFFF0
07FFFFF0
0FFFFFF0
0FFFFFF0
1FFFFFF8
1FFC3FF8
3FF81FF8
3FF01FF8
7FF01FF8
7FE03FF8
7FE03FF8
7FE03FF8
7FE07FF8
7FF0FFF0
FFF9FFF0
FFFFFFE0
FFFFFFE0
7FFFFFE0
7FFFFFC0
7FFFFFC0
7FFFFF80
7FFFFF80
7FFFFF00
3FFFFF00
3FFFFE00
1FFFFC00
0FFFF800
07FFE000
00FF8000
ENDCHAR
STARTCHAR 00D6
ENCODING 214
SWIDTH 522 0
DWIDTH 29 0
BBX 29 45 4 0
BITMAP
00381E00
007C3F00
00FC7E00
00FC7E00
00F87C00
00701800
00038000
0007E000
000FF800
001FFC00
003FFF00
007FFF80
00FFFFC0
00FFFFC0
01FFFFE0
03FFFFE0
03FFFFF0
07FFFFF0
0FFFFFF0
0FFFFFF0
1FFFFFF8
1FFC3FF8
3FF81FF8
3FF01FF8
7FF01FF8
7FE03FF8
7FE03FF8
7FE03FF8
7FE07FF8
7FF0FFF0
FFF9FFF0
FFFFFFE0
FFFFFFE0
7FFFFFE0
7FFFFFC0
7FFFFFC0
7FFFFF80
7FFFFF80
7FFFFF00
3FFFFF00
3FFFFE00
1FFFFC00
0FFFF800
07FFE000
00FF8000
ENDCHAR
STARTCHAR 00D7
ENCODING 215
SWIDTH 432 0
DWIDTH 24 0
BBX 25 22 4 8
BITMAP
00800800
01C01C00
03E07E00
0FF0FE00
1FF1FF00
3FFBFF80
1FFFFF00
1FFFFC00
0FFFF800
07FFF000
03FFE000
01FFC000
03FFC000
07FFE000
0FFFF000
3FFFF800
7FFFFC00
FFDFFC00
FF8FF800
7F07F000
3E03E000
1C018000
ENDCHAR
STARTCHAR 00D8
ENCODING 216
SWIDTH 522 0
DWIDTH 29 0
BBX 38 40 0 -1
BITMAP
00003807FC
00007E07FC
0000FF8FF8
0001FFDFF0
0003FFFFE0
0007FFFFE0
000FFFFFC0
000FFFFF80
001FFFFF00
003FFFFE00
003FFFFE00
007FFFFF00
00FFFFFF00
00FFFFFF00
01FFFFFF80
01FF3FFF80
03FE7FFF80
03FCFFFF80
07F9FEFF80
07F9FEFF80
07F3FDFF80
07F7F9FF80
07FFF1FF80
07FFE3FF00
0FFFC7FF00
0FFFDFFE00
0FFFFFFE00
0FFFFFFE00
07FFFFFC00
07FFFFFC00
07FFFFF800
07FFFFF800
07FFFFF000
0FFFFFF000
1FFFFFE000
3FFFFFC000
7FFFFF8000
FF3FFE0000
9E0FF80000
0C00000000
ENDCHAR
STARTCHAR 00D9
ENCODING 217
SWIDTH 540 0
DWIDTH 30 0
BBX 33 47 4 1
BITMAP
0003F80000
0003FC0000
0003FC0000
0001FC0000
0000FE0000
0000FE0000
00007E0000
00003E0000
0000300000
0000000000
0078004000
00FF80FF80
00FF00FF80
01FF00FF80
01FE00FF80
03FE00FF00
03FC00FF00
07FC01FF00
07FC01FE00
0FF801FE00
0FF803FE00
0FF803FE00
1FF803FE00
1FF007FC00
3FF007FC00
3FF007FC00
3FF00FFC00
7FF00FFC00
7FF01FFC00
7FF01FFC00
7FF81FF800
7FFE3FF800
7FFFFFF000
FFFFFFE000
FFFFFFE000
FFFFFFC000
FFFFFFC000
FFFFFF8000
7FFFFF8000
7FFFFF0000
7FFFFE0000
3FFFFC0000
3FFFF80000
3FFFF00000
1FFFE00000
07FFC00000
01FF000000
ENDCHAR
STARTCHAR 00DA
ENCODING 218
SWIDTH 540 0
DWIDTH 30 0
BBX 33 47 4 1
BITMAP
0000007F00
000000FF00
000001FE00
000003FC00
000007F000
000007E000
00000FC000
00000F8000
0000030000
0000000000
0078004000
00FF80FF80
00FF00FF80
01FF00FF80
01FE00FF80
03FE00FF00
03FC00FF00
07FC01FF00
07FC01FE00
0FF801FE00
0FF803FE00
0FF803FE00
1FF803FE00
1FF007FC00
3FF007FC00
3FF007FC00
3FF00FFC00
7FF00FFC00
7FF01FFC00
7FF01FFC00
7FF81FF800
7FFE3FF800
7FFFFFF000
FFFFFFE000
FFFFFFE000
FFFFFFC000
FFFFFFC000
FFFFFF8000
7FFFFF8000
7FFFFF0000
7FFFFE0000
3FFFFC0000
3FFFF80000
3FFFF00000
1FFFE00000
07FFC00000
01FF000000
ENDCHAR
STARTCHAR 00DB
ENCODING 219
SWIDTH 540 0
DWIDTH 30 0
BBX 33 47 4 1
BITMAP
0000038000
00000FC000
00003FE000
00007FF000
0000FFF800
0003FFFC00
0003F8FC00
0003F0FC00
0001002000
0000000000
0078004000
00FF80FF80
00FF00FF80
01FF00FF80
01FE00FF80
03FE00FF00
03FC00FF00
07FC01FF00
07FC01FE00
0FF801FE00
0FF803FE00
0FF803FE00
1FF803FE00
1FF007FC00
3FF007FC00
3FF007FC00
3FF00FFC00
7FF00FFC00
7FF01FFC00
7FF01FFC00
7FF81FF800
7FFE3FF800
7FFFFFF000
FFFFFFE000
FFFFFFE000
FFFFFFC000
FFFFFFC000
FFFFFF8000
7FFFFF8000
7FFFFF0000
7FFFFE0000
3FFFFC0000
3FFFF80000
3FFFF00000
1FFFE00000
07FFC00000
01FF000000
ENDCHAR
STARTCHAR 00DC
ENCODING 220
SWIDTH 540 0
DWIDTH 30 0
BBX 33 44 4 1
BITMAP
0000F03800
0001F8FC00
0001F8FC00
0001F0FC00
0001F0F800
0000C0F000
0000000000
0078004000
00FF80FF80
00FF00FF80
01FF00FF80
01FE00FF80
03FE00FF00
03FC00FF00
07FC01FF00
07FC01FE00
0FF801FE00
0FF803FE00
0FF803FE00
1FF803FE00
1FF007FC00
3FF007FC00
3FF007FC00
3FF00FFC00
7FF00FFC00
7FF01FFC00
7FF01FFC00
7FF81FF800
7FFE3FF800
7FFFFFF000
FFFFFFE000
FFFFFFE000
FFFFFFC000
FFFFFFC000
FFFFFF8000
7FFFFF8000
7FFFFF0000
7FFFFE0000
3FFFFC0000
3FFFF80000
3FFFF00000
1FFFE00000
07FFC00000
01FF000000
ENDCHAR
STARTCHAR 00DD
ENCODING 221
SWIDTH 612 0
DWIDTH 34 0
BBX 33 48 8 0
BITMAP
000007F000
00000FF000
00000FE000
00001FC000
00003F8000
00007F0000
00007E0000
0000FC0000
0000180000
0000000000
0000007F80
008001FF80
07C001FF00
7FC003FE00
FFE003FE00
FFE007FC00
FFE00FF800
7FE00FF800
7FF01FF000
7FF03FE000
3FF07FC000
3FF07FC000
3FF8FF8000
3FF9FF0000
1FFBFF0000
1FFBFE0000
1FFFFC0000
0FFFFC0000
0FFFF80000
0FFFF00000
0FFFF00000
07FFE00000
07FFC00000
07FFC00000
03FF800000
03FF000000
03FF000000
01FF000000
01FE000000
01FE000000
03FE000000
03FE000000
03FE000000
03FE000000
03FE000000
07FE000000
07FC000000
07F0000000
ENDCHAR
STARTCHAR 00DE
ENCODING 222
SWIDTH 504 0
DWIDTH 28 0
BBX 28 38 3 0
BITMAP
03FE0000
03FE0000
03FE0000
07FE0000
07FE0000
07FFE000
07FFFE00
07FFFF80
07FFFFC0
0FFFFFC0
0FFFFFE0
0FFFFFE0
0FFFFFE0
0FF83FE0
0FF80FE0
1FF80FF0
1FF80FF0
1FF80FF0
1FF80FE0
1FF81FE0
1FF81FE0
1FF03FE0
1FF07FE0
3FF8FFE0
3FFFFFE0
3FFFFFC0
3FFFFF80
3FFFFF00
7FFFFE00
7FFFF800
7FFF8000
7FF00000
7FF00000
7FF00000
FFE00000
FFE00000
FFE00000
FFC00000
ENDCHAR
STARTCHAR 00DF
ENCODING 223
SWIDTH 558 0
DWIDTH 31 0
BBX 30 43 3 -4
BITMAP
0003E000
001FFC00
003FFF00
007FFF80
01FFFF80
03FFFF80
03FFFFC0
07FFFFC0
07FC7FC0
0FF83FC0
0FF01FC0
0FF01FC0
0FF03F80
1FF03F80
1FE07F80
1FE07F00
1FE1FE00
1FE1FC00
1FE1FE00
1FE3FFC0
3FE3FFF0
3FE3FFF8
3FE3FFF8
3FC3FFFC
3FC03FFC
3FC01FFC
3FC00FFC
3FC00FFC
7FC00FFC
7FC00FF8
7F801FF8
7F803FF8
7F83FFF0
7F87FFF0
7F87FFE0
7F87FFC0
FF07FF80
FF07FE00
FF07F800
FF000000
FF000000
FE000000
10000000
ENDCHAR
STARTCHAR 00E0
ENCODING 224
SWIDTH 630 0
DWIDTH 35 0
BBX 33 49 1 -1
BITMAP
00001FC000
00003FC000
00001FE000
00000FE000
00000FE000
000007F000
000003F000
000003F000
0000018000
0000000000
0000001000
000001F000
000003F800
000003F800
000007F800
00000FF800
00000FF800
00001FF800
00001FF800
00003FF800
00003FF800
00007FF800
0000FFF800
0000FFF800
0001FFF800
0001FFFC00
0003FFFC00
0007FFFC00
0007FFFC00
000FFFFC00
001FDFFC00
001F8FFC00
003F0FFC00
007E0FFC00
007C0FFC00
00FC0FFE00
01FFFFFE00
01FFFFFE00
03FFFFFE00
07FFFFFE00
07FF9FFE00
0FFC1FFF00
1FF01FFF00
1FF01FFF00
3FE01FFF00
3FE01FFF80
7FE01FFF80
FFE00FFF80
FF000C0000
ENDCHAR
STARTCHAR 00E1
ENCODING 225
SWIDTH 630 0
DWIDTH 35 0
BBX 37 49 1 -1
BITMAP
00000007F8
00000007F8
0000000FE0
0000001FC0
0000003F80
0000003F00
0000007E00
000000FC00
0000001800
0000000000
0000001000
000001F000
000003F800
000003F800
000007F800
00000FF800
00000FF800
00001FF800
00001FF800
00003FF800
00003FF800
00007FF800
0000FFF800
0000FFF800
0001FFF800
0001FFFC00
0003FFFC00
0007FFFC00
0007FFFC00
000FFFFC00
001FDFFC00
001F8FFC00
003F0FFC00
007E0FFC00
007C0FFC00
00FC0FFE00
01FFFFFE00
01FFFFFE00
03FFFFFE00
07FFFFFE00
07FF9FFE00
0FFC1FFF00
1FF01FFF00
1FF01FFF00
3FE01FFF00
3FE01FFF80
7FE01FFF80
FFE00FFF80
FF000C0000
ENDCHAR
STARTCHAR 00E2
ENCODING 226
SWIDTH 630 0
DWIDTH 35 0
BBX 35 49 1 -1
BITMAP
0000003C00
000000FE00
000001FF00
000007FF80
00000FFFC0
00001FFFC0
00003F8FE0
00003F07C0
0000100300
0000000000
0000001000
000001F000
000003F800
000003F800
000007F800
00000FF800
00000FF800
00001FF800
00001FF800
00003FF800
00003FF800
00007FF800
0000FFF800
0000FFF800
0001FFF800
0001FFFC00
0003FFFC00
0007FFFC00
0007FFFC00
000FFFFC00
001FDFFC00
001F8FFC00
003F0FFC00
007E0FFC00
007C0FFC00
00FC0FFE00
01FFFFFE00
01FFFFFE00
03FFFFFE00
07FFFFFE00
07FF9FFE00
0FFC1FFF00
1FF01FFF00
1FF01FFF00
3FE01FFF00
3FE01FFF80
7FE01FFF80
FFE00FFF80
FF000C0000
ENDCHAR
STARTCHAR 00E3
ENCODING 227
SWIDTH 630 0
DWIDTH 35 0
BBX 36 48 1 -1
BITMAP
000003E3F0
00000FF3F0
00000FFFE0
00001FFFE0
00001FFFE0
00001FFF80
00003E7F00
00003E1C00
0000000000
0000001000
000001F000
000003F800
000003F800
000007F800
00000FF800
00000FF800
00001FF800
00001FF800
00003FF800
00003FF800
00007FF800
0000FFF800
0000FFF800
0001FFF800
0001FFFC00
0003FFFC00
0007FFFC00
0007FFFC00
000FFFFC00
001FDFFC00
001F8FFC00
003F0FFC00
007E0FFC00
007C0FFC00
00FC0FFE00
01FFFFFE00
01FFFFFE00
03FFFFFE00
07FFFFFE00
07FF9FFE00
0FFC1FFF00
1FF01FFF00
1FF01FFF00
3FE01FFF00
3FE01FFF80
7FE01FFF80
FFE00FFF80
FF000C0000
ENDCHAR
STARTCHAR 00E4
ENCODING 228
SWIDTH 630 0
DWIDTH 35 0
BBX 35 46 1 -1
BITMAP
00000703C0
00000F87E0
00001F87E0
00001F8FC0
00001F8F80
00000F0300
0000000000
0000001000
000001F000
000003F800
000003F800
000007F800
00000FF800
00000FF800
00001FF800
00001FF800
00003FF800
00003FF800
00007FF800
0000FFF800
0000FFF800
0001FFF800
0001FFFC00
0003FFFC00
0007FFFC00
0007FFFC00
000FFFFC00
001FDFFC00
001F8FFC00
003F0FFC00
007E0FFC00
007C0FFC00
00FC0FFE00
01FFFFFE00
01FFFFFE00
03FFFFFE00
07FFFFFE00
07FF9FFE00
0FFC1FFF00
1FF01FFF00
1FF01FFF00
3FE01FFF00
3FE01FFF80
7FE01FFF80
FFE00FFF80
FF000C0000
ENDCHAR
STARTCHAR 00E5
ENCODING 229
SWIDTH 630 0
DWIDTH 35 0
BBX 34 49 1 -1
BITMAP
0000007C00
000003FF00
000007FF80
00000FFFC0
00001F8FC0
00003F07C0
00003E07C0
00003E07C0
00003E0FC0
00003E0F80
00003F3F00
00001FFE00
00001FFC00
00000FF800
000007F800
00000FF800
00000FF800
00001FF800
00001FF800
00003FF800
00003FF800
00007FF800
0000FFF800
0000FFF800
0001FFF800
0001FFFC00
0003FFFC00
0007FFFC00
0007FFFC00
000FFFFC00
001FDFFC00
001F8FFC00
003F0FFC00
007E0FFC00
007C0FFC00
00FC0FFE00
01FFFFFE00
01FFFFFE00
03FFFFFE00
07FFFFFE00
07FF9FFE00
0FFC1FFF00
1FF01FFF00
1FF01FFF00
3FE01FFF00
3FE01FFF80
7FE01FFF80
FFE00FFF80
FF000C0000
ENDCHAR
STARTCHAR 00E6
ENCODING 230
SWIDTH 738 0
DWIDTH 41 0
BBX 41 40 1 -1
BITMAP
000000010000
0000007FFF00
000001FFFF80
000003FFFF80
000003FFFF80
000007FFFF00
00000FFFFF00
00000FFFFE00
00001FFFFE00
00001FFFFC00
00003FFFFE00
00007FFFFC00
00007FFF0000
0000FFFC0000
0000FFFC0000
0001FFFC0000
0003FFFC3800
0003FFFFF800
0007FFFFF000
000FFFFFF000
000FFFFFF000
001FDFFFF000
001F8FFE0000
003F0FFC0000
007E0FFC0300
007C0FFFFF00
00FC3FFFFF00
01FFFFFFFF00
01FFFFFFFF00
03FFFFFFFF00
07FFFFFFFF00
07FF1FFFFF00
0FF81FFFFF00
1FF01FFFFF00
1FF01FFFFF00
3FE01FFFFC00
7FE01FFFC000
7FE01FFC0000
FFE00F800000
FC0000000000
ENDCHAR
STARTCHAR 00E7
ENCODING 231
SWIDTH 486 0
DWIDTH 27 0
BBX 29 47 4 -9
BITMAP
00003E00
0001FFC0
000FFFE0
003FFFF0
007FFFF8
01FFFFF8
03FFFFF8
07FFFFF8
07FFFFF0
0FFFFFF0
0FFFFFE0
1FFFC000
1FFF0000
3FFE0000
3FFC0000
3FF80000
7FF80000
7FF00000
7FF00000
7FF00000
7FF80000
FFFC0F80
FFFFFF80
FFFFFF80
FFFFFF80
FFFFFF80
FFFFFF00
7FFFFF00
7FFFFF00
7FFFFF00
7FFFFF00
7FFFFE00
3FFFFC00
3FFFF800
3FFFF000
07FFC000
03FF0000
03F00000
07F00000
03F80000
01FC0000
00FE0000
207E0000
FEFE0000
FFFE0000
FFFC0000
3FF80000
ENDCHAR
STARTCHAR 00E8
ENCODING 232
SWIDTH 486 0
DWIDTH 27 0
BBX 22 48 7 0
BITMAP
0FF000
0FF000
0FF800
07F800
03FC00
01FC00
00FC00
007800
000000
00FF00
07FFFC
3FFFFC
7FFFF8
7FFFF8
3FFFF0
3FFFF0
3FFFF0
3FFFE0
3FFFE0
3FFFE0
3FFFC0
3FF000
3FE000
3FE000
3FE000
3FE7C0
3FFF80
7FFF80
7FFF80
7FFF80
7FFF80
7FC000
7FC000
7FE030
7FFFF0
7FFFF8
7FFFF8
7FFFF8
7FFFF8
7FFFF8
7FFFF8
FFFFF8
FFFFF8
FFFFF8
FFFFC0
FFFC00
FFC000
700000
ENDCHAR
STARTCHAR 00E9
ENCODING 233
SWIDTH 486 0
DWIDTH 27 0
BBX 22 49 7 0
BITMAP
0003F8
0007F0
000FE0
000FC0
001F80
003F80
003F00
007E00
007C00
000000
00FF00
07FFFC
3FFFFC
7FFFF8
7FFFF8
3FFFF0
3FFFF0
3FFFF0
3FFFE0
3FFFE0
3FFFE0
3FFFC0
3FF000
3FE000
3FE000
3FE000
3FE7C0
3FFF80
7FFF80
7FFF80
7FFF80
7FFF80
7FC000
7FC000
7FE030
7FFFF0
7FFFF8
7FFFF8
7FFFF8
7FFFF8
7FFFF8
7FFFF8
FFFFF8
FFFFF8
FFFFF8
FFFFC0
FFFC00
FFC000
700000
ENDCHAR
STARTCHAR 00EA
ENCODING 234
SWIDTH 486 0
DWIDTH 27 0
BBX 22 49 7 0
BITMAP
000C00
003E00
00FF00
01FFC0
03FFE0
07FFF0
0FE7F0
1FC3E0
1F0100
080000
00FF00
07FFFC
3FFFFC
7FFFF8
7FFFF8
3FFFF0
3FFFF0
3FFFF0
3FFFE0
3FFFE0
3FFFE0
3FFFC0
3FF000
3FE000
3FE000
3FE000
3FE7C0
3FFF80
7FFF80
7FFF80
7FFF80
7FFF80
7FC000
7FC000
7FE030
7FFFF0
7FFFF8
7FFFF8
7FFFF8
7FFFF8
7FFFF8
7FFFF8
FFFFF8
FFFFF8
FFFFF8
FFFFC0
FFFC00
FFC000
700000
ENDCHAR
STARTCHAR 00EB
ENCODING 235
SWIDTH 486 0
DWIDTH 27 0
BBX 22 46 7 0
BITMAP
0003C0
0787E0
0F87E0
0F87C0
1F87C0
1F8380
0F0000
00FF00
07FFFC
3FFFFC
7FFFF8
7FFFF8
3FFFF0
3FFFF0
3FFFF0
3FFFE0
3FFFE0
3FFFE0
3FFFC0
3FF000
3FE000
3FE000
3FE000
3FE7C0
3FFF80
7FFF80
7FFF80
7FFF80
7FFF80
7FC000
7FC000
7FE030
7FFFF0
7FFFF8
7FFFF8
7FFFF8
7FFFF8
7FFFF8
7FFFF8
FFFFF8
FFFFF8
FFFFF8
FFFFC0
FFFC00
FFC000
700000
ENDCHAR
STARTCHAR 00EC
ENCODING 236
SWIDTH 324 0
DWIDTH 18 0
BBX 25 48 1 0
BITMAP
0007F000
0007F800
0007F800
0003F800
0001FC00
0001FC00
0000FC00
00007C00
00006000
00000000
00000000
000FFF80
001FFF00
001FFE00
000FFE00
001FFE00
001FFC00
003FFC00
003FFC00
003FF800
007FF800
007FF800
007FF000
00FFF000
00FFF000
00FFF000
01FFE000
01FFE000
01FFE000
01FFC000
03FFC000
03FFC000
03FFC000
07FFC000
07FF8000
07FF8000
07FF8000
0FFF8000
0FFF8000
0FFF8000
0FFF0000
1FFE0000
1FFE0000
1FFE0000
3FFE0000
3FFC0000
7FF00000
FC000000
ENDCHAR
STARTCHAR 00ED
ENCODING 237
SWIDTH 324 0
DWIDTH 18 0
BBX 29 48 1 0
BITMAP
000003F8
000007F8
00000FF0
00000FE0
00001FC0
00003F80
00007F00
00007E00
00000C00
00000000
00000000
000FFF80
001FFF00
001FFE00
000FFE00
001FFE00
001FFC00
003FFC00
003FFC00
003FF800
007FF800
007FF800
007FF000
00FFF000
00FFF000
00FFF000
01FFE000
01FFE000
01FFE000
01FFC000
03FFC000
03FFC000
03FFC000
07FFC000
07FF8000
07FF8000
07FF8000
0FFF8000
0FFF8000
0FFF8000
0FFF0000
1FFE0000
1FFE0000
1FFE0000
3FFE0000
3FFC0000
7FF00000
FC000000
ENDCHAR
STARTCHAR 00EE
ENCODING 238
SWIDTH 324 0
DWIDTH 18 0
BBX 28 48 1 0
BITMAP
00000E00
00007F00
0000FF80
0003FFC0
0007FFE0
000FFFF0
001FE7F0
001F83F0
00040180
00000000
00000000
000FFF80
001FFF00
001FFE00
000FFE00
001FFE00
001FFC00
003FFC00
003FFC00
003FF800
007FF800
007FF800
007FF000
00FFF000
00FFF000
00FFF000
01FFE000
01FFE000
01FFE000
01FFC000
03FFC000
03FFC000
03FFC000
07FFC000
07FF8000
07FF8000
07FF8000
0FFF8000
0FFF8000
0FFF8000
0FFF0000
1FFE0000
1FFE0000
1FFE0000
3FFE0000
3FFC0000
7FF00000
FC000000
ENDCHAR
STARTCHAR 00EF
ENCODING 239
SWIDTH 324 0
DWIDTH 18 0
BBX 28 45 1 0
BITMAP
000381E0
0007C3F0
000FC3F0
000FC7E0
000FC7C0
00078180
00000000
00000000
000FFF80
001FFF00
001FFE00
000FFE00
001FFE00
001FFC00
003FFC00
003FFC00
003FF800
007FF800
007FF800
007FF000
00FFF000
00FFF000
00FFF000
01FFE000
01FFE000
01FFE000
01FFC000
03FFC000
03FFC000
03FFC000
07FFC000
07FF8000
07FF8000
07FF8000
0FFF8000
0FFF8000
0FFF8000
0FFF0000
1FFE0000
1FFE0000
1FFE0000
3FFE0000
3FFC0000
7FF00000
FC000000
ENDCHAR
STARTCHAR 00F0
ENCODING 240
SWIDTH 486 0
DWIDTH 27 0
BBX 27 38 4 0
BITMAP
007F8000
01FFE000
03FFFC00
03FFFE00
03FFFF00
07FFFF80
07FFFF80
07FFFFC0
07FFFFC0
07FFFFE0
07FF7FE0
0FFE1FE0
0FFECFE0
0FFFCFE0
3FFFCFE0
7FFFCFE0
7FFF8FE0
7FFF9FE0
FFFFBFC0
FFFF3FC0
FFF87F80
FFF8FF00
0FFBFF00
0FFFFE00
0FFFFC00
0FFFFC00
0FFFF800
0FFFF000
0FFFE000
0FFFC000
0FFFC000
0FFF8000
0FFE0000
0FFC0000
0FF00000
0FC00000
0F000000
08000000
ENDCHAR
STARTCHAR 00F1
ENCODING 241
SWIDTH 558 0
DWIDTH 31 0
BBX 37 47 1 0
BITMAP
000007C3E0
00000FE7E0
00001FFFE0
00003FFFC0
00003FFFC0
00003FFF80
00003C7E00
00007C0C00
0000000000
0000000000
0007E003F0
001FFC0FF8
001FFC3FF8
003FFC3FF8
003FFC3FF0
003FF87FF0
007FF87FF0
007FF87FE0
00FFF87FE0
00FFF8FFE0
00FFF8FFC0
01FFF8FFC0
01FFF8FFC0
01FFF9FF80
03FFF9FF80
03FFF9FF80
03FFFDFF00
07FFFDFF00
07FFFFFF00
07FFFFFF00
07FFFFFE00
0FFEFFFE00
0FFEFFFE00
0FFEFFFC00
0FFCFFFC00
1FFCFFFC00
1FFCFFFC00
1FFC7FF800
3FF87FF800
3FF87FF800
3FF87FF800
3FF87FF000
7FF07FF000
7FF07FF000
7FF07FF000
FFC07FC000
7000000000
ENDCHAR
STARTCHAR 00F2
ENCODING 242
SWIDTH 522 0
DWIDTH 29 0
BBX 29 48 4 0
BITMAP
00FE0000
01FE0000
00FE0000
007F0000
007F0000
003F0000
001F8000
001F8000
000C0000
00038000
0007E000
000FF800
001FFC00
003FFF00
007FFF80
00FFFFC0
00FFFFC0
01FFFFE0
03FFFFE0
03FFFFF0
07FFFFF0
0FFFFFF0
0FFFFFF0
1FFFFFF8
1FFC3FF8
3FF81FF8
3FF01FF8
7FF01FF8
7FE03FF8
7FE03FF8
7FE03FF8
7FE07FF8
7FF0FFF0
FFF9FFF0
FFFFFFE0
FFFFFFE0
7FFFFFE0
7FFFFFC0
7FFFFFC0
7FFFFF80
7FFFFF80
7FFFFF00
3FFFFF00
3FFFFE00
1FFFFC00
0FFFF800
07FFE000
00FF8000
ENDCHAR
STARTCHAR 00F3
ENCODING 243
SWIDTH 522 0
DWIDTH 29 0
BBX 29 48 4 0
BITMAP
00001FC0
00003FC0
00007F80
0000FF00
0001FE00
0001F800
0003F000
0003E000
0000C000
00038000
0007E000
000FF800
001FFC00
003FFF00
007FFF80
00FFFFC0
00FFFFC0
01FFFFE0
03FFFFE0
03FFFFF0
07FFFFF0
0FFFFFF0
0FFFFFF0
1FFFFFF8
1FFC3FF8
3FF81FF8
3FF01FF8
7FF01FF8
7FE03FF8
7FE03FF8
7FE03FF8
7FE07FF8
7FF0FFF0
FFF9FFF0
FFFFFFE0
FFFFFFE0
7FFFFFE0
7FFFFFC0
7FFFFFC0
7FFFFF80
7FFFFF80
7FFFFF00
3FFFFF00
3FFFFE00
1FFFFC00
0FFFF800
07FFE000
00FF8000
ENDCHAR
STARTCHAR 00F4
ENCODING 244
SWIDTH 522 0
DWIDTH 29 0
BBX 29 48 4 0
BITMAP
0001E000
0007F000
000FFC00
003FFC00
007FFE00
00FEFF00
01FC7F00
00F83E00
00000000
00038000
0007E000
000FF800
001FFC00
003FFF00
007FFF80
00FFFFC0
00FFFFC0
01FFFFE0
03FFFFE0
03FFFFF0
07FFFFF0
0FFFFFF0
0FFFFFF0
1FFFFFF8
1FFC3FF8
3FF81FF8
3FF01FF8
7FF01FF8
7FE03FF8
7FE03FF8
7FE03FF8
7FE07FF8
7FF0FFF0
FFF9FFF0
FFFFFFE0
FFFFFFE0
7FFFFFE0
7FFFFFC0
7FFFFFC0
7FFFFF80
7FFFFF80
7FFFFF00
3FFFFF00
3FFFFE00
1FFFFC00
0FFFF800
07FFE000
00FF8000
ENDCHAR
STARTCHAR 00F5
ENCODING 245
SWIDTH 522 0
DWIDTH 29 0
BBX 29 48 4 0
BITMAP
00001F00
003E1F00
007FBF00
00FFFF00
00FFFE00
00FFFC00
01FFF800
01F1F000
01F00000
00038000
0007E000
000FF800
001FFC00
003FFF00
007FFF80
00FFFFC0
00FFFFC0
01FFFFE0
03FFFFE0
03FFFFF0
07FFFFF0
0FFFFFF0
0FFFFFF0
1FFFFFF8
1FFC3FF8
3FF81FF8
3FF01FF8
7FF01FF8
7FE03FF8
7FE03FF8
7FE03FF8
7FE07FF8
7FF0FFF0
FFF9FFF0
FFFFFFE0
FFFFFFE0
7FFFFFE0
7FFFFFC0
7FFFFFC0
7FFFFF80
7FFFFF80
7FFFFF00
3FFFFF00
3FFFFE00
1FFFFC00
0FFFF800
07FFE000
00FF8000
ENDCHAR
STARTCHAR 00F6
ENCODING 246
SWIDTH 522 0
DWIDTH 29 0
BBX 29 45 4 0
BITMAP
00381E00
007C3F00
00FC7E00
00FC7E00
00F87C00
00701800
00038000
0007E000
000FF800
001FFC00
003FFF00
007FFF80
00FFFFC0
00FFFFC0
01FFFFE0
03FFFFE0
03FFFFF0
07FFFFF0
0FFFFFF0
0FFFFFF0
1FFFFFF8
1FFC3FF8
3FF81FF8
3FF01FF8
7FF01FF8
7FE03FF8
7FE03FF8
7FE03FF8
7FE07FF8
7FF0FFF0
FFF9FFF0
FFFFFFE0
FFFFFFE0
7FFFFFE0
7FFFFFC0
7FFFFFC0
7FFFFF80
7FFFFF80
7FFFFF00
3FFFFF00
3FFFFE00
1FFFFC00
0FFFF800
07FFE000
00FF8000
ENDCHAR
STARTCHAR 00F7
ENCODING 247
SWIDTH 468 0
DWIDTH 26 0
BBX 26 29 4 5
BITMAP
0003E000
0007F000
000FF000
001FF000
001FF000
001FF000
001FE000
000FC000
00038000
00000000
00000000
3FFFFFC0
3FFFFFC0
7FFFFFC0
7FFFFFC0
7FFFFFC0
7FFFFFC0
FFFFC000
00000000
00000000
003C0000
00FE0000
00FF0000
01FF0000
01FF0000
01FE0000
01FE0000
01FC0000
00F80000
ENDCHAR
STARTCHAR 00F8
ENCODING 248
SWIDTH 522 0
DWIDTH 29 0
BBX 38 40 0 -1
BITMAP
00003807FC
00007E07FC
0000FF8FF8
0001FFDFF0
0003FFFFE0
0007FFFFE0
000FFFFFC0
000FFFFF80
001FFFFF00
003FFFFE00
003FFFFE00
007FFFFF00
00FFFFFF00
00FFFFFF00
01FFFFFF80
01FF3FFF80
03FE7FFF80
03FCFFFF80
07F9FEFF80
07F9FEFF80
07F3FDFF80
07F7F9FF80
07FFF1FF80
07FFE3FF00
0FFFC7FF00
0FFFDFFE00
0FFFFFFE00
0FFFFFFE00
07FFFFFC00
07FFFFFC00
07FFFFF800
07FFFFF800
07FFFFF000
0FFFFFF000
1FFFFFE000
3FFFFFC000
7FFFFF8000
FF3FFE0000
9E0FF80000
0C00000000
ENDCHAR
STARTCHAR 00F9
ENCODING 249
SWIDTH 540 0
DWIDTH 30 0
BBX 33 47 4 1
BITMAP
0003F80000
0003FC0000
0003FC0000
0001FC0000
0000FE0000
0000FE0000
00007E0000
00003E0000
0000300000
0000000000
0078004000
00FF80FF80
00FF00FF80
01FF00FF80
01FE00FF80
03FE00FF00
03FC00FF00
07FC01FF00
07FC01FE00
0FF801FE00
0FF803FE00
0FF803FE00
1FF803FE00
1FF007FC00
3FF007FC00
3FF007FC00
3FF00FFC00
7FF00FFC00
7FF01FFC00
7FF01FFC00
7FF81FF800
7FFE3FF800
7FFFFFF000
FFFFFFE000
FFFFFFE000
FFFFFFC000
FFFFFFC000
FFFFFF8000
7FFFFF8000
7FFFFF0000
7FFFFE0000
3FFFFC0000
3FFFF80000
3FFFF00000
1FFFE00000
07FFC00000
01FF000000
ENDCHAR
STARTCHAR 00FA
ENCODING 250
SWIDTH 540 0
DWIDTH 30 0
BBX 33 47 4 1
BITMAP
0000007F00
000000FF00
000001FE00
000003FC00
000007F000
000007E000
00000FC000
00000F8000
0000030000
0000000000
0078004000
00FF80FF80
00FF00FF80
01FF00FF80
01FE00FF80
03FE00FF00
03FC00FF00
07FC01FF00
07FC01FE00
0FF801FE00
0FF803FE00
0FF803FE00
1FF803FE00
1FF007FC00
3FF007FC00
3FF007FC00
3FF00FFC00
7FF00FFC00
7FF01FFC00
7FF01FFC00
7FF81FF800
7FFE3FF800
7FFFFFF000
FFFFFFE000
FFFFFFE000
FFFFFFC000
FFFFFFC000
FFFFFF8000
7FFFFF8000
7FFFFF0000
7FFFFE0000
3FFFFC0000
3FFFF80000
3FFFF00000
1FFFE00000
07FFC00000
01FF000000
ENDCHAR
STARTCHAR 00FB
ENCODING 251
SWIDTH 540 0
DWIDTH 30 0
BBX 33 47 4 1
BITMAP
0000038000
00000FC000
00003FE000
00007FF000
0000FFF800
0003FFFC00
0003F8FC00
0003F0FC00
0001002000
0000000000
0078004000
00FF80FF80
00FF00FF80
01FF00FF80
01FE00FF80
03FE00FF00
03FC00FF00
07FC01FF00
07FC01FE00
0FF801FE00
0FF803FE00
0FF803FE00
1FF803FE00
1FF007FC00
3FF007FC00
3FF007FC00
3FF00FFC00
7FF00FFC00
7FF01FFC00
7FF01FFC00
7FF81FF800
7FFE3FF800
7FFFFFF000
FFFFFFE000
FFFFFFE000
FFFFFFC000
FFFFFFC000
FFFFFF8000
7FFFFF8000
7FFFFF0000
7FFFFE0000
3FFFFC0000
3FFFF80000
3FFFF00000
1FFFE00000
07FFC00000
01FF000000
ENDCHAR
STARTCHAR 00FC
ENCODING 252
SWIDTH 540 0
DWIDTH 30 0
BBX 33 44 4 1
BITMAP
0000F03800
0001F8FC00
0001F8FC00
0001F0FC00
0001F0F800
0000C0F000
0000000000
0078004000
00FF80FF80
00FF00FF80
01FF00FF80
01FE00FF80
03FE00FF00
03FC00FF00
07FC01FF00
07FC01FE00
0FF801FE00
0FF803FE00
0FF803FE00
1FF803FE00
1FF007FC00
3FF007FC00
3FF007FC00
3FF00FFC00
7FF00FFC00
7FF01FFC00
7FF01FFC00
7FF81FF800
7FFE3FF800
7FFFFFF000
FFFFFFE000
FFFFFFE000
FFFFFFC000
FFFFFFC000
FFFFFF8000
7FFFFF8000
7FFFFF0000
7FFFFE0000
3FFFFC0000
3FFFF80000
3FFFF00000
1FFFE00000
07FFC00000
01FF000000
ENDCHAR
STARTCHAR 00FD
ENCODING 253
SWIDTH 612 0
DWIDTH 34 0
BBX 33 48 8 0
BITMAP
000007F000
00000FF000
00000FE000
00001FC000
00003F8000
00007F0000
00007E0000
0000FC0000
0000180000
0000000000
0000007F80
008001FF80
07C001FF00
7FC003FE00
FFE003FE00
FFE007FC00
FFE00FF800
7FE00FF800
7FF01FF000
7FF03FE000
3FF07FC000
3FF07FC000
3FF8FF8000
3FF9FF0000
1FFBFF0000
1FFBFE0000
1FFFFC0000
0FFFFC0000
0FFFF80000
0FFFF00000
0FFFF00000
07FFE00000
07FFC00000
07FFC00000
03FF800000
03FF000000
03FF000000
01FF000000
01FE000000
01FE000000
03FE000000
03FE000000
03FE000000
03FE000000
03FE000000
07FE000000
07FC000000
07F0000000
ENDCHAR
STARTCHAR 00FE
ENCODING 254
SWIDTH 504 0
DWIDTH 28 0
BBX 28 38 3 0
BITMAP
03FE0000
03FE0000
03FE0000
07FE0000
07FE0000
07FFE000
07FFFE00
07FFFF80
07FFFFC0
0FFFFFC0
0FFFFFE0
0FFFFFE0
0FFFFFE0
0FF83FE0
0FF80FE0
1FF80FF0
1FF80FF0
1FF80FF0
1FF80FE0
1FF81FE0
1FF81FE0
1FF03FE0
1FF07FE0
3FF8FFE0
3FFFFFE0
3FFFFFC0
3FFFFF80
3FFFFF00
7FFFFE00
7FFFF800
7FFF8000
7FF00000
7FF00000
7FF00000
FFE00000
FFE00000
FFE00000
FFC00000
ENDCHAR
STARTCHAR 00FF
ENCODING 255
SWIDTH 612 0
DWIDTH 34 0
BBX 33 45 8 0
BITMAP
0007078000
001F8FC000
001F8FC000
003F0FC000
003F0F8000
001E070000
0000000000
0000007F80
008001FF80
07C001FF00
7FC003FE00
FFE003FE00
FFE007FC00
FFE00FF800
7FE00FF800
7FF01FF000
7FF03FE000
3FF07FC000
3FF07FC000
3FF8FF8000
3FF9FF0000
1FFBFF0000
1FFBFE0000
1FFFFC0000
0FFFFC0000
0FFFF80000
0FFFF00000
0FFFF00000
07FFE00000
07FFC00000
07FFC00000
03FF800000
03FF000000
03FF000000
01FF000000
01FE000000
01FE000000
03FE000000
03FE000000
03FE000000
03FE000000
03FE000000
07FE000000
07FC000000
07F0000000
ENDCHAR
STARTCHAR 0100
ENCODING 256
SWIDTH 630 0
DWIDTH 35 0
BBX 35 46 1 -1
BITMAP
00000FFFE0
00001FFFE0
00001FFFE0
00001FFFE0
00003FFFE0
0000080000
0000000000
0000001000
000001F000
000003F800
000003F800
000007F800
00000FF800
00000FF800
00001FF800
00001FF800
00003FF800
00003FF800
00007FF800
0000FFF800
0000FFF800
0001FFF800
0001FFFC00
0003FFFC00
0007FFFC00
0007FFFC00
000FFFFC00
001FDFFC00
001F8FFC00
003F0FFC00
007E0FFC00
007C0FFC00
00FC0FFE00
01FFFFFE00
01FFFFFE00
03FFFFFE00
07FFFFFE00
07FF9FFE00
0FFC1FFF00
1FF01FFF00
1FF01FFF00
3FE01FFF00
3FE01FFF80
7FE01FFF80
FFE00FFF80
FF000C0000
ENDCHAR
STARTCHAR 0101
ENCODING 257
SWIDTH 630 0
DWIDTH 35 0
BBX 35 46 1 -1
BITMAP
00000FFFE0
00001FFFE0
00001FFFE0
00001FFFE0
00003FFFE0
0000080000
0000000000
0000001000
000001F000
000003F800
000003F800
000007F800
00000FF800
00000FF800
00001FF800
00001FF800
00003FF800
00003FF800
00007FF800
0000FFF800
0000FFF800
0001FFF800
0001FFFC00
0003FFFC00
0007FFFC00
0007FFFC00
000FFFFC00
001FDFFC00
001F8FFC00
003F0FFC00
007E0FFC00
007C0FFC00
00FC0FFE00
01FFFFFE00
01FFFFFE00
03FFFFFE00
07FFFFFE00
07FF9FFE00
0FFC1FFF00
1FF01FFF00
1FF01FFF00
3FE01FFF00
3FE01FFF80
7FE01FFF80
FFE00FFF80
FF000C0000
ENDCHAR
STARTCHAR 0102
ENCODING 258
SWIDTH 630 0
DWIDTH 35 0
BBX 36 49 1 -1
BITMAP
00001F01F0
00001F03F0
00001F07E0
00001FFFE0
00000FFFC0
00000FFF80
000007FF00
000003FC00
000001F000
0000000000
0000001000
000001F000
000003F800
000003F800
000007F800
00000FF800
00000FF800
00001FF800
00001FF800
00003FF800
00003FF800
00007FF800
0000FFF800
0000FFF800
0001FFF800
0001FFFC00
0003FFFC00
0007FFFC00
0007FFFC00
000FFFFC00
001FDFFC00
001F8FFC00
003F0FFC00
007E0FFC00
007C0FFC00
00FC0FFE00
01FFFFFE00
01FFFFFE00
03FFFFFE00
07FFFFFE00
07FF9FFE00
0FFC1FFF00
1FF01FFF00
1FF01FFF00
3FE01FFF00
3FE01FFF80
7FE01FFF80
FFE00FFF80
FF000C0000
ENDCHAR
STARTCHAR 0103
ENCODING 259
SWIDTH 630 0
DWIDTH 35 0
BBX 36 49 1 -1
BITMAP
00001F01F0
00001F03F0
00001F07E0
00001FFFE0
00000FFFC0
00000FFF80
000007FF00
000003FC00
000001F000
0000000000
0000001000
000001F000
000003F800
000003F800
000007F800
00000FF800
00000FF800
00001FF800
00001FF800
00003FF800
00003FF800
00007FF800
0000FFF800
0000FFF800
0001FFF800
0001FFFC00
0003FFFC00
0007FFFC00
0007FFFC00
000FFFFC00
001FDFFC00
001F8FFC00
003F0FFC00
007E0FFC00
007C0FFC00
00FC0FFE00
01FFFFFE00
01FFFFFE00
03FFFFFE00
07FFFFFE00
07FF9FFE00
0FFC1FFF00
1FF01FFF00
1FF01FFF00
3FE01FFF00
3FE01FFF80
7FE01FFF80
FFE00FFF80
FF000C0000
ENDCHAR
STARTCHAR 0104
ENCODING 260
SWIDTH 630 0
DWIDTH 35 0
BBX 33 47 1 -9
BITMAP
0000001000
000001F000
000003F800
000003F800
000007F800
00000FF800
00000FF800
00001FF800
00001FF800
00003FF800
00003FF800
00007FF800
0000FFF800
0000FFF800
0001FFF800
0001FFFC00
0003FFFC00
0007FFFC00
0007FFFC00
000FFFFC00
001FDFFC00
001F8FFC00
003F0FFC00
007E0FFC00
007C0FFC00
00FC0FFE00
01FFFFFE00
01FFFFFE00
03FFFFFE00
07FFFFFE00
07FF9FFE00
0FFC1FFF00
1FF01FFF00
1FF01FFF00
3FE01FFF00
3FE01FFF80
7FE01FFF80
FFE01FFF80
FF003E0000
00007C0000
00007C0000
0000F80000
0001F81C00
0001FFFC00
0001FFFC00
0000FFF800
00007FF800
ENDCHAR
STARTCHAR 0105
ENCODING 261
SWIDTH 630 0
DWIDTH 35 0
BBX 33 47 1 -9
BITMAP
0000001000
000001F000
000003F800
000003F800
000007F800
00000FF800
00000FF800
00001FF800
00001FF800
00003FF800
00003FF800
00007FF800
0000FFF800
0000FFF800
0001FFF800
0001FFFC00
0003FFFC00
0007FFFC00
0007FFFC00
000FFFFC00
001FDFFC00
001F8FFC00
003F0FFC00
007E0FFC00
007C0FFC00
00FC0FFE00
01FFFFFE00
01FFFFFE00
03FFFFFE00
07FFFFFE00
07FF9FFE00
0FFC1FFF00
1FF01FFF00
1FF01FFF00
3FE01FFF00
3FE01FFF80
7FE01FFF80
FFE01FFF80
FF003E0000
00007C0000
00007C0000
0000F80000
0001F81C00
0001FFFC00
0001FFFC00
0000FFF800
00007FF800
ENDCHAR
STARTCHAR 0106
ENCODING 262
SWIDTH 486 0
DWIDTH 27 0
BBX 32 47 4 0
BITMAP
000000FF
000000FF
000001FC
000003F8
000007F0
000007E0
00000FC0
00001F80
00000300
00000000
00003E00
0001FFC0
000FFFE0
003FFFF0
007FFFF8
01FFFFF8
03FFFFF8
07FFFFF8
07FFFFF0
0FFFFFF0
0FFFFFE0
1FFFC000
1FFF0000
3FFC0000
3FFC0000
3FF80000
7FF80000
7FF00000
7FF00000
7FF00000
7FF80000
FFFC0F80
FFFFFF80
FFFFFF80
FFFFFF80
FFFFFF80
FFFFFF00
7FFFFF00
7FFFFF00
7FFFFF00
7FFFFF00
7FFFFE00
3FFFFC00
3FFFF800
3FFFF000
07FFC000
01FF0000
ENDCHAR
STARTCHAR 0107
ENCODING 263
SWIDTH 486 0
DWIDTH 27 0
BBX 32 47 4 0
BITMAP
000000FF
000000FF
000001FC
000003F8
000007F0
000007E0
00000FC0
00001F80
00000300
00000000
00003E00
0001FFC0
000FFFE0
003FFFF0
007FFFF8
01FFFFF8
03FFFFF8
07FFFFF8
07FFFFF0
0FFFFFF0
0FFFFFE0
1FFFC000
1FFF0000
3FFC0000
3FFC0000
3FF80000
7FF80000
7FF00000
7FF00000
7FF00000
7FF80000
FFFC0F80
FFFFFF80
FFFFFF80
FFFFFF80
FFFFFF80
FFFFFF00
7FFFFF00
7FFFFF00
7FFFFF00
7FFFFF00
7FFFFE00
3FFFFC00
3FFFF800
3FFFF000
07FFC000
01FF0000
ENDCHAR
STARTCHAR 0108
ENCODING 264
SWIDTH 486 0
DWIDTH 27 0
BBX 30 47 4 0
BITMAP
00000780
00001FC0
00003FE0
0000FFF0
0001FFF8
0003FFFC
0007F1FC
0007E0F8
00010060
00000000
00003E00
0001FFC0
000FFFE0
003FFFF0
007FFFF8
01FFFFF8
03FFFFF8
07FFFFF8
07FFFFF0
0FFFFFF0
0FFFFFE0
1FFFC000
1FFF0000
3FFC0000
3FFC0000
3FF80000
7FF80000
7FF00000
7FF00000
7FF00000
7FF80000
FFFC0F80
FFFFFF80
FFFFFF80
FFFFFF80
FFFFFF80
FFFFFF00
7FFFFF00
7FFFFF00
7FFFFF00
7FFFFF00
7FFFFE00
3FFFFC00
3FFFF800
3FFFF000
07FFC000
01FF0000
ENDCHAR
STARTCHAR 0109
ENCODING 265
SWIDTH 486 0
DWIDTH 27 0
BBX 30 47 4 0
BITMAP
00000780
00001FC0
00003FE0
0000FFF0
0001FFF8
0003FFFC
0007F1FC
0007E0F8
00010060
00000000
00003E00
0001FFC0
000FFFE0
003FFFF0
007FFFF8
01FFFFF8
03FFFFF8
07FFFFF8
07FFFFF0
0FFFFFF0
0FFFFFE0
1FFFC000
1FFF0000
3FFC0000
3FFC0000
3FF80000
7FF80000
7FF00000
7FF00000
7FF00000
7FF80000
FFFC0F80
FFFFFF80
FFFFFF80
FFFFFF80
FFFFFF80
FFFFFF00
7FFFFF00
7FFFFF00
7FFFFF00
7FFFFF00
7FFFFE00
3FFFFC00
3FFFF800
3FFFF000
07FFC000
01FF0000
ENDCHAR
STARTCHAR 010A
ENCODING 266
SWIDTH 486 0
DWIDTH 27 0
BBX 29 44 4 0
BITMAP
00000E00
00001F00
00003F00
00003F00
00003E00
00001C00
00000000
00003E00
0001FFC0
000FFFE0
003FFFF0
007FFFF8
01FFFFF8
03FFFFF8
07FFFFF8
07FFFFF0
0FFFFFF0
0FFFFFE0
1FFFC000
1FFF0000
3FFC0000
3FFC0000
3FF80000
7FF80000
7FF00000
7FF00000
7FF00000
7FF80000
FFFC0F80
FFFFFF80
FFFFFF80
FFFFFF80
FFFFFF80
FFFFFF00
7FFFFF00
7FFFFF00
7FFFFF00
7FFFFF00
7FFFFE00
3FFFFC00
3FFFF800
3FFFF000
07FFC000
01FF0000
ENDCHAR
STARTCHAR 010B
ENCODING 267
SWIDTH 486 0
DWIDTH 27 0
BBX 29 44 4 0
BITMAP
00000E00
00001F00
00003F00
00003F00
00003E00
00001C00
00000000
00003E00
0001FFC0
000FFFE0
003FFFF0
007FFFF8
01FFFFF8
03FFFFF8
07FFFFF8
07FFFFF0
0FFFFFF0
0FFFFFE0
1FFFC000
1FFF0000
3FFC0000
3FFC0000
3FF80000
7FF80000
7FF00000
7FF00000
7FF00000
7FF80000
FFFC0F80
FFFFFF80
FFFFFF80
FFFFFF80
FFFFFF80
FFFFFF00
7FFFFF00
7FFFFF00
7FFFFF00
7FFFFF00
7FFFFE00
3FFFFC00
3FFFF800
3FFFF000
07FFC000
01FF0000
ENDCHAR
STARTCHAR 010C
ENCODING 268
SWIDTH 486 0
DWIDTH 27 0
BBX 31 47 4 0
BITMAP
0001E03C
0003F0FE
0003F9FE
0003FFFC
0001FFF0
0000FFE0
00007FC0
00003F00
00001C00
00000000
00003E00
0001FFC0
000FFFE0
003FFFF0
007FFFF8
01FFFFF8
03FFFFF8
07FFFFF8
07FFFFF0
0FFFFFF0
0FFFFFE0
1FFFC000
1FFF0000
3FFC0000
3FFC0000
3FF80000
7FF80000
7FF00000
7FF00000
7FF00000
7FF80000
FFFC0F80
FFFFFF80
FFFFFF80
FFFFFF80
FFFFFF80
FFFFFF00
7FFFFF00
7FFFFF00
7FFFFF00
7FFFFF00
7FFFFE00
3FFFFC00
3FFFF800
3FFFF000
07FFC000
01FF0000
ENDCHAR
STARTCHAR 010D
ENCODING 269
SWIDTH 486 0
DWIDTH 27 0
BBX 31 47 4 0
BITMAP
0001E03C
0003F0FE
0003F9FE
0003FFFC
0001FFF0
0000FFE0
00007FC0
00003F00
00001C00
00000000
00003E00
0001FFC0
000FFFE0
003FFFF0
007FFFF8
01FFFFF8
03FFFFF8
07FFFFF8
07FFFFF0
0FFFFFF0
0FFFFFE0
1FFFC000
1FFF0000
3FFC0000
3FFC0000
3FF80000
7FF80000
7FF00000
7FF00000
7FF00000
7FF80000
FFFC0F80
FFFFFF80
FFFFFF80
FFFFFF80
FFFFFF80
FFFFFF00
7FFFFF00
7FFFFF00
7FFFFF00
7FFFFF00
7FFFFE00
3FFFFC00
3FFFF800
3FFFF000
07FFC000
01FF0000
ENDCHAR
STARTCHAR 010E
ENCODING 270
SWIDTH 450 0
DWIDTH 25 0
BBX 24 49 6 0
BITMAP
000038
0080FC
07E3F8
07F7F0
07FFE0
03FFC0
01FF80
00FF00
007C00
000000
000000
07F800
1FFF00
3FFFC0
3FFFE0
3FFFF0
3FFFF8
3FFFF8
7FFFFC
7FFFFC
7FFFFE
7FF7FE
7FE1FE
7FE07F
7FC07F
FFC0FF
FFC0FF
FFC0FE
FFC1FE
FFC1FE
FFC3FC
FF87F8
FF8FF8
FFDFF0
FFFFE0
FFFFE0
FFFFC0
FFFF80
FFFF00
FFFF00
FFFE00
FFFC00
FFF800
FFF000
FFC000
FF0000
FC0000
F00000
800000
ENDCHAR
STARTCHAR 010F
ENCODING 271
SWIDTH 450 0
DWIDTH 25 0
BBX 24 49 6 0
BITMAP
000038
0080FC
07E3F8
07F7F0
07FFE0
03FFC0
01FF80
00FF00
007C00
000000
000000
07F800
1FFF00
3FFFC0
3FFFE0
3FFFF0
3FFFF8
3FFFF8
7FFFFC
7FFFFC
7FFFFE
7FF7FE
7FE1FE
7FE07F
7FC07F
FFC0FF
FFC0FF
FFC0FE
FFC1FE
FFC1FE
FFC3FC
FF87F8
FF8FF8
FFDFF0
FFFFE0
FFFFE0
FFFFC0
FFFF80
FFFF00
FFFF00
FFFE00
FFFC00
FFF800
FFF000
FFC000
FF0000
FC0000
F00000
800000
ENDCHAR
STARTCHAR 0110
ENCODING 272
SWIDTH 486 0
DWIDTH 27 0
BBX 27 38 4 0
BITMAP
007F8000
01FFE000
03FFFC00
03FFFE00
03FFFF00
07FFFF80
07FFFF80
07FFFFC0
07FFFFC0
07FFFFE0
07FF7FE0
0FFE1FE0
0FFECFE0
0FFFCFE0
3FFFCFE0
7FFFCFE0
7FFF8FE0
7FFF9FE0
FFFFBFC0
FFFF3FC0
FFF87F80
FFF8FF00
0FFBFF00
0FFFFE00
0FFFFC00
0FFFFC00
0FFFF800
0FFFF000
0FFFE000
0FFFC000
0FFFC000
0FFF8000
0FFE0000
0FFC0000
0FF00000
0FC00000
0F000000
08000000
ENDCHAR
STARTCHAR 0111
ENCODING 273
SWIDTH 486 0
DWIDTH 27 0
BBX 27 38 4 0
BITMAP
007F8000
01FFE000
03FFFC00
03FFFE00
03FFFF00
07FFFF80
07FFFF80
07FFFFC0
07FFFFC0
07FFFFE0
07FF7FE0
0FFE1FE0
0FFECFE0
0FFFCFE0
3FFFCFE0
7FFFCFE0
7FFF8FE0
7FFF9FE0
FFFFBFC0
FFFF3FC0
FFF87F80
FFF8FF00
0FFBFF00
0FFFFE00
0FFFFC00
0FFFFC00
0FFFF800
0FFFF000
0FFFE000
0FFFC000
0FFFC000
0FFF8000
0FFE0000
0FFC0000
0FF00000
0FC00000
0F000000
08000000
ENDCHAR
STARTCHAR 0112
ENCODING 274
SWIDTH 486 0
DWIDTH 27 0
BBX 22 46 7 0
BITMAP
000010
017FE0
1FFFE0
1FFFE0
1FFFE0
1FF800
3E0000
00FF00
07FFFC
3FFFFC
7FFFF8
7FFFF8
3FFFF0
3FFFF0
3FFFF0
3FFFE0
3FFFE0
3FFFE0
3FFFC0
3FF000
3FE000
3FE000
3FE000
3FE7C0
3FFF80
7FFF80
7FFF80
7FFF80
7FFF80
7FC000
7FC000
7FE030
7FFFF0
7FFFF8
7FFFF8
7FFFF8
7FFFF8
7FFFF8
7FFFF8
FFFFF8
FFFFF8
FFFFF8
FFFFC0
FFFC00
FFC000
700000
ENDCHAR
STARTCHAR 0113
ENCODING 275
SWIDTH 486 0
DWIDTH 27 0
BBX 22 46 7 0
BITMAP
000010
017FE0
1FFFE0
1FFFE0
1FFFE0
1FF800
3E0000
00FF00
07FFFC
3FFFFC
7FFFF8
7FFFF8
3FFFF0
3FFFF0
3FFFF0
3FFFE0
3FFFE0
3FFFE0
3FFFC0
3FF000
3FE000
3FE000
3FE000
3FE7C0
3FFF80
7FFF80
7FFF80
7FFF80
7FFF80
7FC000
7FC000
7FE030
7FFFF0
7FFFF8
7FFFF8
7FFFF8
7FFFF8
7FFFF8
7FFFF8
FFFFF8
FFFFF8
FFFFF8
FFFFC0
FFFC00
FFC000
700000
ENDCHAR
STARTCHAR 0114
ENCODING 276
SWIDTH 486 0
DWIDTH 27 0
BBX 22 49 7 0
BITMAP
0000F8
0701F8
0F81F0
0FC7F0
0FFFE0
0FFFC0
07FF80
03FF00
01FC00
000000
00FF00
07FFFC
3FFFFC
7FFFF8
7FFFF8
3FFFF0
3FFFF0
3FFFF0
3FFFE0
3FFFE0
3FFFE0
3FFFC0
3FF000
3FE000
3FE000
3FE000
3FE7C0
3FFF80
7FFF80
7FFF80
7FFF80
7FFF80
7FC000
7FC000
7FE030
7FFFF0
7FFFF8
7FFFF8
7FFFF8
7FFFF8
7FFFF8
7FFFF8
FFFFF8
FFFFF8
FFFFF8
FFFFC0
FFFC00
FFC000
700000
ENDCHAR
STARTCHAR 0115
ENCODING 277
SWIDTH 486 0
DWIDTH 27 0
BBX 22 49 7 0
BITMAP
0000F8
0701F8
0F81F0
0FC7F0
0FFFE0
0FFFC0
07FF80
03FF00
01FC00
000000
00FF00
07FFFC
3FFFFC
7FFFF8
7FFFF8
3FFFF0
3FFFF0
3FFFF0
3FFFE0
3FFFE0
3FFFE0
3FFFC0
3FF000
3FE000
3FE000
3FE000
3FE7C0
3FFF80
7FFF80
7FFF80
7FFF80
7FFF80
7FC000
7FC000
7FE030
7FFFF0
7FFFF8
7FFFF8
7FFFF8
7FFFF8
7FFFF8
7FFFF8
FFFFF8
FFFFF8
FFFFF8
FFFFC0
FFFC00
FFC000
700000
ENDCHAR
STARTCHAR 0116
ENCODING 278
SWIDTH 486 0
DWIDTH 27 0
BBX 22 46 7 0
BITMAP
003800
007C00
00FC00
00FC00
00FC00
007800
000000
00FF00
07FFFC
3FFFFC
7FFFF8
7FFFF8
3FFFF0
3FFFF0
3FFFF0
3FFFE0
3FFFE0
3FFFE0
3FFFC0
3FF000
3FE000
3FE000
3FE000
3FE7C0
3FFF80
7FFF80
7FFF80
7FFF80
7FFF80
7FC000
7FC000
7FE030
7FFFF0
7FFFF8
7FFFF8
7FFFF8
7FFFF8
7FFFF8
7FFFF8
FFFFF8
FFFFF8
FFFFF8
FFFFC0
FFFC00
FFC000
700000
ENDCHAR
STARTCHAR 0117
ENCODING 279
SWIDTH 486 0
DWIDTH 27 0
BBX 22 46 7 0
BITMAP
003800
007C00
00FC00
00FC00
00FC00
007800
000000
00FF00
07FFFC
3FFFFC
7FFFF8
7FFFF8
3FFFF0
3FFFF0
3FFFF0
3FFFE0
3FFFE0
3FFFE0
3FFFC0
3FF000
3FE000
3FE000
3FE000
3FE7C0
3FFF80
7FFF80
7FFF80
7FFF80
7FFF80
7FC000
7FC000
7FE030
7FFFF0
7FFFF8
7FFFF8
7FFFF8
7FFFF8
7FFFF8
7FFFF8
FFFFF8
FFFFF8
FFFFF8
FFFFC0
FFFC00
FFC000
700000
ENDCHAR
STARTCHAR 0118
ENCODING 280
SWIDTH 486 0
DWIDTH 27 0
BBX 22 47 7 -8
BITMAP
00FF00
07FFFC
3FFFFC
7FFFF8
7FFFF8
3FFFF0
3FFFF0
3FFFF0
3FFFE0
3FFFE0
3FFFE0
3FFFC0
3FF000
3FE000
3FE000
3FE000
3FE7C0
3FFF80
7FFF80
7FFF80
7FFF80
7FFF80
7FC000
7FC000
7FE030
7FFFF0
7FFFF8
7FFFF8
7FFFF8
7FFFF8
7FFFF8
7FFFF8
FFFFF8
FFFFF8
FFFFF8
FFFFC0
FFFC00
FFF000
71E000
03C000
07C000
07C040
0FC3E0
0FFFE0
0FFFC0
0FFFC0
07FF00
ENDCHAR
STARTCHAR 0119
ENCODING 281
SWIDTH 486 0
DWIDTH 27 0
BBX 22 47 7 -8
BITMAP
00FF00
07FFFC
3FFFFC
7FFFF8
7FFFF8
3FFFF0
3FFFF0
3FFFF0
3FFFE0
3FFFE0
3FFFE0
3FFFC0
3FF000
3FE000
3FE000
3FE000
3FE7C0
3FFF80
7FFF80
7FFF80
7FFF80
7FFF80
7FC000
7FC000
7FE030
7FFFF0
7FFFF8
7FFFF8
7FFFF8
7FFFF8
7FFFF8
7FFFF8
FFFFF8
FFFFF8
FFFFF8
FFFFC0
FFFC00
FFF000
71E000
03C000
07C000
07C040
0FC3E0
0FFFE0
0FFFC0
0FFFC0
07FF00
ENDCHAR
STARTCHAR 011A
ENCODING 282
SWIDTH 486 0
DWIDTH 27 0
BBX 22 49 7 0
BITMAP
000070
0101F8
0FC7F0
0FEFE0
0FFFC0
07FF80
03FF00
01FE00
00F800
000000
00FF00
07FFFC
3FFFFC
7FFFF8
7FFFF8
3FFFF0
3FFFF0
3FFFF0
3FFFE0
3FFFE0
3FFFE0
3FFFC0
3FF000
3FE000
3FE000
3FE000
3FE7C0
3FFF80
7FFF80
7FFF80
7FFF80
7FFF80
7FC000
7FC000
7FE030
7FFFF0
7FFFF8
7FFFF8
7FFFF8
7FFFF8
7FFFF8
7FFFF8
FFFFF8
FFFFF8
FFFFF8
FFFFC0
FFFC00
FFC000
700000
ENDCHAR
STARTCHAR 011B
ENCODING 283
SWIDTH 486 0
DWIDTH 27 0
BBX 22 49 7 0
BITMAP
000070
0101F8
0FC7F0
0FEFE0
0FFFC0
07FF80
03FF00
01FE00
00F800
000000
00FF00
07FFFC
3FFFFC
7FFFF8
7FFFF8
3FFFF0
3FFFF0
3FFFF0
3FFFE0
3FFFE0
3FFFE0
3FFFC0
3FF000
3FE000
3FE000
3FE000
3FE7C0
3FFF80
7FFF80
7FFF80
7FFF80
7FFF80
7FC000
7FC000
7FE030
7FFFF0
7FFFF8
7FFFF8
7FFFF8
7FFFF8
7FFFF8
7FFFF8
FFFFF8
FFFFF8
FFFFF8
FFFFC0
FFFC00
FFC000
700000
ENDCHAR
STARTCHAR 011C
ENCODING 284
SWIDTH 504 0
DWIDTH 28 0
BBX 30 47 3 1
BITMAP
00000700
00001F80
00007FC0
0000FFE0
0001FFF0
0003FFF8
0007F1F8
0007E0F8
00020040
00000000
0000FF80
0001FFE0
0003FFF0
0007FFF8
000FFFFC
001FFFFC
003FFFFC
007FFFF8
00FFF7F0
00FF8000
01FE0000
01FC0000
03F80000
07F80000
07F00000
07F00000
0FE00FF8
0FE0FFF0
1FE0FFF0
1FC0FFF0
3FC0FFF0
3FC0FFE0
3FC0FFE0
7FC0FFE0
7FC1FFE0
7FE1FFC0
FFFFFFC0
FFFFFFC0
FFFFFFC0
FFFFFFC0
FFFFFF00
FFFFFE00
7FFFF800
7FFFE000
3FFF8000
1FFE0000
0FF00000
ENDCHAR
STARTCHAR 011D
ENCODING 285
SWIDTH 504 0
DWIDTH 28 0
BBX 30 47 3 1
BITMAP
00000700
00001F80
00007FC0
0000FFE0
0001FFF0
0003FFF8
0007F1F8
0007E0F8
00020040
00000000
0000FF80
0001FFE0
0003FFF0
0007FFF8
000FFFFC
001FFFFC
003FFFFC
007FFFF8
00FFF7F0
00FF8000
01FE0000
01FC0000
03F80000
07F80000
07F00000
07F00000
0FE00FF8
0FE0FFF0
1FE0FFF0
1FC0FFF0
3FC0FFF0
3FC0FFE0
3FC0FFE0
7FC0FFE0
7FC1FFE0
7FE1FFC0
FFFFFFC0
FFFFFFC0
FFFFFFC0
FFFFFFC0
FFFFFF00
FFFFFE00
7FFFF800
7FFFE000
3FFF8000
1FFE0000
0FF00000
ENDCHAR
STARTCHAR 011E
ENCODING 286
SWIDTH 504 0
DWIDTH 28 0
BBX 31 47 3 1
BITMAP
0003C03E
0003C07C
0003E0FC
0003FFF8
0003FFF8
0003FFF0
0001FFC0
0000FF80
00003C00
00000000
0000FF80
0001FFE0
0003FFF0
0007FFF8
000FFFFC
001FFFFC
003FFFFC
007FFFF8
00FFF7F0
00FF8000
01FE0000
01FC0000
03F80000
07F80000
07F00000
07F00000
0FE00FF8
0FE0FFF0
1FE0FFF0
1FC0FFF0
3FC0FFF0
3FC0FFE0
3FC0FFE0
7FC0FFE0
7FC1FFE0
7FE1FFC0
FFFFFFC0
FFFFFFC0
FFFFFFC0
FFFFFFC0
FFFFFF00
FFFFFE00
7FFFF800
7FFFE000
3FFF8000
1FFE0000
0FF00000
ENDCHAR
STARTCHAR 011F
ENCODING 287
SWIDTH 504 0
DWIDTH 28 0
BBX 31 47 3 1
BITMAP
0003C03E
0003C07C
0003E0FC
0003FFF8
0003FFF8
0003FFF0
0001FFC0
0000FF80
00003C00
00000000
0000FF80
0001FFE0
0003FFF0
0007FFF8
000FFFFC
001FFFFC
003FFFFC
007FFFF8
00FFF7F0
00FF8000
01FE0000
01FC0000
03F80000
07F80000
07F00000
07F00000
0FE00FF8
0FE0FFF0
1FE0FFF0
1FC0FFF0
3FC0FFF0
3FC0FFE0
3FC0FFE0
7FC0FFE0
7FC1FFE0
7FE1FFC0
FFFFFFC0
FFFFFFC0
FFFFFFC0
FFFFFFC0
FFFFFF00
FFFFFE00
7FFFF800
7FFFE000
3FFF8000
1FFE0000
0FF00000
ENDCHAR
STARTCHAR 0120
ENCODING 288
SWIDTH 504 0
DWIDTH 28 0
BBX 30 44 3 1
BITMAP
00000E00
00001F00
00003F00
00003E00
00007E00
00003C00
00000000
0000FF80
0001FFE0
0003FFF0
0007FFF8
000FFFFC
001FFFFC
003FFFFC
007FFFF8
00FFF7F0
00FF8000
01FE0000
01FC0000
03F80000
07F80000
07F00000
07F00000
0FE00FF8
0FE0FFF0
1FE0FFF0
1FC0FFF0
3FC0FFF0
3FC0FFE0
3FC0FFE0
7FC0FFE0
7FC1FFE0
7FE1FFC0
FFFFFFC0
FFFFFFC0
FFFFFFC0
FFFFFFC0
FFFFFF00
FFFFFE00
7FFFF800
7FFFE000
3FFF8000
1FFE0000
0FF00000
ENDCHAR
STARTCHAR 0121
ENCODING 289
SWIDTH 504 0
DWIDTH 28 0
BBX 30 44 3 1
BITMAP
00000E00
00001F00
00003F00
00003E00
00007E00
00003C00
00000000
0000FF80
0001FFE0
0003FFF0
0007FFF8
000FFFFC
001FFFFC
003FFFFC
007FFFF8
00FFF7F0
00FF8000
01FE0000
01FC0000
03F80000
07F80000
07F00000
07F00000
0FE00FF8
0FE0FFF0
1FE0FFF0
1FC0FFF0
3FC0FFF0
3FC0FFE0
3FC0FFE0
7FC0FFE0
7FC1FFE0
7FE1FFC0
FFFFFFC0
FFFFFFC0
FFFFFFC0
FFFFFFC0
FFFFFF00
FFFFFE00
7FFFF800
7FFFE000
3FFF8000
1FFE0000
0FF00000
ENDCHAR
STARTCHAR 0122
ENCODING 290
SWIDTH 504 0
DWIDTH 28 0
BBX 30 47 3 -9
BITMAP
0000FF80
0001FFE0
0003FFF0
0007FFF8
000FFFFC
001FFFFC
003FFFFC
007FFFF8
00FFF7F0
00FF8000
01FE0000
01FC0000
03F80000
07F80000
07F00000
07F00000
0FE00FF8
0FE0FFF0
1FE0FFF0
1FC0FFF0
3FC0FFF0
3FC0FFE0
3FC0FFE0
7FC0FFE0
7FC1FFE0
7FE1FFC0
FFFFFFC0
FFFFFFC0
FFFFFFC0
FFFFFFC0
FFFFFF00
FFFFFE00
7FFFF800
7FFFE000
3FFF8000
1FFE0000
0FF00000
00000000
00000000
0FE00000
0FE00000
1FE00000
1FE00000
1FC00000
3F800000
3F000000
1E000000
ENDCHAR
STARTCHAR 0123
ENCODING 291
SWIDTH 504 0
DWIDTH 28 0
BBX 30 47 3 -9
BITMAP
0000FF80
0001FFE0
0003FFF0
0007FFF8
000FFFFC
001FFFFC
003FFFFC
007FFFF8
00FFF7F0
00FF8000
01FE0000
01FC0000
03F80000
07F80000
07F00000
07F00000
0FE00FF8
0FE0FFF0
1FE0FFF0
1FC0FFF0
3FC0FFF0
3FC0FFE0
3FC0FFE0
7FC0FFE0
7FC1FFE0
7FE1FFC0
FFFFFFC0
FFFFFFC0
FFFFFFC0
FFFFFFC0
FFFFFF00
FFFFFE00
7FFFF800
7FFFE000
3FFF8000
1FFE0000
0FF00000
00000000
00000000
0FE00000
0FE00000
1FE00000
1FE00000
1FC00000
3F800000
3F000000
1E000000
ENDCHAR
STARTCHAR 0124
ENCODING 292
SWIDTH 558 0
DWIDTH 31 0
BBX 37 47 1 1
BITMAP
0000001E00
0000007F00
000000FF80
000003FFC0
000007FFE0
00000FFFF0
00001FC7F0
00001F83E0
0000040180
0000000000
00000C0000
0007FE0000
001FFE0FF8
003FFC1FF8
003FF81FF0
003FFC3FF0
003FFC3FF0
003FF83FF0
003FF87FE0
007FF07FE0
007FF07FE0
007FF0FFE0
007FF0FFC0
00FFF0FFC0
00FFF9FFC0
00FFFFFF80
01FFFFFF80
01FFFFFF80
01FFFFFF00
03FFFFFF00
03FFFFFF00
03FFFFFF00
07FFFFFF00
07FFFFFF00
07FFFFFF00
0FFF0FFE00
0FFF0FFE00
0FFF0FFE00
0FFF0FFC00
1FFE1FFC00
1FFE1FFC00
1FFE1FF800
3FFE3FF800
3FFC3FF800
3FFC3FF000
7FFC3FF000
FFF87C0000
ENDCHAR
STARTCHAR 0125
ENCODING 293
SWIDTH 558 0
DWIDTH 31 0
BBX 37 47 1 1
BITMAP
0000001E00
0000007F00
000000FF80
000003FFC0
000007FFE0
00000FFFF0
00001FC7F0
00001F83E0
0000040180
0000000000
00000C0000
0007FE0000
001FFE0FF8
003FFC1FF8
003FF81FF0
003FFC3FF0
003FFC3FF0
003FF83FF0
003FF87FE0
007FF07FE0
007FF07FE0
007FF0FFE0
007FF0FFC0
00FFF0FFC0
00FFF9FFC0
00FFFFFF80
01FFFFFF80
01FFFFFF80
01FFFFFF00
03FFFFFF00
03FFFFFF00
03FFFFFF00
07FFFFFF00
07FFFFFF00
07FFFFFF00
0FFF0FFE00
0FFF0FFE00
0FFF0FFE00
0FFF0FFC00
1FFE1FFC00
1FFE1FFC00
1FFE1FF800
3FFE3FF800
3FFC3FF800
3FFC3FF000
7FFC3FF000
FFF87C0000
ENDCHAR
STARTCHAR 0126
ENCODING 294
SWIDTH 576 0
DWIDTH 32 0
BBX 38 37 1 1
BITMAP
00003C0000
0007FE0000
001FFC0FF8
003FFC1FF8
003FFFFFFC
01FFFFFFFC
01FFFFFFFC
01FFFFFFF8
03FFFFFFF8
03FFFFFFF8
03FFFFFFF8
03FFFFFFE0
007FF0FFC0
00FFF0FFC0
00FFFBFFC0
00FFFFFF80
01FFFFFF80
01FFFFFF80
01FFFFFF00
03FFFFFF00
03FFFFFF00
03FFFFFF00
07FFFFFF00
07FFFFFF00
07FFFFFF00
0FFF0FFE00
0FFF0FFE00
0FFF0FFE00
0FFF0FFC00
1FFE1FFC00
1FFE1FFC00
1FFE1FF800
3FFE3FF800
3FFC3FF800
3FFC3FF000
7FFC3FF000
FFF87C0000
ENDCHAR
STARTCHAR 0127
ENCODING 295
SWIDTH 576 0
DWIDTH 32 0
BBX 38 37 1 1
BITMAP
00003C0000
0007FE0000
001FFC0FF8
003FFC1FF8
003FFFFFFC
01FFFFFFFC
01FFFFFFFC
01FFFFFFF8
03FFFFFFF8
03FFFFFFF8
03FFFFFFF8
03FFFFFFE0
007FF0FFC0
00FFF0FFC0
00FFFBFFC0
00FFFFFF80
01FFFFFF80
01FFFFFF80
01FFFFFF00
03FFFFFF00
03FFFFFF00
03FFFFFF00
07FFFFFF00
07FFFFFF00
07FFFFFF00
0FFF0FFE00
0FFF0FFE00
0FFF0FFE00
0FFF0FFC00
1FFE1FFC00
1FFE1FFC00
1FFE1FF800
3FFE3FF800
3FFC3FF800
3FFC3FF000
7FFC3FF000
FFF87C0000
ENDCHAR
STARTCHAR 0128
ENCODING 296
SWIDTH 324 0
DWIDTH 18 0
BBX 29 47 1 0
BITMAP
0001F1F8
0007F9F8
0007FFF0
000FFFF0
000FFFF0
000FFFC0
001F3F80
001F0700
00000000
00000000
000FFF80
001FFF00
001FFE00
000FFE00
001FFE00
001FFC00
003FFC00
003FFC00
003FF800
007FF800
007FF800
007FF000
00FFF000
00FFF000
00FFF000
01FFE000
01FFE000
01FFE000
01FFC000
03FFC000
03FFC000
03FFC000
07FFC000
07FF8000
07FF8000
07FF8000
0FFF8000
0FFF8000
0FFF8000
0FFF0000
1FFE0000
1FFE0000
1FFE0000
3FFE0000
3FFC0000
7FF00000
FC000000
ENDCHAR
STARTCHAR 0129
ENCODING 297
SWIDTH 324 0
DWIDTH 18 0
BBX 29 47 1 0
BITMAP
0001F1F8
0007F9F8
0007FFF0
000FFFF0
000FFFF0
000FFFC0
001F3F80
001F0700
00000000
00000000
000FFF80
001FFF00
001FFE00
000FFE00
001FFE00
001FFC00
003FFC00
003FFC00
003FF800
007FF800
007FF800
007FF000
00FFF000
00FFF000
00FFF000
01FFE000
01FFE000
01FFE000
01FFC000
03FFC000
03FFC000
03FFC000
07FFC000
07FF8000
07FF8000
07FF8000
0FFF8000
0FFF8000
0FFF8000
0FFF0000
1FFE0000
1FFE0000
1FFE0000
3FFE0000
3FFC0000
7FF00000
FC000000
ENDCHAR
STARTCHAR 012A
ENCODING 298
SWIDTH 324 0
DWIDTH 18 0
BBX 28 45 1 0
BITMAP
0007FFF0
000FFFF0
000FFFF0
000FFFF0
001FFFF0
00040000
00000000
00000000
000FFF80
001FFF00
001FFE00
000FFE00
001FFE00
001FFC00
003FFC00
003FFC00
003FF800
007FF800
007FF800
007FF000
00FFF000
00FFF000
00FFF000
01FFE000
01FFE000
01FFE000
01FFC000
03FFC000
03FFC000
03FFC000
07FFC000
07FF8000
07FF8000
07FF8000
0FFF8000
0FFF8000
0FFF8000
0FFF0000
1FFE0000
1FFE0000
1FFE0000
3FFE0000
3FFC0000
7FF00000
FC000000
ENDCHAR
STARTCHAR 012B
ENCODING 299
SWIDTH 324 0
DWIDTH 18 0
BBX 28 45 1 0
BITMAP
0007FFF0
000FFFF0
000FFFF0
000FFFF0
001FFFF0
00040000
00000000
00000000
000FFF80
001FFF00
001FFE00
000FFE00
001FFE00
001FFC00
003FFC00
003FFC00
003FF800
007FF800
007FF800
007FF000
00FFF000
00FFF000
00FFF000
01FFE000
01FFE000
01FFE000
01FFC000
03FFC000
03FFC000
03FFC000
07FFC000
07FF8000
07FF8000
07FF8000
0FFF8000
0FFF8000
0FFF8000
0FFF0000
1FFE0000
1FFE0000
1FFE0000
3FFE0000
3FFC0000
7FF00000
FC000000
ENDCHAR
STARTCHAR 012C
ENCODING 300
SWIDTH 324 0
DWIDTH 18 0
BBX 29 48 1 0
BITMAP
00078078
000780F8
0007C1F8
0007FFF0
0007FFE0
0007FFC0
0003FF80
0001FF00
00007800
00000000
00000000
000FFF80
001FFF00
001FFE00
000FFE00
001FFE00
001FFC00
003FFC00
003FFC00
003FF800
007FF800
007FF800
007FF000
00FFF000
00FFF000
00FFF000
01FFE000
01FFE000
01FFE000
01FFC000
03FFC000
03FFC000
03FFC000
07FFC000
07FF8000
07FF8000
07FF8000
0FFF8000
0FFF8000
0FFF8000
0FFF0000
1FFE0000
1FFE0000
1FFE0000
3FFE0000
3FFC0000
7FF00000
FC000000
ENDCHAR
STARTCHAR 012D
ENCODING 301
SWIDTH 324 0
DWIDTH 18 0
BBX 29 48 1 0
BITMAP
00078078
000780F8
0007C1F8
0007FFF0
0007FFE0
0007FFC0
0003FF80
0001FF00
00007800
00000000
00000000
000FFF80
001FFF00
001FFE00
000FFE00
001FFE00
001FFC00
003FFC00
003FFC00
003FF800
007FF800
007FF800
007FF000
00FFF000
00FFF000
00FFF000
01FFE000
01FFE000
01FFE000
01FFC000
03FFC000
03FFC000
03FFC000
07FFC000
07FF8000
07FF8000
07FF8000
0FFF8000
0FFF8000
0FFF8000
0FFF0000
1FFE0000
1FFE0000
1FFE0000
3FFE0000
3FFC0000
7FF00000
FC000000
ENDCHAR
STARTCHAR 012E
ENCODING 302
SWIDTH 324 0
DWIDTH 18 0
BBX 25 46 1 -8
BITMAP
000FFF80
001FFF00
001FFE00
000FFE00
001FFE00
001FFC00
003FFC00
003FFC00
003FF800
007FF800
007FF800
007FF000
00FFF000
00FFF000
00FFF000
01FFE000
01FFE000
01FFE000
01FFE000
03FFC000
03FFC000
03FFC000
07FFC000
07FF8000
07FF8000
07FF8000
0FFF8000
0FFF8000
0FFF8000
0FFF0000
1FFE0000
1FFE0000
1FFE0000
3FFE0000
3FFC0000
7FF00000
FF800000
0F000000
1F000000
3E000000
3E000000
7E060000
7FFF0000
7FFE0000
7FFE0000
3FFE0000
ENDCHAR
STARTCHAR 012F
ENCODING 303
SWIDTH 324 0
DWIDTH 18 0
BBX 25 46 1 -8
BITMAP
000FFF80
001FFF00
001FFE00
000FFE00
001FFE00
001FFC00
003FFC00
003FFC00
003FF800
007FF800
007FF800
007FF000
00FFF000
00FFF000
00FFF000
01FFE000
01FFE000
01FFE000
01FFE000
03FFC000
03FFC000
03FFC000
07FFC000
07FF8000
07FF8000
07FF8000
0FFF8000
0FFF8000
0FFF8000
0FFF0000
1FFE0000
1FFE0000
1FFE0000
3FFE0000
3FFC0000
7FF00000
FF800000
0F000000
1F000000
3E000000
3E000000
7E060000
7FFF0000
7FFE0000
7FFE0000
3FFE0000
ENDCHAR
STARTCHAR 0130
ENCODING 304
SWIDTH 324 0
DWIDTH 18 0
BBX 25 45 1 0
BITMAP
00003C00
00007E00
00007E00
00007E00
00007C00
00003800
00000000
00000000
000FFF80
001FFF00
001FFE00
000FFE00
001FFE00
001FFC00
003FFC00
003FFC00
003FF800
007FF800
007FF800
007FF000
00FFF000
00FFF000
00FFF000
01FFE000
01FFE000
01FFE000
01FFC000
03FFC000
03FFC000
03FFC000
07FFC000
07FF8000
07FF8000
07FF8000
0FFF8000
0FFF8000
0FFF8000
0FFF0000
1FFE0000
1FFE0000
1FFE0000
3FFE0000
3FFC0000
7FF00000
FC000000
ENDCHAR
STARTCHAR 0131
ENCODING 305
SWIDTH 324 0
DWIDTH 18 0
BBX 25 45 1 0
BITMAP
00003C00
00007E00
00007E00
00007E00
00007C00
00003800
00000000
00000000
000FFF80
001FFF00
001FFE00
000FFE00
001FFE00
001FFC00
003FFC00
003FFC00
003FF800
007FF800
007FF800
007FF000
00FFF000
00FFF000
00FFF000
01FFE000
01FFE000
01FFE000
01FFC000
03FFC000
03FFC000
03FFC000
07FFC000
07FF8000
07FF8000
07FF8000
0FFF8000
0FFF8000
0FFF8000
0FFF0000
1FFE0000
1FFE0000
1FFE0000
3FFE0000
3FFC0000
7FF00000
FC000000
ENDCHAR
STARTCHAR 0132
ENCODING 306
SWIDTH 594 0
DWIDTH 33 0
BBX 39 38 1 0
BITMAP
0000000004
001FF807FE
001FF807FE
001FF007FC
001FF00FFC
003FE00FFC
003FE01FFC
003FE01FFC
007FC01FFC
007FC03FF8
007FC03FF8
00FFC03FF8
00FF803FF8
00FF807FF8
01FF807FF8
01FF807FF8
01FF007FF0
01FF007FF0
03FF007FF0
03FF007FF0
03FE007FF0
07FE007FE0
07FE007FE0
07FE007FE0
07FC007FC0
0FFC0C7FC0
0FFCFC7FC0
0FFDFC7F80
0FFDFEFF80
0FFDFEFF00
1FFBFEFF00
1FF9FFFE00
1FF1FFFE00
3FF1FFFC00
3FF1FFF800
7FE0FFF000
7F807FC000
F8001F8000
ENDCHAR
STARTCHAR 0133
ENCODING 307
SWIDTH 594 0
DWIDTH 33 0
BBX 39 38 1 0
BITMAP
0000000004
001FF807FE
001FF807FE
001FF007FC
001FF00FFC
003FE00FFC
003FE01FFC
003FE01FFC
007FC01FFC
007FC03FF8
007FC03FF8
00FFC03FF8
00FF803FF8
00FF807FF8
01FF807FF8
01FF807FF8
01FF007FF0
01FF007FF0
03FF007FF0
03FF007FF0
03FE007FF0
07FE007FE0
07FE007FE0
07FE007FE0
07FC007FC0
0FFC0C7FC0
0FFCFC7FC0
0FFDFC7F80
0FFDFEFF80
0FFDFEFF00
1FFBFEFF00
1FF9FFFE00
1FF1FFFE00
3FF1FFFC00
3FF1FFF800
7FE0FFF000
7F807FC000
F8001F8000
ENDCHAR
STARTCHAR 0134
ENCODING 308
SWIDTH 450 0
DWIDTH 25 0
BBX 31 48 3 0
BITMAP
000003C0
00000FF0
00001FF8
00003FFC
00007FFE
0000FEFE
0001FC7E
0003F018
0001C000
00000000
00000030
00007FF0
0000FFF0
0000FFF0
0001FFF0
0001FFF0
0003FFF0
0003FFF0
0003FFE0
0007FFE0
0007FFE0
0007FFE0
0007FFE0
000FFFE0
000FFFE0
000FFFC0
000FFFC0
000FFFC0
000FFFC0
000FFFC0
000FFF80
000FFF80
000FFF80
000FFF80
000FFF00
030FFF00
7F8FFE00
FF8FFE00
FFCFFE00
FFDFFC00
FFDFF800
FFFFF800
FFFFF000
7FFFE000
7FFFC000
3FFF0000
1FFE0000
03FC0000
ENDCHAR
STARTCHAR 0135
ENCODING 309
SWIDTH 450 0
DWIDTH 25 0
BBX 31 48 3 0
BITMAP
000003C0
00000FF0
00001FF8
00003FFC
00007FFE
0000FEFE
0001FC7E
0003F018
0001C000
00000000
00000030
00007FF0
0000FFF0
0000FFF0
0001FFF0
0001FFF0
0003FFF0
0003FFF0
0003FFE0
0007FFE0
0007FFE0
0007FFE0
0007FFE0
000FFFE0
000FFFE0
000FFFC0
000FFFC0
000FFFC0
000FFFC0
000FFFC0
000FFF80
000FFF80
000FFF80
000FFF80
000FFF00
030FFF00
7F8FFE00
FF8FFE00
FFCFFE00
FFDFFC00
FFDFF800
FFFFF800
FFFFF000
7FFFE000
7FFFC000
3FFF0000
1FFE0000
03FC0000
ENDCHAR
STARTCHAR 0136
ENCODING 310
SWIDTH 540 0
DWIDTH 30 0
BBX 36 48 1 -9
BITMAP
0000000100
0000860700
00FFFE0F00
007FFE1F80
00FFFC3FF0
00FFFC7FF0
00FFF8FFE0
01FFF8FFC0
01FFF9FF80
01FFFBFF00
01FFFBFE00
03FFFFFC00
03FFFFF800
03FFFFF000
03FFFFE000
07FFFFE000
07FFFFC000
07FFFF8000
07FFFF0000
0FFFFF0000
0FFFFC0000
0FFFFC0000
1FFFFE0000
1FFFFF0000
1FFFFF8000
1FFFFF8000
1FFFFFC000
3FFFFFE000
3FFFFFE000
3FFFBFF000
3FFF3FF000
3FFF1FF000
7FFE1FF800
7FFE0FF800
7FFE0FF800
7FFF0FF800
7FFE07CC00
FFFC070000
0070060000
0000000000
001FE00000
001FE00000
001FC00000
003FC00000
003F800000
007F000000
007E000000
003C000000
ENDCHAR
STARTCHAR 0137
ENCODING 311
SWIDTH 540 0
DWIDTH 30 0
BBX 36 48 1 -9
BITMAP
0000000100
0000860700
00FFFE0F00
007FFE1F80
00FFFC3FF0
00FFFC7FF0
00FFF8FFE0
01FFF8FFC0
01FFF9FF80
01FFFBFF00
01FFFBFE00
03FFFFFC00
03FFFFF800
03FFFFF000
03FFFFE000
07FFFFE000
07FFFFC000
07FFFF8000
07FFFF0000
0FFFFF0000
0FFFFC0000
0FFFFC0000
1FFFFE0000
1FFFFF0000
1FFFFF8000
1FFFFF8000
1FFFFFC000
3FFFFFE000
3FFFFFE000
3FFFBFF000
3FFF3FF000
3FFF1FF000
7FFE1FF800
7FFE0FF800
7FFE0FF800
7FFF0FF800
7FFE07CC00
FFFC070000
0070060000
0000000000
001FE00000
001FE00000
001FC00000
003FC00000
003F800000
007F000000
007E000000
003C000000
ENDCHAR
STARTCHAR 0138
ENCODING 312
SWIDTH 522 0
DWIDTH 29 0
BBX 33 31 1 -1
BITMAP
0000181800
03FFF87C00
01FFF0FE00
03FFF1FF80
03FFE3FF00
03FFE7FE00
03FFE7FC00
07FFEFF800
07FFFFF000
07FFFFE000
07FFFFC000
0FFFFF8000
0FFFFF0000
0FFFFE0000
0FFFFC0000
1FFFF80000
1FFFF80000
1FFFFC0000
3FFFFE0000
3FFFFE0000
3FFFFF0000
3FFFFF8000
7FFFFFC000
7FFE7FC000
7FFE3FE000
7FFC3FE000
7FFC1FF000
7FFE1FF000
7FFE0FB000
FFF80E0000
00000C0000
ENDCHAR
STARTCHAR 0139
ENCODING 313
SWIDTH 504 0
DWIDTH 28 0
BBX 32 49 1 -1
BITMAP
000000FF
000000FF
000001FC
000003F8
000007F0
000007E0
00000FC0
00001F80
00000300
00000000
00003FC0
0003FFE0
0007FFE0
000FFFC0
000FFFC0
001FFFC0
001FFF80
001FFF80
003FFF00
003FFF00
003FFF00
007FFE00
007FFE00
007FFE00
007FFC00
00FFFC00
00FFF800
00FFF800
01FFF800
01FFF000
03FFF000
03FFF000
03FFE000
07FFE000
07FFC000
07FFC000
0FFFC1E0
0FFFFFF0
0FFFFFF0
1FFFFFE0
1FFFFFE0
1FFFFFE0
1FFFFFE0
3FFFFFE0
3FFFFFE0
3FFFFFE0
3FFFFC00
7FE00000
E0000000
ENDCHAR
STARTCHAR 013A
ENCODING 314
SWIDTH 504 0
DWIDTH 28 0
BBX 32 49 1 -1
BITMAP
000000FF
000000FF
000001FC
000003F8
000007F0
000007E0
00000FC0
00001F80
00000300
00000000
00003FC0
0003FFE0
0007FFE0
000FFFC0
000FFFC0
001FFFC0
001FFF80
001FFF80
003FFF00
003FFF00
003FFF00
007FFE00
007FFE00
007FFE00
007FFC00
00FFFC00
00FFF800
00FFF800
01FFF800
01FFF000
03FFF000
03FFF000
03FFE000
07FFE000
07FFC000
07FFC000
0FFFC1E0
0FFFFFF0
0FFFFFF0
1FFFFFE0
1FFFFFE0
1FFFFFE0
1FFFFFE0
3FFFFFE0
3FFFFFE0
3FFFFFE0
3FFFFC00
7FE00000
E0000000
ENDCHAR
STARTCHAR 013B
ENCODING 315
SWIDTH 504 0
DWIDTH 28 0
BBX 28 47 1 -9
BITMAP
00003FC0
0003FFE0
0007FFE0
000FFFC0
000FFFC0
001FFFC0
001FFF80
001FFF80
003FFF00
003FFF00
003FFF00
007FFE00
007FFE00
007FFE00
007FFC00
00FFFC00
00FFF800
00FFF800
01FFF800
01FFF000
03FFF000
03FFF000
03FFE000
07FFE000
07FFC000
07FFC000
0FFFC1E0
0FFFFFF0
0FFFFFF0
1FFFFFE0
1FFFFFE0
1FFFFFE0
1FFFFFE0
3FFFFFE0
3FFFFFE0
3FFFFFE0
3FFFFC00
7FE00000
E0000000
007F0000
00FF0000
00FF0000
00FE0000
01FE0000
01FC0000
03F80000
01F00000
ENDCHAR
STARTCHAR 013C
ENCODING 316
SWIDTH 504 0
DWIDTH 28 0
BBX 28 47 1 -9
BITMAP
00003FC0
0003FFE0
0007FFE0
000FFFC0
000FFFC0
001FFFC0
001FFF80
001FFF80
003FFF00
003FFF00
003FFF00
007FFE00
007FFE00
007FFE00
007FFC00
00FFFC00
00FFF800
00FFF800
01FFF800
01FFF000
03FFF000
03FFF000
03FFE000
07FFE000
07FFC000
07FFC000
0FFFC1E0
0FFFFFF0
0FFFFFF0
1FFFFFE0
1FFFFFE0
1FFFFFE0
1FFFFFE0
3FFFFFE0
3FFFFFE0
3FFFFFE0
3FFFFC00
7FE00000
E0000000
007F0000
00FF0000
00FF0000
00FE0000
01FE0000
01FC0000
03F80000
01F00000
ENDCHAR
STARTCHAR 013D
ENCODING 317
SWIDTH 504 0
DWIDTH 28 0
BBX 35 41 1 -1
BITMAP
0000000180
00000007E0
00003FC7E0
0003FFE7C0
0007FFEFC0
000FFFCFC0
000FFFCFC0
001FFFDF80
001FFF9F80
001FFF9F00
003FFF3E00
003FFF1E00
003FFF1C00
007FFE0800
007FFE0000
007FFE0000
007FFC0000
00FFFC0000
00FFF80000
00FFF80000
01FFF80000
01FFF00000
03FFF00000
03FFF00000
03FFE00000
07FFE00000
07FFC00000
07FFC00000
0FFFC1E000
0FFFFFF000
0FFFFFF000
1FFFFFE000
1FFFFFE000
1FFFFFE000
1FFFFFE000
3FFFFFE000
3FFFFFE000
3FFFFFE000
3FFFFC0000
7FE0000000
E000000000
ENDCHAR
STARTCHAR 013E
ENCODING 318
SWIDTH 504 0
DWIDTH 28 0
BBX 35 41 1 -1
BITMAP
0000000180
00000007E0
00003FC7E0
0003FFE7C0
0007FFEFC0
000FFFCFC0
000FFFCFC0
001FFFDF80
001FFF9F80
001FFF9F00
003FFF3E00
003FFF1E00
003FFF1C00
007FFE0800
007FFE0000
007FFE0000
007FFC0000
00FFFC0000
00FFF80000
00FFF80000
01FFF80000
01FFF00000
03FFF00000
03FFF00000
03FFE00000
07FFE00000
07FFC00000
07FFC00000
0FFFC1E000
0FFFFFF000
0FFFFFF000
1FFFFFE000
1FFFFFE000
1FFFFFE000
1FFFFFE000
3FFFFFE000
3FFFFFE000
3FFFFFE000
3FFFFC0000
7FE0000000
E000000000
ENDCHAR
STARTCHAR 013F
ENCODING 319
SWIDTH 504 0
DWIDTH 28 0
BBX 28 39 1 -1
BITMAP
00003FC0
0003FFE0
0007FFE0
000FFFC0
000FFFC0
001FFFC0
001FFF80
001FFF80
003FFF00
003FFF00
003FFF00
007FFE00
007FFE00
007FFE00
007FFC00
00FFFC00
00FFF9E0
00FFF9F0
01FFFBF0
01FFF3F0
03FFF3E0
03FFF1C0
03FFE000
07FFE000
07FFC000
07FFC000
0FFFC1E0
0FFFFFF0
0FFFFFF0
1FFFFFE0
1FFFFFE0
1FFFFFE0
1FFFFFE0
3FFFFFE0
3FFFFFE0
3FFFFFE0
3FFFFC00
7FE00000
E0000000
ENDCHAR
STARTCHAR 0140
ENCODING 320
SWIDTH 504 0
DWIDTH 28 0
BBX 28 39 1 -1
BITMAP
00003FC0
0003FFE0
0007FFE0
000FFFC0
000FFFC0
001FFFC0
001FFF80
001FFF80
003FFF00
003FFF00
003FFF00
007FFE00
007FFE00
007FFE00
007FFC00
00FFFC00
00FFF9E0
00FFF9F0
01FFFBF0
01FFF3F0
03FFF3E0
03FFF1C0
03FFE000
07FFE000
07FFC000
07FFC000
0FFFC1E0
0FFFFFF0
0FFFFFF0
1FFFFFE0
1FFFFFE0
1FFFFFE0
1FFFFFE0
3FFFFFE0
3FFFFFE0
3FFFFFE0
3FFFFC00
7FE00000
E0000000
ENDCHAR
STARTCHAR 0141
ENCODING 321
SWIDTH 540 0
DWIDTH 30 0
BBX 32 39 3 -1
BITMAP
00003FC0
0003FFE0
000FFFC0
000FFFC0
001FFFC0
001FFF80
001FFF8C
003FFFBE
003FFF7F
003FFFFF
003FFFFE
007FFFFE
007FFFFC
007FFFF8
007FFFF0
00FFFFC0
00FFFF80
01FFFE00
01FFFC00
03FFF000
03FFF000
0FFFE000
3FFFE000
7FFFE000
FFFFC000
FFFFC000
FFFFC3E0
FFFFFFF0
FFFFFFE0
FFFFFFE0
DFFFFFE0
BFFFFFE0
3FFFFFE0
3FFFFFE0
3FFFFFE0
3FFFFFE0
7FFFFC00
7FE00000
E0000000
ENDCHAR
STARTCHAR 0142
ENCODING 322
SWIDTH 540 0
DWIDTH 30 0
BBX 32 39 3 -1
BITMAP
00003FC0
0003FFE0
000FFFC0
000FFFC0
001FFFC0
001FFF80
001FFF8C
003FFFBE
003FFF7F
003FFFFF
003FFFFE
007FFFFE
007FFFFC
007FFFF8
007FFFF0
00FFFFC0
00FFFF80
01FFFE00
01FFFC00
03FFF000
03FFF000
0FFFE000
3FFFE000
7FFFE000
FFFFC000
FFFFC000
FFFFC3E0
FFFFFFF0
FFFFFFE0
FFFFFFE0
DFFFFFE0
BFFFFFE0
3FFFFFE0
3FFFFFE0
3FFFFFE0
3FFFFFE0
7FFFFC00
7FE00000
E0000000
ENDCHAR
STARTCHAR 0143
ENCODING 323
SWIDTH 558 0
DWIDTH 31 0
BBX 37 48 1 0
BITMAP
00000007F0
0000000FF0
0000001FE0
0000001FC0
0000003F80
0000007F00
000000FE00
000000FC00
0000003000
0000000000
0000000000
0007E003F0
001FFC0FF8
001FFC3FF8
003FFC3FF8
003FFC3FF0
003FF87FF0
007FF87FF0
007FF87FE0
00FFF87FE0
00FFF8FFE0
00FFF8FFC0
01FFF8FFC0
01FFF8FFC0
01FFF9FF80
03FFF9FF80
03FFF9FF80
03FFFDFF00
07FFFDFF00
07FFFFFF00
07FFFFFF00
07FFFFFE00
0FFEFFFE00
0FFEFFFE00
0FFEFFFC00
0FFCFFFC00
1FFCFFFC00
1FFCFFFC00
1FFC7FF800
3FF87FF800
3FF87FF800
3FF87FF800
3FF87FF000
7FF07FF000
7FF07FF000
7FF07FF000
FFC07FC000
7000000000
ENDCHAR
STARTCHAR 0144
ENCODING 324
SWIDTH 558 0
DWIDTH 31 0
BBX 37 48 1 0
BITMAP
00000007F0
0000000FF0
0000001FE0
0000001FC0
0000003F80
0000007F00
000000FE00
000000FC00
0000003000
0000000000
0000000000
0007E003F0
001FFC0FF8
001FFC3FF8
003FFC3FF8
003FFC3FF0
003FF87FF0
007FF87FF0
007FF87FE0
00FFF87FE0
00FFF8FFE0
00FFF8FFC0
01FFF8FFC0
01FFF8FFC0
01FFF9FF80
03FFF9FF80
03FFF9FF80
03FFFDFF00
07FFFDFF00
07FFFFFF00
07FFFFFF00
07FFFFFE00
0FFEFFFE00
0FFEFFFE00
0FFEFFFC00
0FFCFFFC00
1FFCFFFC00
1FFCFFFC00
1FFC7FF800
3FF87FF800
3FF87FF800
3FF87FF800
3FF87FF000
7FF07FF000
7FF07FF000
7FF07FF000
FFC07FC000
7000000000
ENDCHAR
STARTCHAR 0145
ENCODING 325
SWIDTH 558 0
DWIDTH 31 0
BBX 37 46 1 -9
BITMAP
0007E003F0
001FFC0FF8
001FFC3FF8
003FFC3FF8
003FFC3FF0
003FF87FF0
007FF87FF0
007FF87FE0
00FFF87FE0
00FFF8FFE0
00FFF8FFC0
01FFF8FFC0
01FFF8FFC0
01FFF9FF80
03FFF9FF80
03FFF9FF80
03FFFDFF00
07FFFDFF00
07FFFFFF00
07FFFFFF00
07FFFFFE00
0FFEFFFE00
0FFEFFFE00
0FFEFFFC00
0FFCFFFC00
1FFCFFFC00
1FFCFFFC00
1FFC7FF800
3FF87FF800
3FF87FF800
3FF87FF800
3FF87FF000
7FF07FF000
7FF07FF000
7FF07FF000
FFC07FC000
7000000000
0000000000
007F000000
00FF000000
00FF000000
00FE000000
01FE000000
01FC000000
03F8000000
01F0000000
ENDCHAR
STARTCHAR 0146
ENCODING 326
SWIDTH 558 0
DWIDTH 31 0
BBX 37 46 1 -9
BITMAP
0007E003F0
001FFC0FF8
001FFC3FF8
003FFC3FF8
003FFC3FF0
003FF87FF0
007FF87FF0
007FF87FE0
00FFF87FE0
00FFF8FFE0
00FFF8FFC0
01FFF8FFC0
01FFF8FFC0
01FFF9FF80
03FFF9FF80
03FFF9FF80
03FFFDFF00
07FFFDFF00
07FFFFFF00
07FFFFFF00
07FFFFFE00
0FFEFFFE00
0FFEFFFE00
0FFEFFFC00
0FFCFFFC00
1FFCFFFC00
1FFCFFFC00
1FFC7FF800
3FF87FF800
3FF87FF800
3FF87FF800
3FF87FF000
7FF07FF000
7FF07FF000
7FF07FF000
FFC07FC000
7000000000
0000000000
007F000000
00FF000000
00FF000000
00FE000000
01FE000000
01FC000000
03F8000000
01F0000000
ENDCHAR
STARTCHAR 0147
ENCODING 327
SWIDTH 558 0
DWIDTH 31 0
BBX 37 47 1 0
BITMAP
00001F03E0
00001F8FE0
00001FFFE0
00001FFFC0
00000FFF00
000007FE00
000003F800
000001F000
0000000000
0000000000
0007E003F0
001FFC0FF8
001FFC3FF8
003FFC3FF8
003FFC3FF0
003FF87FF0
007FF87FF0
007FF87FE0
00FFF87FE0
00FFF8FFE0
00FFF8FFC0
01FFF8FFC0
01FFF8FFC0
01FFF9FF80
03FFF9FF80
03FFF9FF80
03FFFDFF00
07FFFDFF00
07FFFFFF00
07FFFFFF00
07FFFFFE00
0FFEFFFE00
0FFEFFFE00
0FFEFFFC00
0FFCFFFC00
1FFCFFFC00
1FFCFFFC00
1FFC7FF800
3FF87FF800
3FF87FF800
3FF87FF800
3FF87FF000
7FF07FF000
7FF07FF000
7FF07FF000
FFC07FC000
7000000000
ENDCHAR
STARTCHAR 0148
ENCODING 328
SWIDTH 558 0
DWIDTH 31 0
BBX 37 47 1 0
BITMAP
00001F03E0
00001F8FE0
00001FFFE0
00001FFFC0
00000FFF00
000007FE00
000003F800
000001F000
0000000000
0000000000
0007E003F0
001FFC0FF8
001FFC3FF8
003FFC3FF8
003FFC3FF0
003FF87FF0
007FF87FF0
007FF87FE0
00FFF87FE0
00FFF8FFE0
00FFF8FFC0
01FFF8FFC0
01FFF8FFC0
01FFF9FF80
03FFF9FF80
03FFF9FF80
03FFFDFF00
07FFFDFF00
07FFFFFF00
07FFFFFF00
07FFFFFE00
0FFEFFFE00
0FFEFFFE00
0FFEFFFC00
0FFCFFFC00
1FFCFFFC00
1FFCFFFC00
1FFC7FF800
3FF87FF800
3FF87FF800
3FF87FF800
3FF87FF000
7FF07FF000
7FF07FF000
7FF07FF000
FFC07FC000
7000000000
ENDCHAR
STARTCHAR 0149
ENCODING 329
SWIDTH 630 0
DWIDTH 35 0
BBX 36 40 6 1
BITMAP
0100000000
07F0000000
0FF0000000
0FF0000000
0FF1F007E0
1FE7FE1FF0
1FEFFE3FF0
1FEFFC3FF0
1FFFFC3FE0
3FDFFC7FE0
3FDFFC7FE0
3FBFF87FC0
7FBFF87FC0
7F3FF8FFC0
7F7FF8FF80
FE7FF8FF80
FE7FF8FF80
7CFFFDFF00
78FFFDFF00
78FFFDFF00
11FFFDFE00
01FFFFFE00
01FFFFFE00
01FFFFFE00
03FFFFFC00
03FFFFFC00
03FFFFFC00
03FEFFF800
07FE7FF800
07FE7FF800
07FE7FF800
0FFC7FF000
0FFC7FF000
0FFC7FF000
0FF87FF000
1FF87FE000
1FF87FE000
1FF87FE000
3FF87FE000
3FE07F8000
ENDCHAR
STARTCHAR 014A
ENCODING 330
SWIDTH 540 0
DWIDTH 30 0
BBX 31 46 3 -7
BITMAP
00F80000
03FC3F80
03FDFFE0
07FFFFF8
07FFFFF8
07FFFFF8
07FFFFFC
07FFFFFC
07FFFFFE
0FFFFFFE
0FFFFFFE
0FFFFFFE
0FFFFFFE
0FFE1FFE
1FFC0FFE
1FF807FE
1FF807FE
1FF007FE
1FF007FE
3FE007FE
3FE007FE
3FE007FC
3FE007FC
3FC007FC
3FC00FF8
7FC00FF8
7FC00FF8
7F800FF0
7F801FF0
7F801FF0
7F801FE0
7F801FE0
FF003FE0
FF003FC0
FF003FC0
FF007FC0
FF00FFC0
FE01FF80
000FFF80
003FFF00
003FFF00
007FFE00
007FF800
007FF000
007FC000
00700000
ENDCHAR
STARTCHAR 014B
ENCODING 331
SWIDTH 540 0
DWIDTH 30 0
BBX 31 46 3 -7
BITMAP
00F80000
03FC3F80
03FDFFE0
07FFFFF8
07FFFFF8
07FFFFF8
07FFFFFC
07FFFFFC
07FFFFFE
0FFFFFFE
0FFFFFFE
0FFFFFFE
0FFFFFFE
0FFE1FFE
1FFC0FFE
1FF807FE
1FF807FE
1FF007FE
1FF007FE
3FE007FE
3FE007FE
3FE007FC
3FE007FC
3FC007FC
3FC00FF8
7FC00FF8
7FC00FF8
7F800FF0
7F801FF0
7F801FF0
7F801FE0
7F801FE0
FF003FE0
FF003FC0
FF003FC0
FF007FC0
FF00FFC0
FE01FF80
000FFF80
003FFF00
003FFF00
007FFE00
007FF800
007FF000
007FC000
00700000
ENDCHAR
STARTCHAR 014C
ENCODING 332
SWIDTH 522 0
DWIDTH 29 0
BBX 29 45 4 0
BITMAP
007FFE00
00FFFF00
00FFFF00
01FFFF00
01FFFF00
00400000
00038000
0007E000
000FF800
001FFC00
003FFF00
007FFF80
00FFFFC0
00FFFFC0
01FFFFE0
03FFFFE0
03FFFFF0
07FFFFF0
0FFFFFF0
0FFFFFF0
1FFFFFF8
1FFC3FF8
3FF81FF8
3FF01FF8
7FF01FF8
7FE03FF8
7FE03FF8
7FE03FF8
7FE07FF8
7FF0FFF0
FFF9FFF0
FFFFFFE0
FFFFFFE0
7FFFFFE0
7FFFFFC0
7FFFFFC0
7FFFFF80
7FFFFF80
7FFFFF00
3FFFFF00
3FFFFE00
1FFFFC00
0FFFF800
07FFE000
00FF8000
ENDCHAR
STARTCHAR 014D
ENCODING 333
SWIDTH 522 0
DWIDTH 29 0
BBX 29 45 4 0
BITMAP
007FFE00
00FFFF00
00FFFF00
01FFFF00
01FFFF00
00400000
00038000
0007E000
000FF800
001FFC00
003FFF00
007FFF80
00FFFFC0
00FFFFC0
01FFFFE0
03FFFFE0
03FFFFF0
07FFFFF0
0FFFFFF0
0FFFFFF0
1FFFFFF8
1FFC3FF8
3FF81FF8
3FF01FF8
7FF01FF8
7FE03FF8
7FE03FF8
7FE03FF8
7FE07FF8
7FF0FFF0
FFF9FFF0
FFFFFFE0
FFFFFFE0
7FFFFFE0
7FFFFFC0
7FFFFFC0
7FFFFF80
7FFFFF80
7FFFFF00
3FFFFF00
3FFFFE00
1FFFFC00
0FFFF800
07FFE000
00FF8000
ENDCHAR
STARTCHAR 014E
ENCODING 334
SWIDTH 522 0
DWIDTH 29 0
BBX 29 48 4 0
BITMAP
00780F80
00780F80
007C3F80
007FFF00
007FFE00
007FFC00
003FF800
001FE000
00000000
00038000
0007E000
000FF800
001FFC00
003FFF00
007FFF80
00FFFFC0
00FFFFC0
01FFFFE0
03FFFFE0
03FFFFF0
07FFFFF0
0FFFFFF0
0FFFFFF0
1FFFFFF8
1FFC3FF8
3FF81FF8
3FF01FF8
7FF01FF8
7FE03FF8
7FE03FF8
7FE03FF8
7FE07FF8
7FF0FFF0
FFF9FFF0
FFFFFFE0
FFFFFFE0
7FFFFFE0
7FFFFFC0
7FFFFFC0
7FFFFF80
7FFFFF80
7FFFFF00
3FFFFF00
3FFFFE00
1FFFFC00
0FFFF800
07FFE000
00FF8000
ENDCHAR
STARTCHAR 014F
ENCODING 335
SWIDTH 522 0
DWIDTH 29 0
BBX 29 48 4 0
BITMAP
00780F80
00780F80
007C3F80
007FFF00
007FFE00
007FFC00
003FF800
001FE000
00000000
00038000
0007E000
000FF800
001FFC00
003FFF00
007FFF80
00FFFFC0
00FFFFC0
01FFFFE0
03FFFFE0
03FFFFF0
07FFFFF0
0FFFFFF0
0FFFFFF0
1FFFFFF8
1FFC3FF8
3FF81FF8
3FF01FF8
7FF01FF8
7FE03FF8
7FE03FF8
7FE03FF8
7FE07FF8
7FF0FFF0
FFF9FFF0
FFFFFFE0
FFFFFFE0
7FFFFFE0
7FFFFFC0
7FFFFFC0
7FFFFF80
7FFFFF80
7FFFFF00
3FFFFF00
3FFFFE00
1FFFFC00
0FFFF800
07FFE000
00FF8000
ENDCHAR
STARTCHAR 0150
ENCODING 336
SWIDTH 522 0
DWIDTH 29 0
BBX 30 48 4 0
BITMAP
0007F9FC
000FFBFC
000FE3F8
001FC7F0
003F8FE0
003F1FC0
007E3F80
00FC3F00
00180600
00038000
0007E000
000FF800
001FFC00
003FFF00
007FFF80
00FFFFC0
00FFFFC0
01FFFFE0
03FFFFE0
03FFFFF0
07FFFFF0
0FFFFFF0
0FFFFFF0
1FFFFFF8
1FFC3FF8
3FF81FF8
3FF01FF8
7FF01FF8
7FE03FF8
7FE03FF8
7FE03FF8
7FE07FF8
7FF0FFF0
FFF9FFF0
FFFFFFE0
FFFFFFE0
7FFFFFE0
7FFFFFC0
7FFFFFC0
7FFFFF80
7FFFFF80
7FFFFF00
3FFFFF00
3FFFFE00
1FFFFC00
0FFFF800
07FFE000
00FF8000
ENDCHAR
STARTCHAR 0151
ENCODING 337
SWIDTH 522 0
DWIDTH 29 0
BBX 30 48 4 0
BITMAP
0007F9FC
000FFBFC
000FE3F8
001FC7F0
003F8FE0
003F1FC0
007E3F80
00FC3F00
00180600
00038000
0007E000
000FF800
001FFC00
003FFF00
007FFF80
00FFFFC0
00FFFFC0
01FFFFE0
03FFFFE0
03FFFFF0
07FFFFF0
0FFFFFF0
0FFFFFF0
1FFFFFF8
1FFC3FF8
3FF81FF8
3FF01FF8
7FF01FF8
7FE03FF8
7FE03FF8
7FE03FF8
7FE07FF8
7FF0FFF0
FFF9FFF0
FFFFFFE0
FFFFFFE0
7FFFFFE0
7FFFFFC0
7FFFFFC0
7FFFFF80
7FFFFF80
7FFFFF00
3FFFFF00
3FFFFE00
1FFFFC00
0FFFF800
07FFE000
00FF8000
ENDCHAR
STARTCHAR 0152
ENCODING 338
SWIDTH 738 0
DWIDTH 41 0
BBX 39 40 4 -1
BITMAP
0000000800
00000FFFF8
00003FFFFE
0000FFFFFC
0003FFFFFC
000FFFFFF8
001FFFFFF8
003FFFFFF0
007FFFFFF0
00FFFFFFE0
01FFFFFFF0
03FFFFFFE0
07FFFFF800
07FFFFE000
0FFFFFE000
1FFE3FE000
1FF83FF1C0
3FF01FFFC0
3FF01FFF80
7FF01FFF80
7FF01FFF80
7FE03FFF80
FFE03FF000
FFF07FE000
FFF0FFE018
FFFFFFFFF8
FFFFFFFFF8
FFFFFFFFF8
FFFFFFFFF8
FFFFFFFFF8
FFFFFFFFF8
FFFFFFFFF8
FFFFFFFFF8
FFFFFFFFF8
FFFFFFFFF8
7FFFFFFFE0
7FFFFFFE00
1FFFFFF000
0FFF7E0000
03F8000000
ENDCHAR
STARTCHAR 0153
ENCODING 339
SWIDTH 738 0
DWIDTH 41 0
BBX 39 40 4 -1
BITMAP
0000000800
00000FFFF8
00003FFFFE
0000FFFFFC
0003FFFFFC
000FFFFFF8
001FFFFFF8
003FFFFFF0
007FFFFFF0
00FFFFFFE0
01FFFFFFF0
03FFFFFFE0
07FFFFF800
07FFFFE000
0FFFFFE000
1FFE3FE000
1FF83FF1C0
3FF01FFFC0
3FF01FFF80
7FF01FFF80
7FF01FFF80
7FE03FFF80
FFE03FF000
FFF07FE000
FFF0FFE018
FFFFFFFFF8
FFFFFFFFF8
FFFFFFFFF8
FFFFFFFFF8
FFFFFFFFF8
FFFFFFFFF8
FFFFFFFFF8
FFFFFFFFF8
FFFFFFFFF8
FFFFFFFFF8
7FFFFFFFE0
7FFFFFFE00
1FFFFFF000
0FFF7E0000
03F8000000
ENDCHAR
STARTCHAR 0154
ENCODING 340
SWIDTH 576 0
DWIDTH 32 0
BBX 29 49 4 -1
BITMAP
0000FE00
0001FE00
0001FC00
0003F800
0007F000
000FE000
000FC000
001F8000
00030000
00000000
0007F800
00FFFE00
03FFFF80
0FFFFFE0
0FFFFFF0
0FFFFFF0
0FFF8FF8
0FFF03F8
1FFF01F8
1FFF01F8
1FFF01F8
1FFF03F8
1FFF03F0
1FFF07F0
1FFF0FF0
1FFFBFE0
3FFFFFE0
3FFFFFC0
3FFFFF80
3FFFFC00
3FFFFC00
3FFFFC00
3FFFFE00
7FFFFE00
7FFFFF00
7FFDFF00
7FFCFF00
7FFCFF80
FFFCFF80
FFFC7FC0
FFFC7FC0
FFFC7FC0
FFFC3FE0
FFF83FE0
FFF83FE0
FFF83FF0
FFF83FF0
FFF81F80
7FC00000
ENDCHAR
STARTCHAR 0155
ENCODING 341
SWIDTH 576 0
DWIDTH 32 0
BBX 29 49 4 -1
BITMAP
0000FE00
0001FE00
0001FC00
0003F800
0007F000
000FE000
000FC000
001F8000
00030000
00000000
0007F800
00FFFE00
03FFFF80
0FFFFFE0
0FFFFFF0
0FFFFFF0
0FFF8FF8
0FFF03F8
1FFF01F8
1FFF01F8
1FFF01F8
1FFF03F8
1FFF03F0
1FFF07F0
1FFF0FF0
1FFFBFE0
3FFFFFE0
3FFFFFC0
3FFFFF80
3FFFFC00
3FFFFC00
3FFFFC00
3FFFFE00
7FFFFE00
7FFFFF00
7FFDFF00
7FFCFF00
7FFCFF80
FFFCFF80
FFFC7FC0
FFFC7FC0
FFFC7FC0
FFFC3FE0
FFF83FE0
FFF83FE0
FFF83FF0
FFF83FF0
FFF81F80
7FC00000
ENDCHAR
STARTCHAR 0156
ENCODING 342
SWIDTH 576 0
DWIDTH 32 0
BBX 29 47 4 -9
BITMAP
0007F800
00FFFE00
03FFFF80
0FFFFFE0
0FFFFFF0
0FFFFFF0
0FFF8FF8
0FFF03F8
1FFF01F8
1FFF01F8
1FFF01F8
1FFF03F8
1FFF03F0
1FFF07F0
1FFF0FF0
1FFFBFE0
3FFFFFE0
3FFFFFC0
3FFFFF80
3FFFFC00
3FFFFC00
3FFFFC00
3FFFFE00
7FFFFE00
7FFFFF00
7FFDFF00
7FFCFF00
7FFCFF80
FFFCFF80
FFFC7FC0
FFFC7FC0
FFFC7FC0
FFFC3FE0
FFF83FE0
FFF83FE0
FFF83FF0
FFF83FF0
FFF81F80
7FC00000
001FC000
003FC000
003FC000
003F8000
007F0000
007F0000
00FE0000
00780000
ENDCHAR
STARTCHAR 0157
ENCODING 343
SWIDTH 576 0
DWIDTH 32 0
BBX 29 47 4 -9
BITMAP
0007F800
00FFFE00
03FFFF80
0FFFFFE0
0FFFFFF0
0FFFFFF0
0FFF8FF8
0FFF03F8
1FFF01F8
1FFF01F8
1FFF01F8
1FFF03F8
1FFF03F0
1FFF07F0
1FFF0FF0
1FFFBFE0
3FFFFFE0
3FFFFFC0
3FFFFF80
3FFFFC00
3FFFFC00
3FFFFC00
3FFFFE00
7FFFFE00
7FFFFF00
7FFDFF00
7FFCFF00
7FFCFF80
FFFCFF80
FFFC7FC0
FFFC7FC0
FFFC7FC0
FFFC3FE0
FFF83FE0
FFF83FE0
FFF83FF0
FFF83FF0
FFF81F80
7FC00000
001FC000
003FC000
003FC000
003F8000
007F0000
007F0000
00FE0000
00780000
ENDCHAR
STARTCHAR 0158
ENCODING 344
SWIDTH 576 0
DWIDTH 32 0
BBX 29 49 4 -1
BITMAP
00003E00
01F07E00
01F9FE00
03FFFC00
01FFF800
00FFE000
003FC000
001F8000
000E0000
00000000
0007F800
00FFFE00
03FFFF80
0FFFFFE0
0FFFFFF0
0FFFFFF0
0FFF8FF8
0FFF03F8
1FFF01F8
1FFF01F8
1FFF01F8
1FFF03F8
1FFF03F0
1FFF07F0
1FFF0FF0
1FFFBFE0
3FFFFFE0
3FFFFFC0
3FFFFF80
3FFFFC00
3FFFFC00
3FFFFC00
3FFFFE00
7FFFFE00
7FFFFF00
7FFDFF00
7FFCFF00
7FFCFF80
FFFCFF80
FFFC7FC0
FFFC7FC0
FFFC7FC0
FFFC3FE0
FFF83FE0
FFF83FE0
FFF83FF0
FFF83FF0
FFF81F80
7FC00000
ENDCHAR
STARTCHAR 0159
ENCODING 345
SWIDTH 576 0
DWIDTH 32 0
BBX 29 49 4 -1
BITMAP
00003E00
01F07E00
01F9FE00
03FFFC00
01FFF800
00FFE000
003FC000
001F8000
000E0000
00000000
0007F800
00FFFE00
03FFFF80
0FFFFFE0
0FFFFFF0
0FFFFFF0
0FFF8FF8
0FFF03F8
1FFF01F8
1FFF01F8
1FFF01F8
1FFF03F8
1FFF03F0
1FFF07F0
1FFF0FF0
1FFFBFE0
3FFFFFE0
3FFFFFC0
3FFFFF80
3FFFFC00
3FFFFC00
3FFFFC00
3FFFFE00
7FFFFE00
7FFFFF00
7FFDFF00
7FFCFF00
7FFCFF80
FFFCFF80
FFFC7FC0
FFFC7FC0
FFFC7FC0
FFFC3FE0
FFF83FE0
FFF83FE0
FFF83FF0
FFF83FF0
FFF81F80
7FC00000
ENDCHAR
STARTCHAR 015A
ENCODING 346
SWIDTH 504 0
DWIDTH 28 0
BBX 33 49 2 -1
BITMAP
0000007F00
000000FF00
000001FE00
000003FC00
000003F800
000007E000
00000FC000
00000F8000
0000010000
0000000000
0000FFFE00
0007FFFF80
000FFFFF00
001FFFFF00
003FFFFE00
003FFFFC00
007FFFFC00
007FFFF800
00FFFFF000
01FFFFF000
01FFFFE000
03FFFFC000
03FFFFC000
03FFFF8000
03FE038000
03FE000000
03FF800000
03FFE00000
01FFF80000
01FFFF0000
01FFFF8000
007FFFC000
0007FFC000
0001FFC000
00007FC000
00007FC000
0800FFC000
3C01FFC000
7F7FFFC000
7FFFFFC000
FFFFFF8000
FFFFFF8000
FFFFFF0000
FFFFFF0000
7FFFFC0000
3FFFF00000
1FFFC00000
07FF000000
0020000000
ENDCHAR
STARTCHAR 015B
ENCODING 347
SWIDTH 504 0
DWIDTH 28 0
BBX 33 49 2 -1
BITMAP
0000007F00
000000FF00
000001FE00
000003FC00
000003F800
000007E000
00000FC000
00000F8000
0000010000
0000000000
0000FFFE00
0007FFFF80
000FFFFF00
001FFFFF00
003FFFFE00
003FFFFC00
007FFFFC00
007FFFF800
00FFFFF000
01FFFFF000
01FFFFE000
03FFFFC000
03FFFFC000
03FFFF8000
03FE038000
03FE000000
03FF800000
03FFE00000
01FFF80000
01FFFF0000
01FFFF8000
007FFFC000
0007FFC000
0001FFC000
00007FC000
00007FC000
0800FFC000
3C01FFC000
7F7FFFC000
7FFFFFC000
FFFFFF8000
FFFFFF8000
FFFFFF0000
FFFFFF0000
7FFFFC0000
3FFFF00000
1FFFC00000
07FF000000
0020000000
ENDCHAR
STARTCHAR 015C
ENCODING 348
SWIDTH 504 0
DWIDTH 28 0
BBX 33 49 2 -1
BITMAP
000001C000
00000FE000
00001FF000
00007FF800
0000FFFC00
0001FFFE00
0003FCFE00
0003F07E00
0000003000
0000000000
0000FFFE00
0007FFFF80
000FFFFF00
001FFFFF00
003FFFFE00
003FFFFC00
007FFFFC00
007FFFF800
00FFFFF000
01FFFFF000
01FFFFE000
03FFFFC000
03FFFFC000
03FFFF8000
03FE038000
03FE000000
03FF800000
03FFE00000
01FFF80000
01FFFF0000
01FFFF8000
007FFFC000
0007FFC000
0001FFC000
00007FC000
00007FC000
0800FFC000
3C01FFC000
7F7FFFC000
7FFFFFC000
FFFFFF8000
FFFFFF8000
FFFFFF0000
FFFFFF0000
7FFFFC0000
3FFFF00000
1FFFC00000
07FF000000
0020000000
ENDCHAR
STARTCHAR 015D
ENCODING 349
SWIDTH 504 0
DWIDTH 28 0
BBX 33 49 2 -1
BITMAP
000001C000
00000FE000
00001FF000
00007FF800
0000FFFC00
0001FFFE00
0003FCFE00
0003F07E00
0000003000
0000000000
0000FFFE00
0007FFFF80
000FFFFF00
001FFFFF00
003FFFFE00
003FFFFC00
007FFFFC00
007FFFF800
00FFFFF000
01FFFFF000
01FFFFE000
03FFFFC000
03FFFFC000
03FFFF8000
03FE038000
03FE000000
03FF800000
03FFE00000
01FFF80000
01FFFF0000
01FFFF8000
007FFFC000
0007FFC000
0001FFC000
00007FC000
00007FC000
0800FFC000
3C01FFC000
7F7FFFC000
7FFFFFC000
FFFFFF8000
FFFFFF8000
FFFFFF0000
FFFFFF0000
7FFFFC0000
3FFFF00000
1FFFC00000
07FF000000
0020000000
ENDCHAR
STARTCHAR 015E
ENCODING 350
SWIDTH 504 0
DWIDTH 28 0
BBX 33 47 2 -9
BITMAP
0000FFFE00
0007FFFF80
000FFFFF00
001FFFFF00
003FFFFE00
003FFFFC00
007FFFFC00
007FFFF800
00FFFFF000
01FFFFF000
01FFFFE000
03FFFFC000
03FFFFC000
03FFFF8000
03FE038000
03FE000000
03FFC00000
03FFE00000
01FFF80000
01FFFF0000
01FFFF8000
007FFFC000
0007FFC000
0001FFC000
00007FC000
00007FC000
0800FFC000
3C01FFC000
7F7FFFC000
7FFFFFC000
FFFFFF8000
FFFFFF8000
FFFFFF0000
FFFFFF0000
7FFFFC0000
3FFFF00000
1FFFC00000
07FF000000
01FC000000
00FE000000
007F000000
003F800000
081F800000
3FBF800000
3FFF800000
3FFF000000
0FFE000000
ENDCHAR
STARTCHAR 015F
ENCODING 351
SWIDTH 504 0
DWIDTH 28 0
BBX 33 47 2 -9
BITMAP
0000FFFE00
0007FFFF80
000FFFFF00
001FFFFF00
003FFFFE00
003FFFFC00
007FFFFC00
007FFFF800
00FFFFF000
01FFFFF000
01FFFFE000
03FFFFC000
03FFFFC000
03FFFF8000
03FE038000
03FE000000
03FFC00000
03FFE00000
01FFF80000
01FFFF0000
01FFFF8000
007FFFC000
0007FFC000
0001FFC000
00007FC000
00007FC000
0800FFC000
3C01FFC000
7F7FFFC000
7FFFFFC000
FFFFFF8000
FFFFFF8000
FFFFFF0000
FFFFFF0000
7FFFFC0000
3FFFF00000
1FFFC00000
07FF000000
01FC000000
00FE000000
007F000000
003F800000
081F800000
3FBF800000
3FFF800000
3FFF000000
0FFE000000
ENDCHAR
STARTCHAR 0160
ENCODING 352
SWIDTH 504 0
DWIDTH 28 0
BBX 33 49 2 -1
BITMAP
0000F00E00
0001F87F00
0001FCFF00
0000FFFE00
0000FFFC00
00007FF000
00003FE000
00001F8000
0000060000
0000000000
0000FFFE00
0007FFFF80
000FFFFF00
001FFFFF00
003FFFFE00
003FFFFC00
007FFFFC00
007FFFF800
00FFFFF000
01FFFFF000
01FFFFE000
03FFFFC000
03FFFFC000
03FFFF8000
03FE038000
03FE000000
03FF800000
03FFE00000
01FFF80000
01FFFF0000
01FFFF8000
007FFFC000
0007FFC000
0001FFC000
00007FC000
00007FC000
0800FFC000
3C01FFC000
7F7FFFC000
7FFFFFC000
FFFFFF8000
FFFFFF8000
FFFFFF0000
FFFFFF0000
7FFFFC0000
3FFFF00000
1FFFC00000
07FF000000
0020000000
ENDCHAR
STARTCHAR 0161
ENCODING 353
SWIDTH 504 0
DWIDTH 28 0
BBX 33 49 2 -1
BITMAP
0000F00E00
0001F87F00
0001FCFF00
0000FFFE00
0000FFFC00
00007FF000
00003FE000
00001F8000
0000060000
0000000000
0000FFFE00
0007FFFF80
000FFFFF00
001FFFFF00
003FFFFE00
003FFFFC00
007FFFFC00
007FFFF800
00FFFFF000
01FFFFF000
01FFFFE000
03FFFFC000
03FFFFC000
03FFFF8000
03FE038000
03FE000000
03FF800000
03FFE00000
01FFF80000
01FFFF0000
01FFFF8000
007FFFC000
0007FFC000
0001FFC000
00007FC000
00007FC000
0800FFC000
3C01FFC000
7F7FFFC000
7FFFFFC000
FFFFFF8000
FFFFFF8000
FFFFFF0000
FFFFFF0000
7FFFFC0000
3FFFF00000
1FFFC00000
07FF000000
0020000000
ENDCHAR
STARTCHAR 0162
ENCODING 354
SWIDTH 576 0
DWIDTH 32 0
BBX 31 47 7 -9
BITMAP
00000040
1FFFFFF8
3FFFFFFC
3FFFFFFC
3FFFFFFE
7FFFFFFE
7FFFFFFE
7FFFFFFC
FFFFFFFC
FFFFFFFC
FFFFFFFC
FFFFFE00
FE1FF800
E01FF000
003FE000
003FE000
003FC000
003FC000
007FC000
007FC000
007F8000
007F8000
00FF8000
00FF8000
00FF0000
00FF0000
00FF0000
01FF0000
01FE0000
01FE0000
01FE0000
03FE0000
03FE0000
03FC0000
03FC0000
03FC0000
03FC0000
03F80000
01F80000
01FC0000
00FE0000
007F0000
303F8000
7F7F0000
7FFF0000
7FFE0000
1FFC0000
ENDCHAR
STARTCHAR 0163
ENCODING 355
SWIDTH 576 0
DWIDTH 32 0
BBX 31 47 7 -9
BITMAP
00000040
1FFFFFF8
3FFFFFFC
3FFFFFFC
3FFFFFFE
7FFFFFFE
7FFFFFFE
7FFFFFFC
FFFFFFFC
FFFFFFFC
FFFFFFFC
FFFFFE00
FE1FF800
E01FF000
003FE000
003FE000
003FC000
003FC000
007FC000
007FC000
007F8000
007F8000
00FF8000
00FF8000
00FF0000
00FF0000
00FF0000
01FF0000
01FE0000
01FE0000
01FE0000
03FE0000
03FE0000
03FC0000
03FC0000
03FC0000
03FC0000
03F80000
01F80000
01FC0000
00FE0000
007F0000
303F8000
7F7F0000
7FFF0000
7FFE0000
1FFC0000
ENDCHAR
STARTCHAR 0164
ENCODING 356
SWIDTH 576 0
DWIDTH 32 0
BBX 31 48 7 0
BITMAP
000F01E0
001F83F0
001FEFE0
001FFFC0
000FFF80
0007FF00
0003FC00
0001F800
00006000
00000000
00000040
1FFFFFF8
3FFFFFFC
3FFFFFFC
3FFFFFFE
7FFFFFFE
7FFFFFFE
7FFFFFFC
FFFFFFFC
FFFFFFFC
FFFFFFFC
FFFFFE00
FE1FF800
E01FF000
003FE000
003FE000
003FC000
003FC000
007FC000
007FC000
007F8000
007F8000
00FF8000
00FF8000
00FF0000
00FF0000
00FF0000
01FF0000
01FE0000
01FE0000
01FE0000
03FE0000
03FE0000
03FC0000
03FC0000
03FC0000
03FC0000
03F80000
ENDCHAR
STARTCHAR 0165
ENCODING 357
SWIDTH 576 0
DWIDTH 32 0
BBX 31 48 7 0
BITMAP
000F01E0
001F83F0
001FEFE0
001FFFC0
000FFF80
0007FF00
0003FC00
0001F800
00006000
00000000
00000040
1FFFFFF8
3FFFFFFC
3FFFFFFC
3FFFFFFE
7FFFFFFE
7FFFFFFE
7FFFFFFC
FFFFFFFC
FFFFFFFC
FFFFFFFC
FFFFFE00
FE1FF800
E01FF000
003FE000
003FE000
003FC000
003FC000
007FC000
007FC000
007F8000
007F8000
00FF8000
00FF8000
00FF0000
00FF0000
00FF0000
01FF0000
01FE0000
01FE0000
01FE0000
03FE0000
03FE0000
03FC0000
03FC0000
03FC0000
03FC0000
03F80000
ENDCHAR
STARTCHAR 0166
ENCODING 358
SWIDTH 576 0
DWIDTH 32 0
BBX 31 38 7 0
BITMAP
00000040
1FFFFFF8
3FFFFFFC
3FFFFFFC
3FFFFFFE
7FFFFFFE
7FFFFFFE
7FFFFFFC
FFFFFFFC
FFFFFFFC
FFFFFFFC
FFFFFE00
FE1FF800
E01FF000
003FE000
003FE000
003FC000
003FFF80
3FFFFFC0
3FFFFF80
3FFFFF80
7FFFFF80
7FFFFF00
7FFFFF00
7FFFFF00
00FF0000
00FF0000
01FF0000
01FE0000
01FE0000
01FE0000
03FE0000
03FE0000
03FC0000
03FC0000
03FC0000
03FC0000
03F80000
ENDCHAR
STARTCHAR 0167
ENCODING 359
SWIDTH 576 0
DWIDTH 32 0
BBX 31 38 7 0
BITMAP
00000040
1FFFFFF8
3FFFFFFC
3FFFFFFC
3FFFFFFE
7FFFFFFE
7FFFFFFE
7FFFFFFC
FFFFFFFC
FFFFFFFC
FFFFFFFC
FFFFFE00
FE1FF800
E01FF000
003FE000
003FE000
003FC000
003FFF80
3FFFFFC0
3FFFFF80
3FFFFF80
7FFFFF80
7FFFFF00
7FFFFF00
7FFFFF00
00FF0000
00FF0000
01FF0000
01FE0000
01FE0000
01FE0000
03FE0000
03FE0000
03FC0000
03FC0000
03FC0000
03FC0000
03F80000
ENDCHAR
STARTCHAR 0168
ENCODING 360
SWIDTH 540 0
DWIDTH 30 0
BBX 33 46 4 1
BITMAP
00003E3F00
0000FF3F00
0000FFFE00
0001FFFE00
0001FFFE00
0001FFF800
0003E7F000
0003E1E000
0000000000
0078004000
00FF80FF80
00FF00FF80
01FF00FF80
01FE00FF80
03FE00FF00
03FC00FF00
07FC01FF00
07FC01FE00
0FF801FE00
0FF803FE00
0FF803FE00
1FF803FE00
1FF007FC00
3FF007FC00
3FF007FC00
3FF00FFC00
7FF00FFC00
7FF01FFC00
7FF01FFC00
7FF81FF800
7FFE3FF800
7FFFFFF000
FFFFFFE000
FFFFFFE000
FFFFFFC000
FFFFFFC000
FFFFFF8000
7FFFFF8000
7FFFFF0000
7FFFFE0000
3FFFFC0000
3FFFF80000
3FFFF00000
1FFFE00000
07FFC00000
01FF000000
ENDCHAR
STARTCHAR 0169
ENCODING 361
SWIDTH 540 0
DWIDTH 30 0
BBX 33 46 4 1
BITMAP
00003E3F00
0000FF3F00
0000FFFE00
0001FFFE00
0001FFFE00
0001FFF800
0003E7F000
0003E1E000
0000000000
0078004000
00FF80FF80
00FF00FF80
01FF00FF80
01FE00FF80
03FE00FF00
03FC00FF00
07FC01FF00
07FC01FE00
0FF801FE00
0FF803FE00
0FF803FE00
1FF803FE00
1FF007FC00
3FF007FC00
3FF007FC00
3FF00FFC00
7FF00FFC00
7FF01FFC00
7FF01FFC00
7FF81FF800
7FFE3FF800
7FFFFFF000
FFFFFFE000
FFFFFFE000
FFFFFFC000
FFFFFFC000
FFFFFF8000
7FFFFF8000
7FFFFF0000
7FFFFE0000
3FFFFC0000
3FFFF80000
3FFFF00000
1FFFE00000
07FFC00000
01FF000000
ENDCHAR
STARTCHAR 016A
ENCODING 362
SWIDTH 540 0
DWIDTH 30 0
BBX 33 44 4 1
BITMAP
0000FFFC00
0003FFFE00
0003FFFC00
0003FFFC00
0003FFFC00
0000001000
0000000000
0078004000
00FF80FF80
00FF00FF80
01FF00FF80
01FE00FF80
03FE00FF00
03FC00FF00
07FC01FF00
07FC01FE00
0FF801FE00
0FF803FE00
0FF803FE00
1FF803FE00
1FF007FC00
3FF007FC00
3FF007FC00
3FF00FFC00
7FF00FFC00
7FF01FFC00
7FF01FFC00
7FF81FF800
7FFE3FF800
7FFFFFF000
FFFFFFE000
FFFFFFE000
FFFFFFC000
FFFFFFC000
FFFFFF8000
7FFFFF8000
7FFFFF0000
7FFFFE0000
3FFFFC0000
3FFFF80000
3FFFF00000
1FFFE00000
07FFC00000
01FF000000
ENDCHAR
STARTCHAR 016B
ENCODING 363
SWIDTH 540 0
DWIDTH 30 0
BBX 33 44 4 1
BITMAP
0000FFFC00
0003FFFE00
0003FFFC00
0003FFFC00
0003FFFC00
0000001000
0000000000
0078004000
00FF80FF80
00FF00FF80
01FF00FF80
01FE00FF80
03FE00FF00
03FC00FF00
07FC01FF00
07FC01FE00
0FF801FE00
0FF803FE00
0FF803FE00
1FF803FE00
1FF007FC00
3FF007FC00
3FF007FC00
3FF00FFC00
7FF00FFC00
7FF01FFC00
7FF01FFC00
7FF81FF800
7FFE3FF800
7FFFFFF000
FFFFFFE000
FFFFFFE000
FFFFFFC000
FFFFFFC000
FFFFFF8000
7FFFFF8000
7FFFFF0000
7FFFFE0000
3FFFFC0000
3FFFF80000
3FFFF00000
1FFFE00000
07FFC00000
01FF000000
ENDCHAR
STARTCHAR 016C
ENCODING 364
SWIDTH 540 0
DWIDTH 30 0
BBX 33 47 4 1
BITMAP
0000F00F00
0000F80F00
0000FC1F00
0000FFFE00
0000FFFC00
00007FFC00
00007FF800
00003FE000
0000078000
0000000000
0078004000
00FF80FF80
00FF00FF80
01FF00FF80
01FE00FF80
03FE00FF00
03FC00FF00
07FC01FF00
07FC01FE00
0FF801FE00
0FF803FE00
0FF803FE00
1FF803FE00
1FF007FC00
3FF007FC00
3FF007FC00
3FF00FFC00
7FF00FFC00
7FF01FFC00
7FF01FFC00
7FF81FF800
7FFE3FF800
7FFFFFF000
FFFFFFE000
FFFFFFE000
FFFFFFC000
FFFFFFC000
FFFFFF8000
7FFFFF8000
7FFFFF0000
7FFFFE0000
3FFFFC0000
3FFFF80000
3FFFF00000
1FFFE00000
07FFC00000
01FF000000
ENDCHAR
STARTCHAR 016D
ENCODING 365
SWIDTH 540 0
DWIDTH 30 0
BBX 33 47 4 1
BITMAP
0000F00F00
0000F80F00
0000FC1F00
0000FFFE00
0000FFFC00
00007FFC00
00007FF800
00003FE000
0000078000
0000000000
0078004000
00FF80FF80
00FF00FF80
01FF00FF80
01FE00FF80
03FE00FF00
03FC00FF00
07FC01FF00
07FC01FE00
0FF801FE00
0FF803FE00
0FF803FE00
1FF803FE00
1FF007FC00
3FF007FC00
3FF007FC00
3FF00FFC00
7FF00FFC00
7FF01FFC00
7FF01FFC00
7FF81FF800
7FFE3FF800
7FFFFFF000
FFFFFFE000
FFFFFFE000
FFFFFFC000
FFFFFFC000
FFFFFF8000
7FFFFF8000
7FFFFF0000
7FFFFE0000
3FFFFC0000
3FFFF80000
3FFFF00000
1FFFE00000
07FFC00000
01FF000000
ENDCHAR
STARTCHAR 016E
ENCODING 366
SWIDTH 540 0
DWIDTH 30 0
BBX 33 50 4 1
BITMAP
000003C000
00001FF000
00003FF800
0000FFFC00
0001F8FE00
0001F07E00
0003F07E00
0003F07C00
0003F07C00
0003F1F800
0003FFF800
0001FFE000
00007FC000
0078004000
00FF80FF80
00FF00FF80
01FF00FF80
01FE00FF80
03FE00FF00
03FC00FF00
07FC01FF00
07FC01FE00
0FF801FE00
0FF803FE00
0FF803FE00
1FF803FE00
1FF007FC00
3FF007FC00
3FF007FC00
3FF00FFC00
7FF00FFC00
7FF01FFC00
7FF01FFC00
7FF81FF800
7FFE3FF800
7FFFFFF000
FFFFFFE000
FFFFFFE000
FFFFFFC000
FFFFFFC000
FFFFFF8000
7FFFFF8000
7FFFFF0000
7FFFFE0000
3FFFFC0000
3FFFF80000
3FFFF00000
1FFFE00000
07FFC00000
01FF000000
ENDCHAR
STARTCHAR 016F
ENCODING 367
SWIDTH 540 0
DWIDTH 30 0
BBX 33 50 4 1
BITMAP
000003C000
00001FF000
00003FF800
0000FFFC00
0001F8FE00
0001F07E00
0003F07E00
0003F07C00
0003F07C00
0003F1F800
0003FFF800
0001FFE000
00007FC000
0078004000
00FF80FF80
00FF00FF80
01FF00FF80
01FE00FF80
03FE00FF00
03FC00FF00
07FC01FF00
07FC01FE00
0FF801FE00
0FF803FE00
0FF803FE00
1FF803FE00
1FF007FC00
3FF007FC00
3FF007FC00
3FF00FFC00
7FF00FFC00
7FF01FFC00
7FF01FFC00
7FF81FF800
7FFE3FF800
7FFFFFF000
FFFFFFE000
FFFFFFE000
FFFFFFC000
FFFFFFC000
FFFFFF8000
7FFFFF8000
7FFFFF0000
7FFFFE0000
3FFFFC0000
3FFFF80000
3FFFF00000
1FFFE00000
07FFC00000
01FF000000
ENDCHAR
STARTCHAR 0170
ENCODING 368
SWIDTH 540 0
DWIDTH 30 0
BBX 36 47 4 1
BITMAP
00000FE7F0
00001FEFF0
00003F8FE0
00007F1FC0
0000FE3F80
0000FC7F00
0001F87E00
0003F0FC00
0000601800
0000000000
0078004000
00FF80FF80
00FF00FF80
01FF00FF80
01FE00FF80
03FE00FF00
03FC00FF00
07FC01FF00
07FC01FE00
0FF801FE00
0FF803FE00
0FF803FE00
1FF803FE00
1FF007FC00
3FF007FC00
3FF007FC00
3FF00FFC00
7FF00FFC00
7FF01FFC00
7FF01FFC00
7FF81FF800
7FFE3FF800
7FFFFFF000
FFFFFFE000
FFFFFFE000
FFFFFFC000
FFFFFFC000
FFFFFF8000
7FFFFF8000
7FFFFF0000
7FFFFE0000
3FFFFC0000
3FFFF80000
3FFFF00000
1FFFE00000
07FFC00000
01FF000000
ENDCHAR
STARTCHAR 0171
ENCODING 369
SWIDTH 540 0
DWIDTH 30 0
BBX 36 47 4 1
BITMAP
00000FE7F0
00001FEFF0
00003F8FE0
00007F1FC0
0000FE3F80
0000FC7F00
0001F87E00
0003F0FC00
0000601800
0000000000
0078004000
00FF80FF80
00FF00FF80
01FF00FF80
01FE00FF80
03FE00FF00
03FC00FF00
07FC01FF00
07FC01FE00
0FF801FE00
0FF803FE00
0FF803FE00
1FF803FE00
1FF007FC00
3FF007FC00
3FF007FC00
3FF00FFC00
7FF00FFC00
7FF01FFC00
7FF01FFC00
7FF81FF800
7FFE3FF800
7FFFFFF000
FFFFFFE000
FFFFFFE000
FFFFFFC000
FFFFFFC000
FFFFFF8000
7FFFFF8000
7FFFFF0000
7FFFFE0000
3FFFFC0000
3FFFF80000
3FFFF00000
1FFFE00000
07FFC00000
01FF000000
ENDCHAR
STARTCHAR 0172
ENCODING 370
SWIDTH 540 0
DWIDTH 30 0
BBX 33 47 4 -9
BITMAP
0078004000
00FF80FF80
00FF00FF80
01FF00FF80
01FE00FF80
03FE00FF00
03FC00FF00
07FC01FF00
07FC01FE00
0FF801FE00
0FF803FE00
0FF803FE00
1FF803FE00
1FF007FC00
3FF007FC00
3FF007FC00
3FF00FFC00
7FF00FFC00
7FF01FFC00
7FF01FFC00
7FF81FF800
7FFE3FF800
7FFFFFF000
FFFFFFE000
FFFFFFE000
FFFFFFC000
FFFFFFC000
FFFFFF8000
7FFFFF8000
7FFFFF0000
7FFFFE0000
3FFFFC0000
3FFFF80000
3FFFF00000
1FFFE00000
07FFC00000
01FF000000
01F0000000
03E0000000
03C0000000
07C0000000
0FC0000000
0FC3C00000
0FFFC00000
0FFFC00000
0FFFC00000
03FF800000
ENDCHAR
STARTCHAR 0173
ENCODING 371
SWIDTH 540 0
DWIDTH 30 0
BBX 33 47 4 -9
BITMAP
0078004000
00FF80FF80
00FF00FF80
01FF00FF80
01FE00FF80
03FE00FF00
03FC00FF00
07FC01FF00
07FC01FE00
0FF801FE00
0FF803FE00
0FF803FE00
1FF803FE00
1FF007FC00
3FF007FC00
3FF007FC00
3FF00FFC00
7FF00FFC00
7FF01FFC00
7FF01FFC00
7FF81FF800
7FFE3FF800
7FFFFFF000
FFFFFFE000
FFFFFFE000
FFFFFFC000
FFFFFFC000
FFFFFF8000
7FFFFF8000
7FFFFF0000
7FFFFE0000
3FFFFC0000
3FFFF80000
3FFFF00000
1FFFE00000
07FFC00000
01FF000000
01F0000000
03E0000000
03C0000000
07C0000000
0FC0000000
0FC3C00000
0FFFC00000
0FFFC00000
0FFFC00000
03FF800000
ENDCHAR
STARTCHAR 0174
ENCODING 372
SWIDTH 720 0
DWIDTH 40 0
BBX 39 48 8 0
BITMAP
00000F0000
00003FC000
00007FE000
0001FFF000
0003FFF800
0007FBF800
000FE1F800
000FC0C000
0007000000
0000000100
0000000184
7FC00003FE
7FE01C07FE
FFE03C07FC
FFE03C0FFC
FFE03C0FF8
FFE07C1FF8
FFF07C3FF0
FFF07C3FF0
FFF0FC7FE0
FFF0FC7FE0
FFF0FEFFC0
FFF9FEFFC0
FFF9FFFFC0
7FFBFFFFC0
7FFFFFFF80
7FFFFFFF80
7FFFFFFF00
3FFFFFFF00
3FFFFFFE00
3FFFFFFE00
3FFFFFFE00
1FFFFFFC00
1FFFBFFC00
1FFF3FF800
1FFF3FF800
0FFE3FF800
0FFE3FF800
0FFC3FF000
07F83FF000
07F83FE000
07F03FE000
07F03FE000
03E01FC000
03E01FC000
01C01E0000
01C0000000
0080000000
ENDCHAR
STARTCHAR 0175
ENCODING 373
SWIDTH 720 0
DWIDTH 40 0
BBX 39 48 8 0
BITMAP
00000F0000
00003FC000
00007FE000
0001FFF000
0003FFF800
0007FBF800
000FE1F800
000FC0C000
0007000000
0000000100
0000000184
7FC00003FE
7FE01C07FE
FFE03C07FC
FFE03C0FFC
FFE03C0FF8
FFE07C1FF8
FFF07C3FF0
FFF07C3FF0
FFF0FC7FE0
FFF0FC7FE0
FFF0FEFFC0
FFF9FEFFC0
FFF9FFFFC0
7FFBFFFFC0
7FFFFFFF80
7FFFFFFF80
7FFFFFFF00
3FFFFFFF00
3FFFFFFE00
3FFFFFFE00
3FFFFFFE00
1FFFFFFC00
1FFFBFFC00
1FFF3FF800
1FFF3FF800
0FFE3FF800
0FFE3FF800
0FFC3FF000
07F83FF000
07F83FE000
07F03FE000
07F03FE000
03E01FC000
03E01FC000
01C01E0000
01C0000000
0080000000
ENDCHAR
STARTCHAR 0176
ENCODING 374
SWIDTH 612 0
DWIDTH 34 0
BBX 33 48 8 0
BITMAP
0000F80000
0001FC0000
0007FF0000
000FFF8000
001FFFC000
003FDFC000
007F0F8000
007E060000
0030000000
0000000000
0000007F80
008001FF80
07C001FF00
7FC003FE00
FFE003FE00
FFE007FC00
FFE00FF800
7FE00FF800
7FF01FF000
7FF03FE000
3FF07FC000
3FF07FC000
3FF8FF8000
3FF9FF0000
1FFBFF0000
1FFBFE0000
1FFFFC0000
0FFFFC0000
0FFFF80000
0FFFF00000
0FFFF00000
07FFE00000
07FFC00000
07FFC00000
03FF800000
03FF000000
03FF000000
01FF000000
01FE000000
01FE000000
03FE000000
03FE000000
03FE000000
03FE000000
03FE000000
07FE000000
07FC000000
07F0000000
ENDCHAR
STARTCHAR 0177
ENCODING 375
SWIDTH 612 0
DWIDTH 34 0
BBX 33 48 8 0
BITMAP
0000F80000
0001FC0000
0007FF0000
000FFF8000
001FFFC000
003FDFC000
007F0F8000
007E060000
0030000000
0000000000
0000007F80
008001FF80
07C001FF00
7FC003FE00
FFE003FE00
FFE007FC00
FFE00FF800
7FE00FF800
7FF01FF000
7FF03FE000
3FF07FC000
3FF07FC000
3FF8FF8000
3FF9FF0000
1FFBFF0000
1FFBFE0000
1FFFFC0000
0FFFFC0000
0FFFF80000
0FFFF00000
0FFFF00000
07FFE00000
07FFC00000
07FFC00000
03FF800000
03FF000000
03FF000000
01FF000000
01FE000000
01FE000000
03FE000000
03FE000000
03FE000000
03FE000000
03FE000000
07FE000000
07FC000000
07F0000000
ENDCHAR
STARTCHAR 0178
ENCODING 376
SWIDTH 612 0
DWIDTH 34 0
BBX 33 45 8 0
BITMAP
0007078000
001F8FC000
001F8FC000
003F0FC000
003F0F8000
001E070000
0000000000
0000007F80
008001FF80
07C001FF00
7FC003FE00
FFE003FE00
FFE007FC00
FFE00FF800
7FE00FF800
7FF01FF000
7FF03FE000
3FF07FC000
3FF07FC000
3FF8FF8000
3FF9FF0000
1FFBFF0000
1FFBFE0000
1FFFFC0000
0FFFFC0000
0FFFF80000
0FFFF00000
0FFFF00000
07FFE00000
07FFC00000
07FFC00000
03FF800000
03FF000000
03FF000000
01FF000000
01FE000000
01FE000000
03FE000000
03FE000000
03FE000000
03FE000000
03FE000000
07FE000000
07FC000000
07F0000000
ENDCHAR
STARTCHAR 0179
ENCODING 377
SWIDTH 594 0
DWIDTH 33 0
BBX 29 48 7 0
BITMAP
00001FC0
00003FC0
00007F80
00007F00
0000FE00
0001FC00
0003F800
0003F000
00004000
00000000
000FFF80
00FFFFF8
07FFFFF0
1FFFFFE0
3FFFFFC0
3FFFFF80
7FFFFF00
7FFFFE00
FFFFFE00
FFF7FC00
8007F800
000FF000
000FF000
001FE000
003FE000
003FC000
007FC000
007F8000
00FF8000
00FF0000
01FF0000
03FE0000
03FE0000
07FC0000
07FC0000
0FF80000
0FF00000
1FE038E0
1FFFFFF0
3FFFFFE0
7FFFFFE0
7FFFFFE0
FFFFFFC0
FFFFFF80
FFFFFF00
03FFFC00
00FFF000
00070000
ENDCHAR
STARTCHAR 017A
ENCODING 378
SWIDTH 594 0
DWIDTH 33 0
BBX 29 48 7 0
BITMAP
00001FC0
00003FC0
00007F80
00007F00
0000FE00
0001FC00
0003F800
0003F000
00004000
00000000
000FFF80
00FFFFF8
07FFFFF0
1FFFFFE0
3FFFFFC0
3FFFFF80
7FFFFF00
7FFFFE00
FFFFFE00
FFF7FC00
8007F800
000FF000
000FF000
001FE000
003FE000
003FC000
007FC000
007F8000
00FF8000
00FF0000
01FF0000
03FE0000
03FE0000
07FC0000
07FC0000
0FF80000
0FF00000
1FE038E0
1FFFFFF0
3FFFFFE0
7FFFFFE0
7FFFFFE0
FFFFFFC0
FFFFFF80
FFFFFF00
03FFFC00
00FFF000
00070000
ENDCHAR
STARTCHAR 017B
ENCODING 379
SWIDTH 594 0
DWIDTH 33 0
BBX 29 45 7 0
BITMAP
0001E000
0003F000
0007E000
0007E000
0007C000
00038000
00000000
000FFF80
00FFFFF8
07FFFFF0
1FFFFFE0
3FFFFFC0
3FFFFF80
7FFFFF00
7FFFFE00
FFFFFE00
FFF7FC00
8007F800
000FF000
000FF000
001FE000
003FE000
003FC000
007FC000
007F8000
00FF8000
00FF0000
01FF0000
03FE0000
03FE0000
07FC0000
07FC0000
0FF80000
0FF00000
1FE038E0
1FFFFFF0
3FFFFFE0
7FFFFFE0
7FFFFFE0
FFFFFFC0
FFFFFF80
FFFFFF00
03FFFC00
00FFF000
00070000
ENDCHAR
STARTCHAR 017C
ENCODING 380
SWIDTH 594 0
DWIDTH 33 0
BBX 29 45 7 0
BITMAP
0001E000
0003F000
0007E000
0007E000
0007C000
00038000
00000000
000FFF80
00FFFFF8
07FFFFF0
1FFFFFE0
3FFFFFC0
3FFFFF80
7FFFFF00
7FFFFE00
FFFFFE00
FFF7FC00
8007F800
000FF000
000FF000
001FE000
003FE000
003FC000
007FC000
007F8000
00FF8000
00FF0000
01FF0000
03FE0000
03FE0000
07FC0000
07FC0000
0FF80000
0FF00000
1FE038E0
1FFFFFF0
3FFFFFE0
7FFFFFE0
7FFFFFE0
FFFFFFC0
FFFFFF80
FFFFFF00
03FFFC00
00FFF000
00070000
ENDCHAR
STARTCHAR 017D
ENCODING 381
SWIDTH 594 0
DWIDTH 33 0
BBX 29 48 7 0
BITMAP
001E0380
003E0FC0
007F3FC0
003FFF80
001FFF00
000FFC00
0007F800
0003E000
00018000
00000000
000FFF80
00FFFFF8
07FFFFF0
1FFFFFE0
3FFFFFC0
3FFFFF80
7FFFFF00
7FFFFE00
FFFFFE00
FFF7FC00
8007F800
000FF000
000FF000
001FE000
003FE000
003FC000
007FC000
007F8000
00FF8000
00FF0000
01FF0000
03FE0000
03FE0000
07FC0000
07FC0000
0FF80000
0FF00000
1FE038E0
1FFFFFF0
3FFFFFE0
7FFFFFE0
7FFFFFE0
FFFFFFC0
FFFFFF80
FFFFFF00
03FFFC00
00FFF000
00070000
ENDCHAR
STARTCHAR 017E
ENCODING 382
SWIDTH 594 0
DWIDTH 33 0
BBX 29 48 7 0
BITMAP
001E0380
003E0FC0
007F3FC0
003FFF80
001FFF00
000FFC00
0007F800
0003E000
00018000
00000000
000FFF80
00FFFFF8
07FFFFF0
1FFFFFE0
3FFFFFC0
3FFFFF80
7FFFFF00
7FFFFE00
FFFFFE00
FFF7FC00
8007F800
000FF000
000FF000
001FE000
003FE000
003FC000
007FC000
007F8000
00FF8000
00FF0000
01FF0000
03FE0000
03FE0000
07FC0000
07FC0000
0FF80000
0FF00000
1FE038E0
1FFFFFF0
3FFFFFE0
7FFFFFE0
7FFFFFE0
FFFFFFC0
FFFFFF80
FFFFFF00
03FFFC00
00FFF000
00070000
ENDCHAR
STARTCHAR 017F
ENCODING 383
SWIDTH 432 0
DWIDTH 24 0
BBX 28 47 2 -8
BITMAP
00007000
0007FF80
000FFFE0
001FFFF0
007FFFF0
00FFFFF0
01FFFFF0
03FFFFF0
03FF07F0
07FE07E0
07FE0000
07FC0000
07FC0000
0FFC0000
0FF80000
0FF80000
0FF80000
0FF80000
0FF80000
0FF80000
0FF80000
0FF00000
0FF00000
1FF00000
1FF00000
1FF00000
1FF00000
1FE00000
1FE00000
1FE00000
1FE00000
3FE00000
3FE00000
3FC00000
3FC00000
7FC00000
7FC00000
7FC00000
7F800000
7F800000
FF800000
FF800000
FF800000
FF800000
FF800000
FF000000
7E000000
ENDCHAR
STARTCHAR 0180
ENCODING 384
SWIDTH 504 0
DWIDTH 28 0
BBX 28 38 3 0
BITMAP
007FF000
01FFFE00
03FFFF80
07FFFF80
07FFFF80
07FFFFC0
07FFFFC0
07FFFFE0
07FEFFE0
07FC3FC0
07FC1FC0
07FC1FC0
07FC1F80
07FC3F80
07FC3F00
07FEFF00
0FFFFC00
0FFFF800
0FFFFE00
0FFFFF80
0FFFFFC0
0FFFFFC0
0FFFFFE0
0FFD1FE0
0FFF9FE0
7FFF9FF0
FFFF9FF0
FFFFBFE0
FFFFFFE0
FFFCFFC0
FFFFFFC0
1FFFFF80
1FFFFF00
1FFFFE00
1FFFFC00
3FFFF000
1FFE0000
03000000
ENDCHAR
STARTCHAR 0181
ENCODING 385
SWIDTH 666 0
DWIDTH 37 0
BBX 33 38 6 0
BITMAP
0007FFC000
00FFFFF800
01FFFFFC00
07FFFFFE00
0FFFFFFE00
0FFFFFFE00
1FFFFFFF00
3FFFFFFF00
3FFFFBFF00
7FFFF0FF00
7F9FF07F00
FF1FF07F00
FE1FE07E00
FC1FE0FE00
FC3FF1FC00
FC3FF3FC00
FE3FFFF000
FF3FFFE000
7F3FFFF000
7F3FFFFE00
7F3FFFFE00
7F3FFFFF00
7F7FFFFF80
3E7FF0FF80
007FF0FF80
007FE0FF80
007FE0FF80
007FE1FF80
007FE3FF80
007FEFFF00
007FFFFF00
007FFFFE00
00FFFFFC00
00FFFFF000
00FFFFE000
00FFFFC000
00FFF80000
0008000000
ENDCHAR
STARTCHAR 0186
ENCODING 390
SWIDTH 486 0
DWIDTH 27 0
BBX 29 37 3 0
BITMAP
0003C000
003FF800
00FFFE00
01FFFF80
07FFFFC0
07FFFFE0
07FFFFF0
07FFFFF0
07FFFFF0
07FFFFF0
07FFFFF8
0003FFF8
0001FFF8
0000FFF8
00007FF0
00007FF0
00007FF0
00007FF0
00007FF0
0000FFE0
0001FFE0
3E07FFE0
3FFFFFE0
7FFFFFC0
7FFFFFC0
7FFFFF80
7FFFFF80
7FFFFF00
7FFFFF00
FFFFFE00
FFFFFE00
FFFFFC00
7FFFF800
3FFFF000
3FFFF000
1FFF0000
07FC0000
ENDCHAR
STARTCHAR 0187
ENCODING 391
SWIDTH 486 0
DWIDTH 27 0
BBX 32 47 4 0
BITMAP
0000001F
000001FF
000003FF
00000FFF
00001FFF
00003FFF
00003FFE
00007FF8
00007FE0
0000FFC0
0000FFC0
0001FFC0
000FFFE0
003FFFF0
007FFFF8
01FFFFF8
03FFFFF8
07FFFFF8
07FFFFF0
0FFFFFF0
0FFFFFE0
1FFFC000
1FFF0000
3FFE0000
3FFC0000
3FF80000
7FF80000
7FF00000
7FF00000
7FF00000
7FF80000
FFFC0F80
FFFFFF80
FFFFFF80
FFFFFF80
FFFFFF80
FFFFFF00
7FFFFF00
7FFFFF00
7FFFFF00
7FFFFF00
7FFFFE00
3FFFFC00
3FFFF800
3FFFF000
07FFC000
01FF0000
ENDCHAR
STARTCHAR 0188
ENCODING 392
SWIDTH 486 0
DWIDTH 27 0
BBX 32 47 4 0
BITMAP
0000001F
000001FF
000003FF
00000FFF
00001FFF
00003FFF
00003FFE
00007FF8
00007FE0
0000FFC0
0000FFC0
0001FFC0
000FFFE0
003FFFF0
007FFFF8
01FFFFF8
03FFFFF8
07FFFFF8
07FFFFF0
0FFFFFF0
0FFFFFE0
1FFFC000
1FFF0000
3FFE0000
3FFC0000
3FF80000
7FF80000
7FF00000
7FF00000
7FF00000
7FF80000
FFFC0F80
FFFFFF80
FFFFFF80
FFFFFF80
FFFFFF80
FFFFFF00
7FFFFF00
7FFFFF00
7FFFFF00
7FFFFF00
7FFFFE00
3FFFFC00
3FFFF800
3FFFF000
07FFC000
01FF0000
ENDCHAR
STARTCHAR 0189
ENCODING 393
SWIDTH 486 0
DWIDTH 27 0
BBX 27 38 4 0
BITMAP
007F8000
01FFE000
03FFFC00
03FFFE00
03FFFF00
07FFFF80
07FFFF80
07FFFFC0
07FFFFC0
07FFFFE0
07FF7FE0
0FFE1FE0
0FFECFE0
0FFFCFE0
3FFFCFE0
7FFFCFE0
7FFF8FE0
7FFF9FE0
FFFFBFC0
FFFF3FC0
FFF87F80
FFF8FF00
0FFBFF00
0FFFFE00
0FFFFC00
0FFFFC00
0FFFF800
0FFFF000
0FFFE000
0FFFC000
0FFFC000
0FFF8000
0FFE0000
0FFC0000
0FF00000
0FC00000
0F000000
08000000
ENDCHAR
STARTCHAR 018A
ENCODING 394
SWIDTH 630 0
DWIDTH 35 0
BBX 33 38 6 0
BITMAP
0007FE0000
00FFFF8000
01FFFFF000
07FFFFF800
0FFFFFFC00
0FFFFFFE00
1FFFFFFE00
3FFFFFFF00
3FFFFFFF00
7FFFFFFF80
7F9FFDFF80
FF3FF87F80
FE3FF03F80
FC3FF03F80
FC3FF03F80
FC3FF03F80
FE3FF03F80
FF3FF07F80
7F3FE0FF00
7F3FE0FF00
7F3FE1FE00
7F3FE3FC00
7F3FEFFC00
3E3FFFF800
007FFFF000
007FFFF000
007FFFE000
007FFFC000
007FFF8000
007FFF0000
003FFE0000
003FFE0000
003FF80000
003FF00000
003FC00000
003F000000
003C000000
0020000000
ENDCHAR
STARTCHAR 018F
ENCODING 399
SWIDTH 486 0
DWIDTH 27 0
BBX 26 37 4 1
BITMAP
001FF800
00FFFC00
01FFFE00
03FFFF00
07FFFF00
0FFFFF80
0FFFFF80
0FFFFF80
07E7FFC0
00007FC0
00003FC0
00001FC0
00001FC0
00001FC0
00003FC0
3FFFFFC0
3FFFFFC0
7FFFFFC0
3FFFFFC0
7FFFFFC0
7FFFFFC0
7FFFFF80
7FC0FF80
7FC0FF80
7FC1FF80
FFC3FF80
FFFFFF80
FFFFFF00
FFFFFF00
FFFFFF00
FFFFFE00
FFFFFE00
7FFFFC00
3FFFF800
1FFFF000
0FFFC000
03FF8000
ENDCHAR
STARTCHAR 0190
ENCODING 400
SWIDTH 486 0
DWIDTH 27 0
BBX 26 39 5 0
BITMAP
000FE000
003FFC00
00FFFF00
01FFFF80
03FFFFC0
07FFFFC0
0FFFFFC0
1FFFFFC0
1FFE0000
3FFC0000
3FF80000
3FF00000
3FE00000
3FE00000
3FF00000
3FF00000
3FF83000
1FFFF000
1FFFF000
0FFFF000
07FFF000
1FFFF000
1FFF8000
3FF00000
3FE00000
7FC00000
7FC00000
FFC00000
FFC00200
FFC01E00
FFF1FE00
FFFFFE00
FFFFFE00
FFFFFC00
7FFFFC00
7FFFF800
3FFFF000
1FFFC000
01FE0000
ENDCHAR
STARTCHAR 0191
ENCODING 401
SWIDTH 504 0
DWIDTH 28 0
BBX 39 46 -5 -7
BITMAP
0000001FFC
00003FFFFE
0001FFFFFE
0007FFFFFE
0007FFFFFE
0007FFFFFE
0007FFFFFE
0007FFFFFE
0007FFFF9E
000FFF8000
000FFE0000
000FFC0000
000FFC0000
001FFC0000
001FF84000
001FFFE000
001FFFE000
001FFFE000
003FFFC000
003FFFC000
003FFFC000
003FFFC000
007FF0C000
007FE00000
007FE00000
007FE00000
00FFE00000
00FFC00000
00FFC00000
00FFC00000
00FFC00000
01FFC00000
01FF800000
01FF800000
01FF800000
01FF800000
03FF000000
03FF000000
07FF000000
3FFE000000
7FFE000000
7FFC000000
7FF8000000
7FE0000000
FFE0000000
7F00000000
ENDCHAR
STARTCHAR 0192
ENCODING 402
SWIDTH 504 0
DWIDTH 28 0
BBX 39 46 -5 -7
BITMAP
0000001FFC
00003FFFFE
0001FFFFFE
0007FFFFFE
0007FFFFFE
0007FFFFFE
0007FFFFFE
0007FFFFFE
0007FFFF9E
000FFF8000
000FFE0000
000FFC0000
000FFC0000
001FFC0000
001FF84000
001FFFE000
001FFFE000
001FFFE000
003FFFC000
003FFFC000
003FFFC000
003FFFC000
007FF0C000
007FE00000
007FE00000
007FE00000
00FFE00000
00FFC00000
00FFC00000
00FFC00000
00FFC00000
01FFC00000
01FF800000
01FF800000
01FF800000
01FF800000
03FF000000
03FF000000
07FF000000
3FFE000000
7FFE000000
7FFC000000
7FF8000000
7FE0000000
FFE0000000
7F00000000
ENDCHAR
STARTCHAR 0193
ENCODING 403
SWIDTH 504 0
DWIDTH 28 0
BBX 34 47 3 1
BITMAP
00000007C0
0000007FC0
000001FFC0
000003FFC0
000007FFC0
00000FFF80
00000FFF80
00001FFE00
00001FF800
00003FF000
0000FFF000
0001FFF000
0003FFF000
0007FFF800
000FFFFC00
001FFFFC00
003FFFFC00
007FFFF800
00FFF7F000
00FF800000
01FE000000
01FC000000
03F8000000
07F8000000
07F0000000
07F0000000
0FE00FF800
0FE0FFF000
1FE0FFF000
1FC0FFF000
3FC0FFF000
3FC0FFE000
3FC0FFE000
7FC0FFE000
7FC1FFE000
7FE1FFC000
FFFFFFC000
FFFFFFC000
FFFFFFC000
FFFFFFC000
FFFFFF0000
FFFFFE0000
7FFFF80000
7FFFE00000
3FFF800000
1FFE000000
0FF0000000
ENDCHAR
STARTCHAR 0194
ENCODING 404
SWIDTH 612 0
DWIDTH 34 0
BBX 32 44 8 -7
BITMAP
7FC000C0
7FC001F0
7FC001FF
7FC003FF
7FC007FF
7FC007FE
7FC00FFC
7FC01FFC
7FC01FF8
3FC03FF0
3FC03FE0
3FE07FE0
3FE07FC0
3FE0FFC0
1FE1FF80
1FE1FF00
1FF3FF00
1FF3FE00
0FF7FC00
0FFFFC00
07FFF800
07FFF000
07FFF000
03FFE000
03FFC000
03FF8000
07FF0000
0FFF8000
1FFFC000
1FFFC000
3FFFC000
7F9F8000
7E1F8000
7E1F8000
FC1F8000
FC1F8000
FC3F0000
FE7F0000
FFFE0000
7FFC0000
7FF80000
3FF00000
1FE00000
0F800000
ENDCHAR
STARTCHAR 0197
ENCODING 407
SWIDTH 360 0
DWIDTH 20 0
BBX 24 38 2 0
BITMAP
000010
000FFF
001FFF
001FFE
001FFE
001FFC
001FFC
003FFC
003FF8
007FF8
007FF8
007FF0
00FFF0
00FFF0
00FFF0
00FFF0
0FFFFC
1FFFFC
1FFFF8
1FFFF8
1FFFF8
3FFFF8
3FFFF8
07FF80
07FF80
07FF80
07FF80
0FFF80
0FFF80
0FFF00
0FFF00
1FFE00
1FFE00
1FFC00
3FFE00
3FFC00
7FF000
FC0000
ENDCHAR
STARTCHAR 0198
ENCODING 408
SWIDTH 594 0
DWIDTH 33 0
BBX 38 38 1 1
BITMAP
00008607E0
00FFFE0FF0
007FFE1FF8
00FFFC3FF8
00FFFC7FFC
00FFF8FFFC
01FFF8FFFC
01FFF9FFFC
01FFFBFFFC
01FFFBF9FC
03FFFFF1FC
03FFFFF1F8
03FFFFE1F8
03FFFFC3F0
07FFFF8FF0
07FFFF9FE0
07FFFF1FE0
07FFFE1FC0
0FFFFE1F80
0FFFFC3F00
0FFFFC0400
1FFFFE0000
1FFFFF0000
1FFFFF8000
1FFFFF8000
1FFFFFC000
3FFFFFE000
3FFFFFE000
3FFFBFF000
3FFF3FF000
3FFF1FF000
7FFE1FF800
7FFE0FF800
7FFE0FF800
7FFF0FF800
7FFE07CC00
FFFC070000
0070060000
ENDCHAR
STARTCHAR 0199
ENCODING 409
SWIDTH 594 0
DWIDTH 33 0
BBX 38 38 1 1
BITMAP
00008607E0
00FFFE0FF0
007FFE1FF8
00FFFC3FF8
00FFFC7FFC
00FFF8FFFC
01FFF8FFFC
01FFF9FFFC
01FFFBFFFC
01FFFBF9FC
03FFFFF1FC
03FFFFF1F8
03FFFFE1F8
03FFFFC3F0
07FFFF8FF0
07FFFF9FE0
07FFFF1FE0
07FFFE1FC0
0FFFFE1F80
0FFFFC3F00
0FFFFC0400
1FFFFE0000
1FFFFF0000
1FFFFF8000
1FFFFF8000
1FFFFFC000
3FFFFFE000
3FFFFFE000
3FFFBFF000
3FFF3FF000
3FFF1FF000
7FFE1FF800
7FFE0FF800
7FFE0FF800
7FFF0FF800
7FFE07CC00
FFFC070000
0070060000
ENDCHAR
STARTCHAR 019D
ENCODING 413
SWIDTH 558 0
DWIDTH 31 0
BBX 43 44 -5 -7
BITMAP
00001F800FC0
00007FF03FE0
00007FF0FFE0
0000FFF0FFE0
0000FFF0FFC0
0000FFE1FFC0
0001FFE1FFC0
0001FFE1FF80
0003FFE1FF80
0003FFE3FF80
0003FFE3FF00
0007FFE3FF00
0007FFE3FF00
0007FFE7FE00
000FFFE7FE00
000FFFE7FE00
000FFFF7FC00
001FFFF7FC00
001FFFFFFC00
001FFFFFFC00
001FFFFFF800
003FFBFFF800
003FFBFFF800
003FFBFFF000
003FF3FFF000
007FF3FFF000
007FF3FFF000
007FE1FFE000
00FFE1FFE000
00FFE1FFE000
00FFC1FFE000
00FFC1FFC000
01FFC1FFC000
01FF81FFC000
03FF81FFC000
03FF01FF0000
07FF00000000
3FFE00000000
7FFE00000000
7FFC00000000
7FF800000000
7FE000000000
FFE000000000
7F0000000000
ENDCHAR
STARTCHAR 01A0
ENCODING 416
SWIDTH 540 0
DWIDTH 30 0
BBX 34 40 4 0
BITMAP
0000000780
0003800FC0
0007E00FC0
000FF80FC0
001FFC0F80
003FFE0F80
007FFF8F80
00FFFFCF80
00FFFFCF80
01FFFFEF00
03FFFFFF00
03FFFFFF00
07FFFFFE00
0FFFFFFE00
0FFFFFFC00
1FFFFFF800
1FFC3FF800
3FF81FF800
3FF01FF800
7FF01FF800
7FE03FF800
7FE03FF800
7FE03FF800
7FE07FF800
7FF0FFF000
FFF9FFF000
FFFFFFE000
FFFFFFE000
7FFFFFE000
7FFFFFC000
7FFFFFC000
7FFFFF8000
7FFFFF8000
7FFFFF0000
3FFFFF0000
3FFFFE0000
1FFFFC0000
0FFFF80000
07FFE00000
00FF800000
ENDCHAR
STARTCHAR 01A1
ENCODING 417
SWIDTH 540 0
DWIDTH 30 0
BBX 34 40 4 0
BITMAP
0000000780
0003800FC0
0007E00FC0
000FF80FC0
001FFC0F80
003FFE0F80
007FFF8F80
00FFFFCF80
00FFFFCF80
01FFFFEF00
03FFFFFF00
03FFFFFF00
07FFFFFE00
0FFFFFFE00
0FFFFFFC00
1FFFFFF800
1FFC3FF800
3FF81FF800
3FF01FF800
7FF01FF800
7FE03FF800
7FE03FF800
7FE03FF800
7FE07FF800
7FF0FFF000
FFF9FFF000
FFFFFFE000
FFFFFFE000
7FFFFFE000
7FFFFFC000
7FFFFFC000
7FFFFF8000
7FFFFF8000
7FFFFF0000
3FFFFF0000
3FFFFE0000
1FFFFC0000
0FFFF80000
07FFE00000
00FF800000
ENDCHAR
STARTCHAR 01AF
ENCODING 431
SWIDTH 594 0
DWIDTH 33 0
BBX 36 40 5 0
BITMAP
00000001E0
00000003F0
00000023F0
07F00FE3F0
0FF01FE3E0
1FF01FE3E0
1FE01FE3E0
1FE00FE3E0
1FE01FE3E0
1FC01FE3C0
1FC01FFFC0
3FC01FFFC0
3FC01FFF80
3FC01FFF80
3FC03FFF00
3FC03FFE00
7FC03FF800
7FC03FE000
7FC07FE000
FFC07FE000
FF807FC000
FF80FFC000
FF81FFC000
FFC3FFC000
FFFFFF8000
FFFFFF8000
FFFFFF8000
FFFFFF0000
FFFFFF0000
FFFFFF0000
7FFFFE0000
7FFFFC0000
7FFFFC0000
3FFFF80000
3FFFF00000
1FFFF00000
1FFFE00000
0FFF800000
07FE000000
0010000000
ENDCHAR
STARTCHAR 01B0
ENCODING 432
SWIDTH 594 0
DWIDTH 33 0
BBX 36 40 5 0
BITMAP
00000001E0
00000003F0
00000023F0
07F00FE3F0
0FF01FE3E0
1FF01FE3E0
1FE01FE3E0
1FE00FE3E0
1FE01FE3E0
1FC01FE3C0
1FC01FFFC0
3FC01FFFC0
3FC01FFF80
3FC01FFF80
3FC03FFF00
3FC03FFE00
7FC03FF800
7FC03FE000
7FC07FE000
FFC07FE000
FF807FC000
FF80FFC000
FF81FFC000
FFC3FFC000
FFFFFF8000
FFFFFF8000
FFFFFF8000
FFFFFF0000
FFFFFF0000
FFFFFF0000
7FFFFE0000
7FFFFC0000
7FFFFC0000
3FFFF80000
3FFFF00000
1FFFF00000
1FFFE00000
0FFF800000
07FE000000
0010000000
ENDCHAR
STARTCHAR 01B1
ENCODING 433
SWIDTH 612 0
DWIDTH 34 0
BBX 37 39 4 0
BITMAP
038000FFF8
07FFE0FFF8
07FFE0FFF8
0FFFE0FFF8
0FFFC1FFF8
0FFFC1FFF0
0FFFC1FFF0
0FFF81FFF0
0FFF81FFE0
00FF01FE00
01FE00FF00
03FE007F00
03FC007F80
07F8007F80
0FF0007F80
0FF0007F80
1FE0007F80
1FE0007F80
3FC0007F80
3FC0007F80
3FC000FF80
7FC000FF80
7FC001FF00
7FC001FF00
7FC003FE00
FFE007FE00
FFE00FFE00
FFF03FFC00
FFFFFFFC00
FFFFFFF800
FFFFFFF000
7FFFFFF000
7FFFFFE000
7FFFFFC000
7FFFFF8000
3FFFFF0000
1FFFFC0000
0FFFF00000
03FF800000
ENDCHAR
STARTCHAR 01B2
ENCODING 434
SWIDTH 558 0
DWIDTH 31 0
BBX 29 38 6 1
BITMAP
00001C00
00407F00
1FC1FF00
3FC1FF80
3FC1FFC0
3FC0FFE0
3FC0FFE0
3FC07FF0
3FC03FF0
7FC03FF0
7FC01FF8
7FC01FF8
7FC01FF8
FFC01FF8
FFC01FF8
FFC01FF8
FFC01FF8
FFC01FF8
FFC03FF8
FFC03FF8
FFC07FF0
FFE07FF0
FFE0FFF0
FFE1FFE0
FFFFFFE0
FFFFFFE0
FFFFFFC0
FFFFFFC0
7FFFFF80
7FFFFF80
7FFFFF00
3FFFFE00
3FFFFC00
1FFFFC00
1FFFF800
0FFFF000
07FFC000
03FE0000
ENDCHAR
STARTCHAR 01B3
ENCODING 435
SWIDTH 666 0
DWIDTH 37 0
BBX 35 38 8 0
BITMAP
0000003C00
008001FF00
07C003FF80
7FC003FFC0
FFE007FFC0
FFE00FFFC0
FFE00FFFC0
7FE01FFFC0
7FF03FFFE0
7FF03FFFE0
3FF07FDFE0
3FF0FFCFC0
3FF8FF8FC0
3FF9FF0FC0
1FFBFF1F80
1FFBFE1F80
1FFFFC7F00
0FFFFCFF00
0FFFF8FE00
0FFFF1FE00
0FFFF1FC00
07FFE1F800
07FFC1F800
07FFC00000
03FF800000
03FF000000
03FF000000
01FF000000
01FE000000
01FE000000
03FE000000
03FE000000
03FE000000
03FE000000
03FE000000
07FE000000
07FC000000
07F0000000
ENDCHAR
STARTCHAR 01B4
ENCODING 436
SWIDTH 666 0
DWIDTH 37 0
BBX 35 38 8 0
BITMAP
0000003C00
008001FF00
07C003FF80
7FC003FFC0
FFE007FFC0
FFE00FFFC0
FFE00FFFC0
7FE01FFFC0
7FF03FFFE0
7FF03FFFE0
3FF07FDFE0
3FF0FFCFC0
3FF8FF8FC0
3FF9FF0FC0
1FFBFF1F80
1FFBFE1F80
1FFFFC7F00
0FFFFCFF00
0FFFF8FE00
0FFFF1FE00
0FFFF1FC00
07FFE1F800
07FFC1F800
07FFC00000
03FF800000
03FF000000
03FF000000
01FF000000
01FE000000
01FE000000
03FE000000
03FE000000
03FE000000
03FE000000
03FE000000
07FE000000
07FC000000
07F0000000
ENDCHAR
STARTCHAR 01B5
ENCODING 437
SWIDTH 594 0
DWIDTH 33 0
BBX 29 38 7 0
BITMAP
000FFF80
00FFFFF8
07FFFFF0
1FFFFFE0
3FFFFFC0
3FFFFF80
7FFFFF00
7FFFFE00
FFFFFE00
FFF7FC00
8007F800
000FF000
000FF000
001FE000
003FE800
7FFFFFC0
7FFFFF80
7FFFFF80
FFFFFF80
FFFFFF80
FFFFFF80
FFFFFF80
7FFE0000
07FC0000
07FC0000
0FF80000
0FF00000
1FE038E0
1FFFFFF0
3FFFFFE0
7FFFFFE0
7FFFFFE0
FFFFFFC0
FFFFFF80
FFFFFF00
03FFFC00
00FFF000
00070000
ENDCHAR
STARTCHAR 01B6
ENCODING 438
SWIDTH 594 0
DWIDTH 33 0
BBX 29 38 7 0
BITMAP
000FFF80
00FFFFF8
07FFFFF0
1FFFFFE0
3FFFFFC0
3FFFFF80
7FFFFF00
7FFFFE00
FFFFFE00
FFF7FC00
8007F800
000FF000
000FF000
001FE000
003FE800
7FFFFFC0
7FFFFF80
7FFFFF80
FFFFFF80
FFFFFF80
FFFFFF80
FFFFFF80
7FFE0000
07FC0000
07FC0000
0FF80000
0FF00000
1FE038E0
1FFFFFF0
3FFFFFE0
7FFFFFE0
7FFFFFE0
FFFFFFC0
FFFFFF80
FFFFFF00
03FFFC00
00FFF000
00070000
ENDCHAR
STARTCHAR 01B7
ENCODING 439
SWIDTH 486 0
DWIDTH 27 0
BBX 29 39 2 -1
BITMAP
001FFFF0
00FFFFF8
00FFFFF8
00FFFFF8
00FFFFF8
00FFFFF0
00383FE0
00000FC0
00001F80
00007F00
0000FF00
0003FE00
0007FC00
001FFE00
003FFF80
00FFFFC0
01FFFFE0
03FFFFE0
03FFFFE0
00FFFFE0
00003FE0
00000FE0
00000FE0
00000FE0
00000FE0
00000FE0
20000FE0
7C001FE0
7FC03FE0
7FFDFFC0
FFFFFFC0
FFFFFF80
FFFFFF00
FFFFFE00
7FFFFC00
1FFFF800
07FFF000
03FF8000
007E0000
ENDCHAR
STARTCHAR 01BB
ENCODING 443
SWIDTH 504 0
DWIDTH 28 0
BBX 29 38 3 1
BITMAP
00010000
0007F000
001FFC00
007FFF00
00FFFF80
01FFFF80
03FFFF80
07FFFF80
0FFFFF80
07FFFF80
03F9FF80
03E07F00
01C07F00
0180FF00
0000FE00
001FFFF8
07FFFFF8
07FFFFF8
07FFFFF0
07FFFFF0
07FFFFF0
0FFFE000
031FC000
003FEFF0
003FFFF0
007FFFE0
00FFFFE0
01FFFFC0
03FFFFC0
03FFFF80
07FFFF80
0FFFFF80
1FFFFF00
7FFFFF00
FFFFFE00
FFFFF800
3FFFC000
07FC0000
ENDCHAR
STARTCHAR 01C0
ENCODING 448
SWIDTH 180 0
DWIDTH 10 0
BBX 15 38 2 0
BITMAP
00FE
01FE
01FE
01FE
03FC
03FC
03FC
03FC
03FC
07F8
07F8
07F8
07F8
0FF8
0FF0
0FF0
0FF0
1FF0
1FF0
1FE0
1FE0
1FE0
3FE0
3FE0
3FE0
3FC0
3FC0
7FC0
7F80
7F80
FF80
FF80
FF80
FF00
FF00
FF00
FF00
FC00
ENDCHAR
STARTCHAR 01C1
ENCODING 449
SWIDTH 306 0
DWIDTH 17 0
BBX 22 38 2 1
BITMAP
00E8FC
01F9FC
01F9FC
01F9FC
03F9F8
03F9F8
03F3F8
03F3F8
03F3F8
07F3F0
07F3F0
07E7F0
07E7F0
0FE7F0
0FE7E0
0FE7E0
0FCFE0
1FCFE0
1FCFE0
1FCFC0
1F9FC0
1F9FC0
3F9FC0
3F9F80
3F9F80
3F3F80
3F3F80
7F3F80
7F3F00
7F3F00
FE7F00
FE7F00
FE7E00
FE7E00
FC7E00
FCFE00
FCFC00
FC0000
ENDCHAR
STARTCHAR 01C2
ENCODING 450
SWIDTH 324 0
DWIDTH 18 0
BBX 20 38 3 0
BITMAP
001F00
003FC0
003FC0
003FC0
007F80
007F80
007F80
00FF80
00FF80
0FFFF0
0FFFF0
0FFFF0
1FFFF0
1FFFF0
1FFFE0
1FFFE0
1FFE00
03FE00
03FC00
03FC00
03FC00
03FC00
07FC00
7FFF80
7FFF80
7FFF80
FFFF80
FFFF80
FFFF00
FFFF00
FFF000
0FF000
1FE000
1FE000
1FE000
1FE000
1FC000
1FC000
ENDCHAR
STARTCHAR 01C3
ENCODING 451
SWIDTH 198 0
DWIDTH 11 0
BBX 17 39 2 0
BITMAP
007F80
01FF80
01FF80
01FF00
01FF00
03FF00
03FF00
03FF00
03FE00
03FE00
07FE00
07FE00
07FE00
07FC00
07FC00
0FFC00
0FF800
0FF800
0FF800
0FF000
1FF000
1FF000
1FE000
1FE000
1FE000
0F8000
000000
000000
000000
070000
3F8000
7FC000
FFC000
FFC000
FF8000
FF8000
FF8000
7F0000
180000
ENDCHAR
STARTCHAR 01CA
ENCODING 458
SWIDTH 738 0
DWIDTH 41 0
BBX 46 38 1 0
BITMAP
000000000004
000F00F003FC
003FC3F807FC
003FC7F807FC
007FC7F007FC
007F8FF00FFC
007F8FF00FF8
00FF8FF01FF8
00FF8FE01FF8
00FF9FE01FF8
01FF9FE01FF0
01FF9FC03FF0
01FF9FC03FF0
01FF9FC03FF0
03FFBF803FF0
03FFBF803FF0
03FFBF807FF0
07FFBF807FF0
07FFFF007FE0
07FFFF007FE0
0FFFFF007FE0
0FFFFE007FE0
0FFFFE007FC0
0FFFFE007FC0
1FEFFE007FC0
1FEFFC047F80
1FEFFC7E7F80
1FEFFCFE7F80
3FCFFCFEFF00
3FCFF8FEFF00
3FCFF8FEFE00
3FC7F8FFFE00
7F87F8FFFC00
7F8FF0FFF800
7F8FF0FFF000
7F8FF07FE000
FE0FE03FC000
E000000F8000
ENDCHAR
STARTCHAR 01CB
ENCODING 459
SWIDTH 738 0
DWIDTH 41 0
BBX 46 38 1 0
BITMAP
000000000004
000F00F003FC
003FC3F807FC
003FC7F807FC
007FC7F007FC
007F8FF00FFC
007F8FF00FF8
00FF8FF01FF8
00FF8FE01FF8
00FF9FE01FF8
01FF9FE01FF0
01FF9FC03FF0
01FF9FC03FF0
01FF9FC03FF0
03FFBF803FF0
03FFBF803FF0
03FFBF807FF0
07FFBF807FF0
07FFFF007FE0
07FFFF007FE0
0FFFFF007FE0
0FFFFE007FE0
0FFFFE007FC0
0FFFFE007FC0
1FEFFE007FC0
1FEFFC047F80
1FEFFC7E7F80
1FEFFCFE7F80
3FCFFCFEFF00
3FCFF8FEFF00
3FCFF8FEFE00
3FC7F8FFFE00
7F87F8FFFC00
7F8FF0FFF800
7F8FF0FFF000
7F8FF07FE000
FE0FE03FC000
E000000F8000
ENDCHAR
STARTCHAR 01CC
ENCODING 460
SWIDTH 738 0
DWIDTH 41 0
BBX 46 38 1 0
BITMAP
000000000004
000F00F003FC
003FC3F807FC
003FC7F807FC
007FC7F007FC
007F8FF00FFC
007F8FF00FF8
00FF8FF01FF8
00FF8FE01FF8
00FF9FE01FF8
01FF9FE01FF0
01FF9FC03FF0
01FF9FC03FF0
01FF9FC03FF0
03FFBF803FF0
03FFBF803FF0
03FFBF807FF0
07FFBF807FF0
07FFFF007FE0
07FFFF007FE0
0FFFFF007FE0
0FFFFE007FE0
0FFFFE007FC0
0FFFFE007FC0
1FEFFE007FC0
1FEFFC047F80
1FEFFC7E7F80
1FEFFCFE7F80
3FCFFCFEFF00
3FCFF8FEFF00
3FCFF8FEFE00
3FC7F8FFFE00
7F87F8FFFC00
7F8FF0FFF800
7F8FF0FFF000
7F8FF07FE000
FE0FE03FC000
E000000F8000
ENDCHAR
STARTCHAR 01CD
ENCODING 461
SWIDTH 630 0
DWIDTH 35 0
BBX 36 49 1 -1
BITMAP
00000F01E0
00001F87F0
00001FCFE0
00001FFFE0
00000FFF80
000007FF00
000003FE00
000001F800
000000E000
0000000000
0000001000
000001F000
000003F800
000003F800
000007F800
00000FF800
00000FF800
00001FF800
00001FF800
00003FF800
00003FF800
00007FF800
0000FFF800
0000FFF800
0001FFF800
0001FFFC00
0003FFFC00
0007FFFC00
0007FFFC00
000FFFFC00
001FDFFC00
001F8FFC00
003F0FFC00
007E0FFC00
007C0FFC00
00FC0FFE00
01FFFFFE00
01FFFFFE00
03FFFFFE00
07FFFFFE00
07FF9FFE00
0FFC1FFF00
1FF01FFF00
1FF01FFF00
3FE01FFF00
3FE01FFF80
7FE01FFF80
FFE00FFF80
FF000C0000
ENDCHAR
STARTCHAR 01CE
ENCODING 462
SWIDTH 630 0
DWIDTH 35 0
BBX 36 49 1 -1
BITMAP
00000F01E0
00001F87F0
00001FCFE0
00001FFFE0
00000FFF80
000007FF00
000003FE00
000001F800
000000E000
0000000000
0000001000
000001F000
000003F800
000003F800
000007F800
00000FF800
00000FF800
00001FF800
00001FF800
00003FF800
00003FF800
00007FF800
0000FFF800
0000FFF800
0001FFF800
0001FFFC00
0003FFFC00
0007FFFC00
0007FFFC00
000FFFFC00
001FDFFC00
001F8FFC00
003F0FFC00
007E0FFC00
007C0FFC00
00FC0FFE00
01FFFFFE00
01FFFFFE00
03FFFFFE00
07FFFFFE00
07FF9FFE00
0FFC1FFF00
1FF01FFF00
1FF01FFF00
3FE01FFF00
3FE01FFF80
7FE01FFF80
FFE00FFF80
FF000C0000
ENDCHAR
STARTCHAR 01CF
ENCODING 463
SWIDTH 324 0
DWIDTH 18 0
BBX 29 48 1 0
BITMAP
0003C070
0007E1F8
000FE7F8
0007FFF0
0003FFE0
0001FFC0
0000FF00
00007C00
00003000
00000000
00000000
000FFF80
001FFF00
001FFE00
000FFE00
001FFE00
001FFC00
003FFC00
003FFC00
003FF800
007FF800
007FF800
007FF000
00FFF000
00FFF000
00FFF000
01FFE000
01FFE000
01FFE000
01FFC000
03FFC000
03FFC000
03FFC000
07FFC000
07FF8000
07FF8000
07FF8000
0FFF8000
0FFF8000
0FFF8000
0FFF0000
1FFE0000
1FFE0000
1FFE0000
3FFE0000
3FFC0000
7FF00000
FC000000
ENDCHAR
STARTCHAR 01D0
ENCODING 464
SWIDTH 324 0
DWIDTH 18 0
BBX 29 48 1 0
BITMAP
0003C070
0007E1F8
000FE7F8
0007FFF0
0003FFE0
0001FFC0
0000FF00
00007C00
00003000
00000000
00000000
000FFF80
001FFF00
001FFE00
000FFE00
001FFE00
001FFC00
003FFC00
003FFC00
003FF800
007FF800
007FF800
007FF000
00FFF000
00FFF000
00FFF000
01FFE000
01FFE000
01FFE000
01FFC000
03FFC000
03FFC000
03FFC000
07FFC000
07FF8000
07FF8000
07FF8000
0FFF8000
0FFF8000
0FFF8000
0FFF0000
1FFE0000
1FFE0000
1FFE0000
3FFE0000
3FFC0000
7FF00000
FC000000
ENDCHAR
STARTCHAR 01D1
ENCODING 465
SWIDTH 522 0
DWIDTH 29 0
BBX 29 48 4 0
BITMAP
00F81F00
01FC3F00
01FEFF00
00FFFE00
007FF800
003FF000
001FE000
000F8000
00000000
00038000
0007E000
000FF800
001FFC00
003FFF00
007FFF80
00FFFFC0
00FFFFC0
01FFFFE0
03FFFFE0
03FFFFF0
07FFFFF0
0FFFFFF0
0FFFFFF0
1FFFFFF8
1FFC3FF8
3FF81FF8
3FF01FF8
7FF01FF8
7FE03FF8
7FE03FF8
7FE03FF8
7FE07FF8
7FF0FFF0
FFF9FFF0
FFFFFFE0
FFFFFFE0
7FFFFFE0
7FFFFFC0
7FFFFFC0
7FFFFF80
7FFFFF80
7FFFFF00
3FFFFF00
3FFFFE00
1FFFFC00
0FFFF800
07FFE000
00FF8000
ENDCHAR
STARTCHAR 01D2
ENCODING 466
SWIDTH 522 0
DWIDTH 29 0
BBX 29 48 4 0
BITMAP
00F81F00
01FC3F00
01FEFF00
00FFFE00
007FF800
003FF000
001FE000
000F8000
00000000
00038000
0007E000
000FF800
001FFC00
003FFF00
007FFF80
00FFFFC0
00FFFFC0
01FFFFE0
03FFFFE0
03FFFFF0
07FFFFF0
0FFFFFF0
0FFFFFF0
1FFFFFF8
1FFC3FF8
3FF81FF8
3FF01FF8
7FF01FF8
7FE03FF8
7FE03FF8
7FE03FF8
7FE07FF8
7FF0FFF0
FFF9FFF0
FFFFFFE0
FFFFFFE0
7FFFFFE0
7FFFFFC0
7FFFFFC0
7FFFFF80
7FFFFF80
7FFFFF00
3FFFFF00
3FFFFE00
1FFFFC00
0FFFF800
07FFE000
00FF8000
ENDCHAR
STARTCHAR 01D3
ENCODING 467
SWIDTH 540 0
DWIDTH 30 0
BBX 33 47 4 1
BITMAP
0000700E00
0000F83F00
0001FCFF00
0000FFFE00
00007FFC00
00003FF800
00001FE000
00000F8000
0000060000
0000000000
0078004000
00FF80FF80
00FF00FF80
01FF00FF80
01FE00FF80
03FE00FF00
03FC00FF00
07FC01FF00
07FC01FE00
0FF801FE00
0FF803FE00
0FF803FE00
1FF803FE00
1FF007FC00
3FF007FC00
3FF007FC00
3FF00FFC00
7FF00FFC00
7FF01FFC00
7FF01FFC00
7FF81FF800
7FFE3FF800
7FFFFFF000
FFFFFFE000
FFFFFFE000
FFFFFFC000
FFFFFFC000
FFFFFF8000
7FFFFF8000
7FFFFF0000
7FFFFE0000
3FFFFC0000
3FFFF80000
3FFFF00000
1FFFE00000
07FFC00000
01FF000000
ENDCHAR
STARTCHAR 01D4
ENCODING 468
SWIDTH 540 0
DWIDTH 30 0
BBX 33 47 4 1
BITMAP
0000700E00
0000F83F00
0001FCFF00
0000FFFE00
00007FFC00
00003FF800
00001FE000
00000F8000
0000060000
0000000000
0078004000
00FF80FF80
00FF00FF80
01FF00FF80
01FE00FF80
03FE00FF00
03FC00FF00
07FC01FF00
07FC01FE00
0FF801FE00
0FF803FE00
0FF803FE00
1FF803FE00
1FF007FC00
3FF007FC00
3FF007FC00
3FF00FFC00
7FF00FFC00
7FF01FFC00
7FF01FFC00
7FF81FF800
7FFE3FF800
7FFFFFF000
FFFFFFE000
FFFFFFE000
FFFFFFC000
FFFFFFC000
FFFFFF8000
7FFFFF8000
7FFFFF0000
7FFFFE0000
3FFFFC0000
3FFFF80000
3FFFF00000
1FFFE00000
07FFC00000
01FF000000
ENDCHAR
STARTCHAR 01D5
ENCODING 469
SWIDTH 540 0
DWIDTH 30 0
BBX 33 49 4 1
BITMAP
0000FFFF00
0000FFFF00
0001FFFF00
0001FFFF00
0000000000
0000000000
0000F07800
0001F0FC00
0003F0FC00
0003F0F800
0001E0F000
0000000000
0078004000
00FF80FF80
00FF00FF80
01FF00FF80
01FE00FF80
03FE00FF00
03FC00FF00
07FC01FF00
07FC01FE00
0FF801FE00
0FF803FE00
0FF803FE00
1FF803FE00
1FF007FC00
3FF007FC00
3FF007FC00
3FF00FFC00
7FF00FFC00
7FF01FFC00
7FF01FFC00
7FF81FF800
7FFE3FF800
7FFFFFF000
FFFFFFE000
FFFFFFE000
FFFFFFC000
FFFFFFC000
FFFFFF8000
7FFFFF8000
7FFFFF0000
7FFFFE0000
3FFFFC0000
3FFFF80000
3FFFF00000
1FFFE00000
07FFC00000
01FF000000
ENDCHAR
STARTCHAR 01D6
ENCODING 470
SWIDTH 540 0
DWIDTH 30 0
BBX 33 49 4 1
BITMAP
0000FFFF00
0000FFFF00
0001FFFF00
0001FFFF00
0000000000
0000000000
0000F07800
0001F0FC00
0003F0FC00
0003F0F800
0001E0F000
0000000000
0078004000
00FF80FF80
00FF00FF80
01FF00FF80
01FE00FF80
03FE00FF00
03FC00FF00
07FC01FF00
07FC01FE00
0FF801FE00
0FF803FE00
0FF803FE00
1FF803FE00
1FF007FC00
3FF007FC00
3FF007FC00
3FF00FFC00
7FF00FFC00
7FF01FFC00
7FF01FFC00
7FF81FF800
7FFE3FF800
7FFFFFF000
FFFFFFE000
FFFFFFE000
FFFFFFC000
FFFFFFC000
FFFFFF8000
7FFFFF8000
7FFFFF0000
7FFFFE0000
3FFFFC0000
3FFFF80000
3FFFF00000
1FFFE00000
07FFC00000
01FF000000
ENDCHAR
STARTCHAR 01D7
ENCODING 471
SWIDTH 540 0
DWIDTH 30 0
BBX 33 49 4 1
BITMAP
0000007F00
000000FE00
000001FC00
000003F000
000007E000
0000008000
0000F07800
0001F0FC00
0003F0FC00
0003F0F800
0001E0F000
0000000000
0078004000
00FF80FF80
00FF00FF80
01FF00FF80
01FE00FF80
03FE00FF00
03FC00FF00
07FC01FF00
07FC01FE00
0FF801FE00
0FF803FE00
0FF803FE00
1FF803FE00
1FF007FC00
3FF007FC00
3FF007FC00
3FF00FFC00
7FF00FFC00
7FF01FFC00
7FF01FFC00
7FF81FF800
7FFE3FF800
7FFFFFF000
FFFFFFE000
FFFFFFE000
FFFFFFC000
FFFFFFC000
FFFFFF8000
7FFFFF8000
7FFFFF0000
7FFFFE0000
3FFFFC0000
3FFFF80000
3FFFF00000
1FFFE00000
07FFC00000
01FF000000
ENDCHAR
STARTCHAR 01D8
ENCODING 472
SWIDTH 540 0
DWIDTH 30 0
BBX 33 49 4 1
BITMAP
0000007F00
000000FE00
000001FC00
000003F000
000007E000
0000008000
0000F07800
0001F0FC00
0003F0FC00
0003F0F800
0001E0F000
0000000000
0078004000
00FF80FF80
00FF00FF80
01FF00FF80
01FE00FF80
03FE00FF00
03FC00FF00
07FC01FF00
07FC01FE00
0FF801FE00
0FF803FE00
0FF803FE00
1FF803FE00
1FF007FC00
3FF007FC00
3FF007FC00
3FF00FFC00
7FF00FFC00
7FF01FFC00
7FF01FFC00
7FF81FF800
7FFE3FF800
7FFFFFF000
FFFFFFE000
FFFFFFE000
FFFFFFC000
FFFFFFC000
FFFFFF8000
7FFFFF8000
7FFFFF0000
7FFFFE0000
3FFFFC0000
3FFFF80000
3FFFF00000
1FFFE00000
07FFC00000
01FF000000
ENDCHAR
STARTCHAR 01D9
ENCODING 473
SWIDTH 540 0
DWIDTH 30 0
BBX 33 49 4 1
BITMAP
0000FC3F00
0000FEFF00
00007FFE00
00003FF800
00001FE000
0000078000
0000F07800
0001F0FC00
0003F0FC00
0003F0F800
0001E0F000
0000000000
0078004000
00FF80FF80
00FF00FF80
01FF00FF80
01FE00FF80
03FE00FF00
03FC00FF00
07FC01FF00
07FC01FE00
0FF801FE00
0FF803FE00
0FF803FE00
1FF803FE00
1FF007FC00
3FF007FC00
3FF007FC00
3FF00FFC00
7FF00FFC00
7FF01FFC00
7FF01FFC00
7FF81FF800
7FFE3FF800
7FFFFFF000
FFFFFFE000
FFFFFFE000
FFFFFFC000
FFFFFFC000
FFFFFF8000
7FFFFF8000
7FFFFF0000
7FFFFE0000
3FFFFC0000
3FFFF80000
3FFFF00000
1FFFE00000
07FFC00000
01FF000000
ENDCHAR
STARTCHAR 01DA
ENCODING 474
SWIDTH 540 0
DWIDTH 30 0
BBX 33 49 4 1
BITMAP
0000FC3F00
0000FEFF00
00007FFE00
00003FF800
00001FE000
0000078000
0000F07800
0001F0FC00
0003F0FC00
0003F0F800
0001E0F000
0000000000
0078004000
00FF80FF80
00FF00FF80
01FF00FF80
01FE00FF80
03FE00FF00
03FC00FF00
07FC01FF00
07FC01FE00
0FF801FE00
0FF803FE00
0FF803FE00
1FF803FE00
1FF007FC00
3FF007FC00
3FF007FC00
3FF00FFC00
7FF00FFC00
7FF01FFC00
7FF01FFC00
7FF81FF800
7FFE3FF800
7FFFFFF000
FFFFFFE000
FFFFFFE000
FFFFFFC000
FFFFFFC000
FFFFFF8000
7FFFFF8000
7FFFFF0000
7FFFFE0000
3FFFFC0000
3FFFF80000
3FFFF00000
1FFFE00000
07FFC00000
01FF000000
ENDCHAR
STARTCHAR 01DB
ENCODING 475
SWIDTH 540 0
DWIDTH 30 0
BBX 33 49 4 1
BITMAP
0000FE0000
0000FF0000
00007F8000
00001F8000
00000FC000
0000040000
0000F07800
0001F0FC00
0003F0FC00
0003F0F800
0001E0F000
0000000000
0078004000
00FF80FF80
00FF00FF80
01FF00FF80
01FE00FF80
03FE00FF00
03FC00FF00
07FC01FF00
07FC01FE00
0FF801FE00
0FF803FE00
0FF803FE00
1FF803FE00
1FF007FC00
3FF007FC00
3FF007FC00
3FF00FFC00
7FF00FFC00
7FF01FFC00
7FF01FFC00
7FF81FF800
7FFE3FF800
7FFFFFF000
FFFFFFE000
FFFFFFE000
FFFFFFC000
FFFFFFC000
FFFFFF8000
7FFFFF8000
7FFFFF0000
7FFFFE0000
3FFFFC0000
3FFFF80000
3FFFF00000
1FFFE00000
07FFC00000
01FF000000
ENDCHAR
STARTCHAR 01DC
ENCODING 476
SWIDTH 540 0
DWIDTH 30 0
BBX 33 49 4 1
BITMAP
0000FE0000
0000FF0000
00007F8000
00001F8000
00000FC000
0000040000
0000F07800
0001F0FC00
0003F0FC00
0003F0F800
0001E0F000
0000000000
0078004000
00FF80FF80
00FF00FF80
01FF00FF80
01FE00FF80
03FE00FF00
03FC00FF00
07FC01FF00
07FC01FE00
0FF801FE00
0FF803FE00
0FF803FE00
1FF803FE00
1FF007FC00
3FF007FC00
3FF007FC00
3FF00FFC00
7FF00FFC00
7FF01FFC00
7FF01FFC00
7FF81FF800
7FFE3FF800
7FFFFFF000
FFFFFFE000
FFFFFFE000
FFFFFFC000
FFFFFFC000
FFFFFF8000
7FFFFF8000
7FFFFF0000
7FFFFE0000
3FFFFC0000
3FFFF80000
3FFFF00000
1FFFE00000
07FFC00000
01FF000000
ENDCHAR
STARTCHAR 01DE
ENCODING 478
SWIDTH 630 0
DWIDTH 35 0
BBX 37 51 1 -1
BITMAP
00000FFFF8
00000FFFF0
00000FFFF0
00000FFFF0
0000000000
0000000180
00000787C0
00000F87E0
00001F8FC0
00001F8FC0
00000F0300
0000000000
0000001000
000001F000
000003F800
000003F800
000007F800
00000FF800
00000FF800
00001FF800
00001FF800
00003FF800
00003FF800
00007FF800
0000FFF800
0000FFF800
0001FFF800
0001FFFC00
0003FFFC00
0007FFFC00
0007FFFC00
000FFFFC00
001FDFFC00
001F8FFC00
003F0FFC00
007E0FFC00
007C0FFC00
00FC0FFE00
01FFFFFE00
01FFFFFE00
03FFFFFE00
07FFFFFE00
07FF9FFE00
0FFC1FFF00
1FF01FFF00
1FF01FFF00
3FE01FFF00
3FE01FFF80
7FE01FFF80
FFE00FFF80
FF000C0000
ENDCHAR
STARTCHAR 01DF
ENCODING 479
SWIDTH 630 0
DWIDTH 35 0
BBX 37 51 1 -1
BITMAP
00000FFFF8
00000FFFF0
00000FFFF0
00000FFFF0
0000000000
0000000180
00000787C0
00000F87E0
00001F8FC0
00001F8FC0
00000F0300
0000000000
0000001000
000001F000
000003F800
000003F800
000007F800
00000FF800
00000FF800
00001FF800
00001FF800
00003FF800
00003FF800
00007FF800
0000FFF800
0000FFF800
0001FFF800
0001FFFC00
0003FFFC00
0007FFFC00
0007FFFC00
000FFFFC00
001FDFFC00
001F8FFC00
003F0FFC00
007E0FFC00
007C0FFC00
00FC0FFE00
01FFFFFE00
01FFFFFE00
03FFFFFE00
07FFFFFE00
07FF9FFE00
0FFC1FFF00
1FF01FFF00
1FF01FFF00
3FE01FFF00
3FE01FFF80
7FE01FFF80
FFE00FFF80
FF000C0000
ENDCHAR
STARTCHAR 01E0
ENCODING 480
SWIDTH 630 0
DWIDTH 35 0
BBX 37 51 1 -1
BITMAP
00000FFFF8
00000FFFF0
00000FFFF0
00000FFFF0
0000000000
0000000000
0000007C00
000000FC00
000000FC00
000000F800
0000007000
0000000000
0000001000
000001F000
000003F800
000003F800
000007F800
00000FF800
00000FF800
00001FF800
00001FF800
00003FF800
00003FF800
00007FF800
0000FFF800
0000FFF800
0001FFF800
0001FFFC00
0003FFFC00
0007FFFC00
0007FFFC00
000FFFFC00
001FDFFC00
001F8FFC00
003F0FFC00
007E0FFC00
007C0FFC00
00FC0FFE00
01FFFFFE00
01FFFFFE00
03FFFFFE00
07FFFFFE00
07FF9FFE00
0FFC1FFF00
1FF01FFF00
1FF01FFF00
3FE01FFF00
3FE01FFF80
7FE01FFF80
FFE00FFF80
FF000C0000
ENDCHAR
STARTCHAR 01E1
ENCODING 481
SWIDTH 630 0
DWIDTH 35 0
BBX 37 51 1 -1
BITMAP
00000FFFF8
00000FFFF0
00000FFFF0
00000FFFF0
0000000000
0000000000
0000007C00
000000FC00
000000FC00
000000F800
0000007000
0000000000
0000001000
000001F000
000003F800
000003F800
000007F800
00000FF800
00000FF800
00001FF800
00001FF800
00003FF800
00003FF800
00007FF800
0000FFF800
0000FFF800
0001FFF800
0001FFFC00
0003FFFC00
0007FFFC00
0007FFFC00
000FFFFC00
001FDFFC00
001F8FFC00
003F0FFC00
007E0FFC00
007C0FFC00
00FC0FFE00
01FFFFFE00
01FFFFFE00
03FFFFFE00
07FFFFFE00
07FF9FFE00
0FFC1FFF00
1FF01FFF00
1FF01FFF00
3FE01FFF00
3FE01FFF80
7FE01FFF80
FFE00FFF80
FF000C0000
ENDCHAR
STARTCHAR 01E2
ENCODING 482
SWIDTH 738 0
DWIDTH 41 0
BBX 41 46 1 -1
BITMAP
0000003FFF80
0000007FFF80
0000007FFF80
0000007FFF80
000000FFFF80
000000200000
000000010000
0000007FFF00
000001FFFF80
000003FFFF80
000003FFFF80
000007FFFF00
00000FFFFF00
00000FFFFE00
00001FFFFE00
00001FFFFC00
00003FFFFE00
00007FFFFC00
00007FFF0000
0000FFFC0000
0000FFFC0000
0001FFFC0000
0003FFFC3800
0003FFFFF800
0007FFFFF000
000FFFFFF000
000FFFFFF000
001FDFFFF000
001F8FFE0000
003F0FFC0000
007E0FFC0300
007C0FFFFF00
00FC3FFFFF00
01FFFFFFFF00
01FFFFFFFF00
03FFFFFFFF00
07FFFFFFFF00
07FF1FFFFF00
0FF81FFFFF00
1FF01FFFFF00
1FF01FFFFF00
3FE01FFFFC00
7FE01FFFC000
7FE01FFC0000
FFE00F800000
FC0000000000
ENDCHAR
STARTCHAR 01E3
ENCODING 483
SWIDTH 738 0
DWIDTH 41 0
BBX 41 46 1 -1
BITMAP
0000003FFF80
0000007FFF80
0000007FFF80
0000007FFF80
000000FFFF80
000000200000
000000010000
0000007FFF00
000001FFFF80
000003FFFF80
000003FFFF80
000007FFFF00
00000FFFFF00
00000FFFFE00
00001FFFFE00
00001FFFFC00
00003FFFFE00
00007FFFFC00
00007FFF0000
0000FFFC0000
0000FFFC0000
0001FFFC0000
0003FFFC3800
0003FFFFF800
0007FFFFF000
000FFFFFF000
000FFFFFF000
001FDFFFF000
001F8FFE0000
003F0FFC0000
007E0FFC0300
007C0FFFFF00
00FC3FFFFF00
01FFFFFFFF00
01FFFFFFFF00
03FFFFFFFF00
07FFFFFFFF00
07FF1FFFFF00
0FF81FFFFF00
1FF01FFFFF00
1FF01FFFFF00
3FE01FFFFC00
7FE01FFFC000
7FE01FFC0000
FFE00F800000
FC0000000000
ENDCHAR
STARTCHAR 01E4
ENCODING 484
SWIDTH 540 0
DWIDTH 30 0
BBX 31 37 5 1
BITMAP
00007FC0
0001FFF0
0003FFF8
0007FFFC
000FFFFC
001FFFFE
003FFFFE
003FFFFC
007FF3F0
00FF8000
00FE0000
01FE0000
01FF8000
7FFF8000
7FFF8000
7FFF0000
FFFF07FC
FFFF7FF8
FFFFFFF8
1FF87FF0
1FE07FF0
1FE07FF0
3FE0FFF0
3FE0FFE0
3FE0FFE0
7FF1FFE0
7FFFFFE0
7FFFFFE0
7FFFFFC0
FFFFFFC0
7FFFFF80
7FFFFF00
7FFFFC00
3FFFF000
3FFFC000
1FFF0000
07F80000
ENDCHAR
STARTCHAR 01E5
ENCODING 485
SWIDTH 540 0
DWIDTH 30 0
BBX 31 37 5 1
BITMAP
00007FC0
0001FFF0
0003FFF8
0007FFFC
000FFFFC
001FFFFE
003FFFFE
003FFFFC
007FF3F0
00FF8000
00FE0000
01FE0000
01FF8000
7FFF8000
7FFF8000
7FFF0000
FFFF07FC
FFFF7FF8
FFFFFFF8
1FF87FF0
1FE07FF0
1FE07FF0
3FE0FFF0
3FE0FFE0
3FE0FFE0
7FF1FFE0
7FFFFFE0
7FFFFFE0
7FFFFFC0
FFFFFFC0
7FFFFF80
7FFFFF00
7FFFFC00
3FFFF000
3FFFC000
1FFF0000
07F80000
ENDCHAR
STARTCHAR 01E6
ENCODING 486
SWIDTH 504 0
DWIDTH 28 0
BBX 30 47 3 1
BITMAP
0001E03C
0003F0FC
0003FBFC
0003FFF8
0001FFF0
0000FFE0
00007F80
00003F00
00001800
00000000
0000FF80
0001FFE0
0003FFF0
0007FFF8
000FFFFC
001FFFFC
003FFFFC
007FFFF8
00FFF7F0
00FF8000
01FE0000
01FC0000
03F80000
07F80000
07F00000
07F00000
0FE00FF8
0FE0FFF0
1FE0FFF0
1FC0FFF0
3FC0FFF0
3FC0FFE0
3FC0FFE0
7FC0FFE0
7FC1FFE0
7FE1FFC0
FFFFFFC0
FFFFFFC0
FFFFFFC0
FFFFFFC0
FFFFFF00
FFFFFE00
7FFFF800
7FFFE000
3FFF8000
1FFE0000
0FF00000
ENDCHAR
STARTCHAR 01E7
ENCODING 487
SWIDTH 504 0
DWIDTH 28 0
BBX 30 47 3 1
BITMAP
0001E03C
0003F0FC
0003FBFC
0003FFF8
0001FFF0
0000FFE0
00007F80
00003F00
00001800
00000000
0000FF80
0001FFE0
0003FFF0
0007FFF8
000FFFFC
001FFFFC
003FFFFC
007FFFF8
00FFF7F0
00FF8000
01FE0000
01FC0000
03F80000
07F80000
07F00000
07F00000
0FE00FF8
0FE0FFF0
1FE0FFF0
1FC0FFF0
3FC0FFF0
3FC0FFE0
3FC0FFE0
7FC0FFE0
7FC1FFE0
7FE1FFC0
FFFFFFC0
FFFFFFC0
FFFFFFC0
FFFFFFC0
FFFFFF00
FFFFFE00
7FFFF800
7FFFE000
3FFF8000
1FFE0000
0FF00000
ENDCHAR
STARTCHAR 01E8
ENCODING 488
SWIDTH 540 0
DWIDTH 30 0
BBX 36 48 1 0
BITMAP
00000F00E0
00001F87F0
00001FCFF0
00000FFFE0
00000FFFC0
000007FF00
000003FE00
000001F800
0000006000
0000000100
0000860700
00FFFE0F00
007FFE1F80
00FFFC3FF0
00FFFC7FF0
00FFF8FFE0
01FFF8FFC0
01FFF9FF80
01FFFBFF00
01FFFBFE00
03FFFFFC00
03FFFFF800
03FFFFF000
03FFFFE000
07FFFFE000
07FFFFC000
07FFFF8000
07FFFF0000
0FFFFF0000
0FFFFC0000
0FFFFC0000
1FFFFE0000
1FFFFF0000
1FFFFF8000
1FFFFF8000
1FFFFFC000
3FFFFFE000
3FFFFFE000
3FFFBFF000
3FFF3FF000
3FFF1FF000
7FFE1FF800
7FFE0FF800
7FFE0FF800
7FFF0FF800
7FFE07CC00
FFFC070000
0070060000
ENDCHAR
STARTCHAR 01E9
ENCODING 489
SWIDTH 540 0
DWIDTH 30 0
BBX 36 48 1 0
BITMAP
00000F00E0
00001F87F0
00001FCFF0
00000FFFE0
00000FFFC0
000007FF00
000003FE00
000001F800
0000006000
0000000100
0000860700
00FFFE0F00
007FFE1F80
00FFFC3FF0
00FFFC7FF0
00FFF8FFE0
01FFF8FFC0
01FFF9FF80
01FFFBFF00
01FFFBFE00
03FFFFFC00
03FFFFF800
03FFFFF000
03FFFFE000
07FFFFE000
07FFFFC000
07FFFF8000
07FFFF0000
0FFFFF0000
0FFFFC0000
0FFFFC0000
1FFFFE0000
1FFFFF0000
1FFFFF8000
1FFFFF8000
1FFFFFC000
3FFFFFE000
3FFFFFE000
3FFFBFF000
3FFF3FF000
3FFF1FF000
7FFE1FF800
7FFE0FF800
7FFE0FF800
7FFF0FF800
7FFE07CC00
FFFC070000
0070060000
ENDCHAR
STARTCHAR 01EA
ENCODING 490
SWIDTH 522 0
DWIDTH 29 0
BBX 29 48 4 -9
BITMAP
00038000
0007E000
000FF800
001FFC00
003FFE00
007FFF80
00FFFFC0
00FFFFC0
01FFFFE0
03FFFFE0
03FFFFE0
07FFFFF0
0FFFFFF0
0FFFFFF0
1FFFFFF8
1FFC3FF8
3FF81FF8
3FF01FF8
7FF01FF8
7FE03FF8
7FE03FF8
7FE03FF8
7FE07FF8
7FF0FFF0
FFF9FFF0
FFFFFFE0
FFFFFFE0
7FFFFFE0
7FFFFFC0
7FFFFFC0
7FFFFF80
7FFFFF80
7FFFFF00
3FFFFF00
3FFFFE00
1FFFFC00
0FFFF800
03FFE000
00FF8000
007C0000
00F80000
01F80000
01F00000
03F87800
03FFF800
03FFF800
01FFF000
007FE000
ENDCHAR
STARTCHAR 01EB
ENCODING 491
SWIDTH 522 0
DWIDTH 29 0
BBX 29 48 4 -9
BITMAP
00038000
0007E000
000FF800
001FFC00
003FFE00
007FFF80
00FFFFC0
00FFFFC0
01FFFFE0
03FFFFE0
03FFFFE0
07FFFFF0
0FFFFFF0
0FFFFFF0
1FFFFFF8
1FFC3FF8
3FF81FF8
3FF01FF8
7FF01FF8
7FE03FF8
7FE03FF8
7FE03FF8
7FE07FF8
7FF0FFF0
FFF9FFF0
FFFFFFE0
FFFFFFE0
7FFFFFE0
7FFFFFC0
7FFFFFC0
7FFFFF80
7FFFFF80
7FFFFF00
3FFFFF00
3FFFFE00
1FFFFC00
0FFFF800
03FFE000
00FF8000
007C0000
00F80000
01F80000
01F00000
03F87800
03FFF800
03FFF800
01FFF000
007FE000
ENDCHAR
STARTCHAR 01EC
ENCODING 492
SWIDTH 522 0
DWIDTH 29 0
BBX 29 54 4 -9
BITMAP
007FFF00
00FFFF00
00FFFF00
01FFFF00
01FFFF00
00400000
00038000
0007E000
000FF800
001FFC00
003FFE00
007FFF80
00FFFFC0
00FFFFC0
01FFFFE0
03FFFFE0
03FFFFE0
07FFFFF0
0FFFFFF0
0FFFFFF0
1FFFFFF8
1FFC3FF8
3FF81FF8
3FF01FF8
7FF01FF8
7FE03FF8
7FE03FF8
7FE03FF8
7FE07FF8
7FF0FFF0
FFF9FFF0
FFFFFFE0
FFFFFFE0
7FFFFFE0
7FFFFFC0
7FFFFFC0
7FFFFF80
7FFFFF80
7FFFFF00
3FFFFF00
3FFFFE00
1FFFFC00
0FFFF800
03FFE000
00FF8000
007C0000
00F80000
01F80000
01F00000
03F87800
03FFF800
03FFF800
01FFF000
007FE000
ENDCHAR
STARTCHAR 01ED
ENCODING 493
SWIDTH 522 0
DWIDTH 29 0
BBX 29 54 4 -9
BITMAP
007FFF00
00FFFF00
00FFFF00
01FFFF00
01FFFF00
00400000
00038000
0007E000
000FF800
001FFC00
003FFE00
007FFF80
00FFFFC0
00FFFFC0
01FFFFE0
03FFFFE0
03FFFFE0
07FFFFF0
0FFFFFF0
0FFFFFF0
1FFFFFF8
1FFC3FF8
3FF81FF8
3FF01FF8
7FF01FF8
7FE03FF8
7FE03FF8
7FE03FF8
7FE07FF8
7FF0FFF0
FFF9FFF0
FFFFFFE0
FFFFFFE0
7FFFFFE0
7FFFFFC0
7FFFFFC0
7FFFFF80
7FFFFF80
7FFFFF00
3FFFFF00
3FFFFE00
1FFFFC00
0FFFF800
03FFE000
00FF8000
007C0000
00F80000
01F80000
01F00000
03F87800
03FFF800
03FFF800
01FFF000
007FE000
ENDCHAR
STARTCHAR 01EE
ENCODING 494
SWIDTH 486 0
DWIDTH 27 0
BBX 29 49 2 -1
BITMAP
00018000
000FC1F8
000FE7F8
000FFFF0
0007FFE0
0003FFC0
0001FF00
0000FE00
00007000
00000000
001FFFF0
00FFFFF8
00FFFFF8
00FFFFF8
00FFFFF8
00FFFFF0
00383FE0
00000FC0
00001F80
00007F00
0000FF00
0003FE00
0007FC00
001FFE00
003FFF80
00FFFFC0
01FFFFE0
03FFFFE0
03FFFFE0
00FFFFE0
00003FE0
00000FE0
00000FE0
00000FE0
00000FE0
00000FE0
20000FE0
7C001FE0
7FC03FE0
7FFDFFC0
FFFFFFC0
FFFFFF80
FFFFFF00
FFFFFE00
7FFFFC00
1FFFF800
07FFF000
03FF8000
007E0000
ENDCHAR
STARTCHAR 01EF
ENCODING 495
SWIDTH 486 0
DWIDTH 27 0
BBX 29 49 2 -1
BITMAP
00018000
000FC1F8
000FE7F8
000FFFF0
0007FFE0
0003FFC0
0001FF00
0000FE00
00007000
00000000
001FFFF0
00FFFFF8
00FFFFF8
00FFFFF8
00FFFFF8
00FFFFF0
00383FE0
00000FC0
00001F80
00007F00
0000FF00
0003FE00
0007FC00
001FFE00
003FFF80
00FFFFC0
01FFFFE0
03FFFFE0
03FFFFE0
00FFFFE0
00003FE0
00000FE0
00000FE0
00000FE0
00000FE0
00000FE0
20000FE0
7C001FE0
7FC03FE0
7FFDFFC0
FFFFFFC0
FFFFFF80
FFFFFF00
FFFFFE00
7FFFFC00
1FFFF800
07FFF000
03FF8000
007E0000
ENDCHAR
STARTCHAR 01F0
ENCODING 496
SWIDTH 450 0
DWIDTH 25 0
BBX 33 48 3 0
BITMAP
0000780700
0000FC3F80
0000FE7F80
00007FFF00
00007FFC00
00003FF800
00001FF000
00000FC000
0000070000
0000000000
0000003000
00007FF000
0000FFF000
0000FFF000
0001FFF000
0001FFF000
0003FFF000
0003FFF000
0003FFE000
0007FFE000
0007FFE000
0007FFE000
0007FFE000
000FFFE000
000FFFE000
000FFFC000
000FFFC000
000FFFC000
000FFFC000
000FFFC000
000FFF8000
000FFF8000
000FFF8000
000FFF8000
000FFF0000
030FFF0000
7F8FFE0000
FF8FFE0000
FFCFFE0000
FFDFFC0000
FFDFF80000
FFFFF80000
FFFFF00000
7FFFE00000
7FFFC00000
3FFF000000
1FFE000000
03FC000000
ENDCHAR
STARTCHAR 01F4
ENCODING 500
SWIDTH 504 0
DWIDTH 28 0
BBX 30 47 3 1
BITMAP
000001FC
000003FC
000003F8
000007F0
00000FE0
00001FC0
00001F80
00003F00
00000600
00000000
0000FF80
0001FFE0
0003FFF0
0007FFF8
000FFFFC
001FFFFC
003FFFFC
007FFFF8
00FFF7F0
00FF8000
01FE0000
01FC0000
03F80000
07F80000
07F00000
07F00000
0FE00FF8
0FE0FFF0
1FE0FFF0
1FC0FFF0
3FC0FFF0
3FC0FFE0
3FC0FFE0
7FC0FFE0
7FC1FFE0
7FE1FFC0
FFFFFFC0
FFFFFFC0
FFFFFFC0
FFFFFFC0
FFFFFF00
FFFFFE00
7FFFF800
7FFFE000
3FFF8000
1FFE0000
0FF00000
ENDCHAR
STARTCHAR 01F5
ENCODING 501
SWIDTH 504 0
DWIDTH 28 0
BBX 30 47 3 1
BITMAP
000001FC
000003FC
000003F8
000007F0
00000FE0
00001FC0
00001F80
00003F00
00000600
00000000
0000FF80
0001FFE0
0003FFF0
0007FFF8
000FFFFC
001FFFFC
003FFFFC
007FFFF8
00FFF7F0
00FF8000
01FE0000
01FC0000
03F80000
07F80000
07F00000
07F00000
0FE00FF8
0FE0FFF0
1FE0FFF0
1FC0FFF0
3FC0FFF0
3FC0FFE0
3FC0FFE0
7FC0FFE0
7FC1FFE0
7FE1FFC0
FFFFFFC0
FFFFFFC0
FFFFFFC0
FFFFFFC0
FFFFFF00
FFFFFE00
7FFFF800
7FFFE000
3FFF8000
1FFE0000
0FF00000
ENDCHAR
STARTCHAR 01F8
ENCODING 504
SWIDTH 558 0
DWIDTH 31 0
BBX 37 48 1 0
BITMAP
00003F8000
00003FC000
00001FC000
00001FE000
00000FE000
000007E000
000007F000
000003F000
0000010000
0000000000
0000000000
0007E003F0
001FFC0FF8
001FFC3FF8
003FFC3FF8
003FFC3FF0
003FF87FF0
007FF87FF0
007FF87FE0
00FFF87FE0
00FFF8FFE0
00FFF8FFC0
01FFF8FFC0
01FFF8FFC0
01FFF9FF80
03FFF9FF80
03FFF9FF80
03FFFDFF00
07FFFDFF00
07FFFFFF00
07FFFFFF00
07FFFFFE00
0FFEFFFE00
0FFEFFFE00
0FFEFFFC00
0FFCFFFC00
1FFCFFFC00
1FFCFFFC00
1FFC7FF800
3FF87FF800
3FF87FF800
3FF87FF800
3FF87FF000
7FF07FF000
7FF07FF000
7FF07FF000
FFC07FC000
7000000000
ENDCHAR
STARTCHAR 01F9
ENCODING 505
SWIDTH 558 0
DWIDTH 31 0
BBX 37 48 1 0
BITMAP
00003F8000
00003FC000
00001FC000
00001FE000
00000FE000
000007E000
000007F000
000003F000
0000010000
0000000000
0000000000
0007E003F0
001FFC0FF8
001FFC3FF8
003FFC3FF8
003FFC3FF0
003FF87FF0
007FF87FF0
007FF87FE0
00FFF87FE0
00FFF8FFE0
00FFF8FFC0
01FFF8FFC0
01FFF8FFC0
01FFF9FF80
03FFF9FF80
03FFF9FF80
03FFFDFF00
07FFFDFF00
07FFFFFF00
07FFFFFF00
07FFFFFE00
0FFEFFFE00
0FFEFFFE00
0FFEFFFC00
0FFCFFFC00
1FFCFFFC00
1FFCFFFC00
1FFC7FF800
3FF87FF800
3FF87FF800
3FF87FF800
3FF87FF000
7FF07FF000
7FF07FF000
7FF07FF000
FFC07FC000
7000000000
ENDCHAR
STARTCHAR 01FE
ENCODING 510
SWIDTH 522 0
DWIDTH 29 0
BBX 38 49 0 -1
BITMAP
000001FC00
000003FC00
000007F800
00000FF000
00001FE000
00001F8000
00003F0000
00003E0000
00000C0000
00003807FC
00007E07FC
0000FF8FF8
0001FFDFF0
0003FFFFE0
0007FFFFE0
000FFFFFC0
000FFFFF80
001FFFFF00
003FFFFE00
003FFFFE00
007FFFFF00
00FFFFFF00
00FFFFFF00
01FFFFFF80
01FF3FFF80
03FE7FFF80
03FCFFFF80
07F9FEFF80
07F9FEFF80
07F3FDFF80
07F7F9FF80
07FFF1FF80
07FFE3FF00
0FFFC7FF00
0FFFDFFE00
0FFFFFFE00
0FFFFFFE00
07FFFFFC00
07FFFFFC00
07FFFFF800
07FFFFF800
07FFFFF000
0FFFFFF000
1FFFFFE000
3FFFFFC000
7FFFFF8000
FF3FFE0000
9E0FF80000
0C00000000
ENDCHAR
STARTCHAR 01FF
ENCODING 511
SWIDTH 522 0
DWIDTH 29 0
BBX 38 49 0 -1
BITMAP
000001FC00
000003FC00
000007F800
00000FF000
00001FE000
00001F8000
00003F0000
00003E0000
00000C0000
00003807FC
00007E07FC
0000FF8FF8
0001FFDFF0
0003FFFFE0
0007FFFFE0
000FFFFFC0
000FFFFF80
001FFFFF00
003FFFFE00
003FFFFE00
007FFFFF00
00FFFFFF00
00FFFFFF00
01FFFFFF80
01FF3FFF80
03FE7FFF80
03FCFFFF80
07F9FEFF80
07F9FEFF80
07F3FDFF80
07F7F9FF80
07FFF1FF80
07FFE3FF00
0FFFC7FF00
0FFFDFFE00
0FFFFFFE00
0FFFFFFE00
07FFFFFC00
07FFFFFC00
07FFFFF800
07FFFFF800
07FFFFF000
0FFFFFF000
1FFFFFE000
3FFFFFC000
7FFFFF8000
FF3FFE0000
9E0FF80000
0C00000000
ENDCHAR
STARTCHAR 0218
ENCODING 536
SWIDTH 504 0
DWIDTH 28 0
BBX 33 47 2 -9
BITMAP
0000FFFE00
0007FFFF80
000FFFFF00
001FFFFF00
003FFFFE00
003FFFFC00
007FFFFC00
007FFFF800
00FFFFF000
01FFFFF000
01FFFFE000
03FFFFC000
03FFFFC000
03FFFF8000
03FE038000
03FE000000
03FF800000
03FFE00000
01FFF80000
01FFFF0000
01FFFF8000
007FFFC000
0007FFC000
0001FFC000
00007FC000
00007FC000
0800FFC000
3C01FFC000
7F7FFFC000
7FFFFFC000
FFFFFF8000
FFFFFF8000
FFFFFF0000
FFFFFF0000
7FFFFC0000
3FFFF00000
1FFFC00000
07FF000000
0020000000
03FC000000
03FC000000
03F8000000
07F8000000
07F0000000
0FE0000000
0FC0000000
0780000000
ENDCHAR
STARTCHAR 0219
ENCODING 537
SWIDTH 504 0
DWIDTH 28 0
BBX 33 47 2 -9
BITMAP
0000FFFE00
0007FFFF80
000FFFFF00
001FFFFF00
003FFFFE00
003FFFFC00
007FFFFC00
007FFFF800
00FFFFF000
01FFFFF000
01FFFFE000
03FFFFC000
03FFFFC000
03FFFF8000
03FE038000
03FE000000
03FF800000
03FFE00000
01FFF80000
01FFFF0000
01FFFF8000
007FFFC000
0007FFC000
0001FFC000
00007FC000
00007FC000
0800FFC000
3C01FFC000
7F7FFFC000
7FFFFFC000
FFFFFF8000
FFFFFF8000
FFFFFF0000
FFFFFF0000
7FFFFC0000
3FFFF00000
1FFFC00000
07FF000000
0020000000
03FC000000
03FC000000
03F8000000
07F8000000
07F0000000
0FE0000000
0FC0000000
0780000000
ENDCHAR
STARTCHAR 021A
ENCODING 538
SWIDTH 576 0
DWIDTH 32 0
BBX 31 47 7 -9
BITMAP
00000040
1FFFFFF8
3FFFFFFC
3FFFFFFC
3FFFFFFE
7FFFFFFE
7FFFFFFE
7FFFFFFC
FFFFFFFC
FFFFFFFC
FFFFFFFC
FFFFFE00
FE1FF800
E01FF000
003FE000
003FE000
003FC000
003FC000
007FC000
007FC000
007F8000
007F8000
00FF8000
00FF8000
00FF0000
00FF0000
00FF0000
01FF0000
01FE0000
01FE0000
01FE0000
03FE0000
03FE0000
03FC0000
03FC0000
03FC0000
03FC0000
03F80000
00000000
07F00000
0FF00000
0FF00000
0FE00000
1FE00000
1FC00000
1F800000
1F000000
ENDCHAR
STARTCHAR 021B
ENCODING 539
SWIDTH 576 0
DWIDTH 32 0
BBX 31 47 7 -9
BITMAP
00000040
1FFFFFF8
3FFFFFFC
3FFFFFFC
3FFFFFFE
7FFFFFFE
7FFFFFFE
7FFFFFFC
FFFFFFFC
FFFFFFFC
FFFFFFFC
FFFFFE00
FE1FF800
E01FF000
003FE000
003FE000
003FC000
003FC000
007FC000
007FC000
007F8000
007F8000
00FF8000
00FF8000
00FF0000
00FF0000
00FF0000
01FF0000
01FE0000
01FE0000
01FE0000
03FE0000
03FE0000
03FC0000
03FC0000
03FC0000
03FC0000
03F80000
00000000
07F00000
0FF00000
0FF00000
0FE00000
1FE00000
1FC00000
1F800000
1F000000
ENDCHAR
STARTCHAR 021E
ENCODING 542
SWIDTH 558 0
DWIDTH 31 0
BBX 37 47 1 1
BITMAP
00000780F0
00000FC3F8
00000FE7F0
00000FFFF0
000007FFC0
000003FF80
000001FF00
000000FC00
0000007000
0000000000
00000C0000
0007FE0000
001FFE0FF8
003FFC1FF8
003FF81FF0
003FFC3FF0
003FFC3FF0
003FF83FF0
003FF87FE0
007FF07FE0
007FF07FE0
007FF0FFE0
007FF0FFC0
00FFF0FFC0
00FFF9FFC0
00FFFFFF80
01FFFFFF80
01FFFFFF80
01FFFFFF00
03FFFFFF00
03FFFFFF00
03FFFFFF00
07FFFFFF00
07FFFFFF00
07FFFFFF00
0FFF0FFE00
0FFF0FFE00
0FFF0FFE00
0FFF0FFC00
1FFE1FFC00
1FFE1FFC00
1FFE1FF800
3FFE3FF800
3FFC3FF800
3FFC3FF000
7FFC3FF000
FFF87C0000
ENDCHAR
STARTCHAR 021F
ENCODING 543
SWIDTH 558 0
DWIDTH 31 0
BBX 37 47 1 1
BITMAP
00000780F0
00000FC3F8
00000FE7F0
00000FFFF0
000007FFC0
000003FF80
000001FF00
000000FC00
0000007000
0000000000
00000C0000
0007FE0000
001FFE0FF8
003FFC1FF8
003FF81FF0
003FFC3FF0
003FFC3FF0
003FF83FF0
003FF87FE0
007FF07FE0
007FF07FE0
007FF0FFE0
007FF0FFC0
00FFF0FFC0
00FFF9FFC0
00FFFFFF80
01FFFFFF80
01FFFFFF80
01FFFFFF00
03FFFFFF00
03FFFFFF00
03FFFFFF00
07FFFFFF00
07FFFFFF00
07FFFFFF00
0FFF0FFE00
0FFF0FFE00
0FFF0FFE00
0FFF0FFC00
1FFE1FFC00
1FFE1FFC00
1FFE1FF800
3FFE3FF800
3FFC3FF800
3FFC3FF000
7FFC3FF000
FFF87C0000
ENDCHAR
STARTCHAR 0224
ENCODING 548
SWIDTH 594 0
DWIDTH 33 0
BBX 29 45 7 -7
BITMAP
000FFF80
00FFFFF8
07FFFFF0
1FFFFFE0
3FFFFFC0
3FFFFF80
7FFFFF00
7FFFFE00
FFFFFC00
FFF7FC00
8007F800
000FF000
000FF000
001FE000
003FE000
003FC000
007FC000
007F8000
00FF8000
00FF0000
01FF0000
03FE0000
03FE0000
07FC0000
07FC0000
0FF80000
0FF00000
1FE00000
1FFFFFF0
3FFFFFE0
3FFFFFE0
7FFFFFE0
7FFFFFE0
FFFFFFC0
FFFFFFC0
0000FFC0
0001FF80
0003FF80
001FFF80
001FFF00
003FFF00
003FFE00
003FF800
003FF000
003FC000
ENDCHAR
STARTCHAR 0225
ENCODING 549
SWIDTH 594 0
DWIDTH 33 0
BBX 29 45 7 -7
BITMAP
000FFF80
00FFFFF8
07FFFFF0
1FFFFFE0
3FFFFFC0
3FFFFF80
7FFFFF00
7FFFFE00
FFFFFC00
FFF7FC00
8007F800
000FF000
000FF000
001FE000
003FE000
003FC000
007FC000
007F8000
00FF8000
00FF0000
01FF0000
03FE0000
03FE0000
07FC0000
07FC0000
0FF80000
0FF00000
1FE00000
1FFFFFF0
3FFFFFE0
3FFFFFE0
7FFFFFE0
7FFFFFE0
FFFFFFC0
FFFFFFC0
0000FFC0
0001FF80
0003FF80
001FFF80
001FFF00
003FFF00
003FFE00
003FF800
003FF000
003FC000
ENDCHAR
STARTCHAR 0226
ENCODING 550
SWIDTH 630 0
DWIDTH 35 0
BBX 33 46 1 -1
BITMAP
0000003800
0000007C00
000000FC00
000001F800
000001F800
000000F000
0000000000
0000001000
000001F000
000003F800
000003F800
000007F800
00000FF800
00000FF800
00001FF800
00001FF800
00003FF800
00003FF800
00007FF800
0000FFF800
0000FFF800
0001FFF800
0001FFFC00
0003FFFC00
0007FFFC00
0007FFFC00
000FFFFC00
001FDFFC00
001F8FFC00
003F0FFC00
007E0FFC00
007C0FFC00
00FC0FFE00
01FFFFFE00
01FFFFFE00
03FFFFFE00
07FFFFFE00
07FF9FFE00
0FFC1FFF00
1FF01FFF00
1FF01FFF00
3FE01FFF00
3FE01FFF80
7FE01FFF80
FFE00FFF80
FF000C0000
ENDCHAR
STARTCHAR 0227
ENCODING 551
SWIDTH 630 0
DWIDTH 35 0
BBX 33 46 1 -1
BITMAP
0000003800
0000007C00
000000FC00
000001F800
000001F800
000000F000
0000000000
0000001000
000001F000
000003F800
000003F800
000007F800
00000FF800
00000FF800
00001FF800
00001FF800
00003FF800
00003FF800
00007FF800
0000FFF800
0000FFF800
0001FFF800
0001FFFC00
0003FFFC00
0007FFFC00
0007FFFC00
000FFFFC00
001FDFFC00
001F8FFC00
003F0FFC00
007E0FFC00
007C0FFC00
00FC0FFE00
01FFFFFE00
01FFFFFE00
03FFFFFE00
07FFFFFE00
07FF9FFE00
0FFC1FFF00
1FF01FFF00
1FF01FFF00
3FE01FFF00
3FE01FFF80
7FE01FFF80
FFE00FFF80
FF000C0000
ENDCHAR
STARTCHAR 0228
ENCODING 552
SWIDTH 486 0
DWIDTH 27 0
BBX 22 48 7 -9
BITMAP
00FF00
07FFFC
3FFFFC
7FFFF8
7FFFF8
3FFFF0
3FFFF0
3FFFF0
3FFFE0
3FFFE0
3FFFE0
3FFFC0
3FF000
3FE000
3FE000
3FE000
3FE7C0
3FFF80
7FFF80
7FFF80
7FFF80
7FFF80
7FC000
7FC000
7FE030
7FFFF0
7FFFF8
7FFFF8
7FFFF8
7FFFF8
7FFFF8
7FFFF8
FFFFF8
FFFFF8
FFFFF8
FFFFC0
FFFC00
FFF800
71F800
01F800
01FC00
00FE00
007F00
303F80
7F7F00
7FFF00
7FFE00
1FFC00
ENDCHAR
STARTCHAR 0229
ENCODING 553
SWIDTH 486 0
DWIDTH 27 0
BBX 22 48 7 -9
BITMAP
00FF00
07FFFC
3FFFFC
7FFFF8
7FFFF8
3FFFF0
3FFFF0
3FFFF0
3FFFE0
3FFFE0
3FFFE0
3FFFC0
3FF000
3FE000
3FE000
3FE000
3FE7C0
3FFF80
7FFF80
7FFF80
7FFF80
7FFF80
7FC000
7FC000
7FE030
7FFFF0
7FFFF8
7FFFF8
7FFFF8
7FFFF8
7FFFF8
7FFFF8
FFFFF8
FFFFF8
FFFFF8
FFFFC0
FFFC00
FFF800
71F800
01F800
01FC00
00FE00
007F00
303F80
7F7F00
7FFF00
7FFE00
1FFC00
ENDCHAR
STARTCHAR 022A
ENCODING 554
SWIDTH 522 0
DWIDTH 29 0
BBX 29 50 4 0
BITMAP
003FFFC0
007FFFC0
007FFF80
007FFF80
00000000
00000000
007C1C00
00FC3E00
00FC7E00
00FC7E00
00787C00
00038000
0007E000
000FF800
001FFC00
003FFF00
007FFF80
00FFFFC0
00FFFFC0
01FFFFE0
03FFFFE0
03FFFFF0
07FFFFF0
0FFFFFF0
0FFFFFF0
1FFFFFF8
1FFC3FF8
3FF81FF8
3FF01FF8
7FF01FF8
7FE03FF8
7FE03FF8
7FE03FF8
7FE07FF8
7FF0FFF0
FFF9FFF0
FFFFFFE0
FFFFFFE0
7FFFFFE0
7FFFFFC0
7FFFFFC0
7FFFFF80
7FFFFF80
7FFFFF00
3FFFFF00
3FFFFE00
1FFFFC00
0FFFF800
07FFE000
00FF8000
ENDCHAR
STARTCHAR 022B
ENCODING 555
SWIDTH 522 0
DWIDTH 29 0
BBX 29 50 4 0
BITMAP
003FFFC0
007FFFC0
007FFF80
007FFF80
00000000
00000000
007C1C00
00FC3E00
00FC7E00
00FC7E00
00787C00
00038000
0007E000
000FF800
001FFC00
003FFF00
007FFF80
00FFFFC0
00FFFFC0
01FFFFE0
03FFFFE0
03FFFFF0
07FFFFF0
0FFFFFF0
0FFFFFF0
1FFFFFF8
1FFC3FF8
3FF81FF8
3FF01FF8
7FF01FF8
7FE03FF8
7FE03FF8
7FE03FF8
7FE07FF8
7FF0FFF0
FFF9FFF0
FFFFFFE0
FFFFFFE0
7FFFFFE0
7FFFFFC0
7FFFFFC0
7FFFFF80
7FFFFF80
7FFFFF00
3FFFFF00
3FFFFE00
1FFFFC00
0FFFF800
07FFE000
00FF8000
ENDCHAR
STARTCHAR 022C
ENCODING 556
SWIDTH 522 0
DWIDTH 29 0
BBX 29 50 4 0
BITMAP
007FFF80
007FFF80
007FFF80
00FFFF80
00000000
001C1F00
007F1F00
00FFFF00
00FFFE00
01F7FC00
01F0F000
00038000
0007E000
000FF800
001FFC00
003FFF00
007FFF80
00FFFFC0
00FFFFC0
01FFFFE0
03FFFFE0
03FFFFF0
07FFFFF0
0FFFFFF0
0FFFFFF0
1FFFFFF8
1FFC3FF8
3FF81FF8
3FF01FF8
7FF01FF8
7FE03FF8
7FE03FF8
7FE03FF8
7FE07FF8
7FF0FFF0
FFF9FFF0
FFFFFFE0
FFFFFFE0
7FFFFFE0
7FFFFFC0
7FFFFFC0
7FFFFF80
7FFFFF80
7FFFFF00
3FFFFF00
3FFFFE00
1FFFFC00
0FFFF800
07FFE000
00FF8000
ENDCHAR
STARTCHAR 022D
ENCODING 557
SWIDTH 522 0
DWIDTH 29 0
BBX 29 50 4 0
BITMAP
007FFF80
007FFF80
007FFF80
00FFFF80
00000000
001C1F00
007F1F00
00FFFF00
00FFFE00
01F7FC00
01F0F000
00038000
0007E000
000FF800
001FFC00
003FFF00
007FFF80
00FFFFC0
00FFFFC0
01FFFFE0
03FFFFE0
03FFFFF0
07FFFFF0
0FFFFFF0
0FFFFFF0
1FFFFFF8
1FFC3FF8
3FF81FF8
3FF01FF8
7FF01FF8
7FE03FF8
7FE03FF8
7FE03FF8
7FE07FF8
7FF0FFF0
FFF9FFF0
FFFFFFE0
FFFFFFE0
7FFFFFE0
7FFFFFC0
7FFFFFC0
7FFFFF80
7FFFFF80
7FFFFF00
3FFFFF00
3FFFFE00
1FFFFC00
0FFFF800
07FFE000
00FF8000
ENDCHAR
STARTCHAR 022E
ENCODING 558
SWIDTH 522 0
DWIDTH 29 0
BBX 29 46 4 0
BITMAP
00018000
0007C000
0007E000
000FC000
000FC000
00078000
00000000
00038000
0007E000
000FF800
001FFC00
003FFF00
007FFF80
00FFFFC0
00FFFFC0
01FFFFE0
03FFFFE0
03FFFFF0
07FFFFF0
0FFFFFF0
0FFFFFF0
1FFFFFF8
1FFC3FF8
3FF81FF8
3FF01FF8
7FF01FF8
7FE03FF8
7FE03FF8
7FE03FF8
7FE07FF8
7FF0FFF0
FFF9FFF0
FFFFFFE0
FFFFFFE0
7FFFFFE0
7FFFFFC0
7FFFFFC0
7FFFFF80
7FFFFF80
7FFFFF00
3FFFFF00
3FFFFE00
1FFFFC00
0FFFF800
07FFE000
00FF8000
ENDCHAR
ENDFONT
